<svg width="66" height="40" viewBox="0 0 66 40" fill="none" xmlns="http://www.w3.org/2000/svg">
<path fill-rule="evenodd" clip-rule="evenodd" d="M16.8243 14.7113C16.8243 16.2469 18.0572 17.4918 19.578 17.4918H24.1036C25.4444 17.4918 26.5314 18.5894 26.5314 19.9433C26.5314 21.2972 25.4444 22.3947 24.1036 22.3947H22.843C16.0856 22.3947 10.6077 16.8634 10.6077 10.0401C10.6077 8.3611 11.9556 7 13.6184 7L13.716 7C15.4327 7 16.8243 8.40521 16.8243 10.1386V14.7113Z" fill="#010F0C"/>
<path fill-rule="evenodd" clip-rule="evenodd" d="M11.1671 25.2887C11.1671 23.7531 9.93423 22.5082 8.41337 22.5082H3.88779C2.54695 22.5082 1.45999 21.4106 1.45999 20.0567C1.45999 18.7028 2.54695 17.6053 3.88779 17.6053H5.14836C11.9058 17.6053 17.3837 23.1366 17.3837 29.9599C17.3837 31.6389 16.0358 33 14.373 33H14.2754C12.5587 33 11.1671 31.5948 11.1671 29.8614V25.2887Z" fill="#010F0C"/>
<path d="M31.4064 27.8748L38.5872 12.2572H42.4538L49.6566 27.8748H45.9006L44.3761 24.3497H36.444L34.9195 27.8748H31.4064ZM37.6813 21.5162L37.5046 21.9401H43.3155L43.1387 21.5162L40.4211 15.1129L37.6813 21.5162Z" fill="#010F0C"/>
<path d="M51.1678 14.6444V12.1679H54.3714V14.6444H51.1678ZM51.1678 27.8748V15.693H54.3714V27.8748H51.1678Z" fill="#010F0C"/>
<path d="M56.6255 27.8748V15.693H59.8295V17.9241C60.7572 16.34 62.2155 15.4476 64.1822 15.4476C64.3145 15.4476 64.3809 15.4476 64.4914 15.4699V18.2811C64.1599 18.2365 63.8284 18.2142 63.4969 18.2142C61.9504 18.2142 60.5143 18.8389 59.8295 20.0214V27.8748H56.6255Z" fill="#010F0C"/>
</svg>
