<svg viewBox="0 0 600 618" fill="none" xmlns="http://www.w3.org/2000/svg">
  <g opacity="0.85">
    <rect x="0.25" y="92.25" width="328.5" height="297.5" rx="11.75" fill="white" stroke="black" stroke-width="0.5"/>
    <rect opacity="0.54" x="47" y="164" width="232" height="170" rx="14" fill="#E5E1D5"/>
    <g opacity="0.68">
      <g opacity="0.54" clip-path="url(#a)">
        <path d="M121.323 234.761a75.272 75.272 0 0 0 16.58-17.474 74.121 74.121 0 0 0 5.943-10.436 74.234 74.234 0 0 0 2.359-5.636c.646-1.73 1.406-3.611 1.235-5.497-.17-1.885-1.492-3.627-3.519-3.715-1.849-.076-3.559 1.224-4.731 2.539-1.37 1.539-2.308 3.472-3.195 5.318a50.021 50.021 0 0 0-2.522 6.31 49.049 49.049 0 0 0-2.312 13.118c-.155 4.029-.012 8.589 2.724 11.81 2.375 2.794 6.421 3.707 9.885 2.894 3.702-.869 6.683-3.811 8.259-7.207.404-.869.736-1.77.986-2.698l-1.944-.263c.364 8.932.716 17.873.459 26.81-.253 8.857-1.116 17.718-3.203 26.339-.982 4.062-2.074 8.539-5.238 11.484l1.655.439c-1.16-6.984-.586-14.207 1.41-20.983 1.983-6.736 5.384-13.078 9.973-18.383 2.597-3.002 5.558-5.677 8.84-7.901.352-.239.594-.689.455-1.124-.368-1.132-1.524-1.403-2.486-.805-.962.598-1.354 1.555-1.611 2.631a27.859 27.859 0 0 0-.717 7.812c.036.714.828 1.296 1.489.861 2.435-1.598 3.975-4.169 4.315-7.063.052-.426-.344-.853-.728-.96-.452-.124-.859.095-1.117.458-1.821 2.555 1.271 5.847 3.943 5.568 3.223-.338 4.664-4.093 4.391-6.943-.052-.534-.42-.997-.99-.997-.507 0-1.025.459-.99.997.107 1.534.21 3.069.317 4.604.075 1.096 1.611 1.379 1.944.263l1.924-6.494-1.655.439c1.295 1.192 2.589 2.388 3.884 3.579.439.403 1.259.403 1.556-.203a8.566 8.566 0 0 1 4.169-4.074c1.009-.466.293-2.204-.764-1.821-1.398.51-2.114 1.901-1.952 3.364.17 1.543 1.14 2.774 2.716 2.962.388.047.895-.339.954-.734a110.206 110.206 0 0 0 1.338-16.534c0-.538-.455-.996-.99-.996-.586 0-.926.458-.989.996-.206 1.75-.357 3.508-.119 5.262.218 1.618.823 3.384 2.078 4.496 1.869 1.658 5.111 1.841 7.004.115a3.36 3.36 0 0 0 1.017-1.765c.04-.2.064-.407.079-.606.016-.2 0-.207.036-.339.052-.191.079-.251.174-.423.02-.031.056-.163.024-.055l.063-.068c-.332.263-.708.151-1.136-.339l.455-1.124c-2.007 1.495-2.351 4.739-.388 6.453.594.519 1.386.283 1.655-.438.337-.897 1.588-1.323 2.376-.941.72.355 1.401-.087 1.488-.861.852-7.613 1.18-15.278.982-22.935-.031-1.288-1.912-1.276-1.979 0-.19 3.535-.325 7.115.36 10.61.332 1.706.895 3.381 1.73 4.903.78 1.431 1.928 3.145 3.741 3.165 3.235.036 3.243-4.289 2.752-6.505l-2.732-12.321-3.096-13.967-1.908.53c3.456 9.26 3.187 19.325 2.197 29.015-1.065 10.411-2.732 20.771-4.85 31.015a242.761 242.761 0 0 1-1.651 7.518c-.494 2.068-1.076 4.157-2.177 5.991-2.368 3.95-7.114 5.169-11.153 6.644-10.036 3.667-20.072 7.335-30.108 10.998-9.902 3.615-19.779 7.31-29.744 10.758-4.902 1.694-9.83 3.344-14.811 4.787-2.474.718-4.98 1.356-7.53 1.718-2.098.299-4.34.479-6.445.124-1.679-.283-3.433-.861-4.632-2.133-1.2-1.271-1.402-3.196-.768-4.867.76-1.997 2.403-3.647 4.034-4.95 1.785-1.431 3.733-2.679 5.717-3.815 4.085-2.348 8.44-4.165 12.863-5.768 4.818-1.75 9.707-3.3 14.62-4.759 10.084-2.998 20.278-5.604 30.445-8.303 10.317-2.738 20.635-5.481 30.952-8.219 2.482-.658 4.968-1.32 7.451-1.977 1.231-.327.708-2.248-.527-1.922-10.57 2.807-21.145 5.613-31.716 8.423-10.4 2.762-20.824 5.441-31.181 8.359-5.151 1.451-10.282 2.981-15.361 4.675-4.652 1.551-9.28 3.209-13.73 5.286a61.66 61.66 0 0 0-6.461 3.472c-2.078 1.291-3.99 2.587-5.693 4.213-1.596 1.523-3.068 3.436-3.583 5.628-.515 2.192.044 4.345 1.544 5.935 2.886 3.066 7.768 3.129 11.624 2.703 5.253-.582 10.329-2.272 15.341-3.882 10.234-3.289 20.314-7.052 30.409-10.743 10.254-3.747 20.508-7.49 30.762-11.237 2.542-.928 5.079-1.857 7.621-2.782 2.257-.825 4.573-1.578 6.707-2.698 2.134-1.12 3.777-2.555 4.988-4.524 1.212-1.97 1.833-4.062 2.364-6.211 1.27-5.146 2.288-10.371 3.234-15.589a330.425 330.425 0 0 0 2.498-16.016c1.319-10.045 2.51-20.396.594-30.441a42.645 42.645 0 0 0-1.932-6.952c-.443-1.188-2.189-.741-1.908.53 1.686 7.598 3.369 15.199 5.056 22.796.209.937.415 1.874.625 2.814.158.722.313 1.308.348 1.978.028.57.004 1.072-.114 1.562-.064.263-.115.427-.19.57-.147.275-.123.275-.333.45.158-.131-.162.088-.067.044.051-.024-.178.056-.242.068.159-.024-.115 0-.158-.008a1.074 1.074 0 0 1-.424-.163c-.558-.343-.93-.977-1.259-1.527-.799-1.327-1.33-2.778-1.674-4.285-.804-3.5-.618-7.155-.424-10.71h-1.979a167.028 167.028 0 0 1-.982 22.935l1.488-.861c-2.039-.996-4.489.004-5.285 2.133l1.655-.439c-.931-.813-1.045-2.555-.012-3.324.329-.247.618-.686.455-1.124-.324-.877-1.219-1.304-2.007-.678-.602.479-.938 1.304-1.017 2.057-.052.502-.052.777-.313 1.108a2.651 2.651 0 0 1-.357.331c-.091.06-.186.12-.281.171-.055.032-.114.06-.17.088-.269.128.166-.052-.123.048-.589.199-.871.239-1.488.215-.404-.016-1.026-.155-1.362-.323-.515-.255-.788-.458-1.132-.94-.475-.662-.764-1.415-.943-2.213-.403-1.825-.174-3.77.04-5.608h-1.98a106.668 106.668 0 0 1-1.266 16.004l.954-.733c.19.023-.111-.04-.151-.056-.067-.024-.059-.02.028.008a1.087 1.087 0 0 1-.115-.068c-.059-.04-.051-.032.02.024a1.947 1.947 0 0 1-.131-.12c-.031-.028-.186-.231-.075-.075a2.05 2.05 0 0 1-.142-.236c-.012-.02-.115-.279-.052-.107-.032-.092-.055-.184-.083-.275a3.148 3.148 0 0 1-.04-.188c.008.092.008.1 0 .028a2.29 2.29 0 0 1-.015-.287c0-.044.023-.366 0-.163.011-.092.039-.184.059-.275.008-.04.099-.291.024-.112.035-.084.083-.159.126-.239.111-.191-.071.068.064-.084.035-.04.21-.175.071-.079.04-.028.34-.164.186-.108l-.764-1.822a10.3 10.3 0 0 0-4.882 4.792l1.556-.204-3.883-3.579c-.551-.51-1.438-.299-1.655.438l-1.924 6.494 1.943.263c-.106-1.535-.209-3.07-.316-4.604h-1.98c.17 1.778-.356 4.368-2.336 4.919-.36.099-.649.071-1.057-.076-.352-.128-.72-.387-1.009-.702a1.994 1.994 0 0 1-.487-.905c-.048-.211-.016.048-.016-.151 0-.024.028-.311 0-.148.047-.279.091-.322.257-.554l-1.845-.502c-.253 2.157-1.54 4.166-3.337 5.345l1.489.861c-.092-1.881-.008-3.77.308-5.628.08-.462.171-.925.274-1.379.083-.375.158-.873.304-1.192.064-.139.254-.371.365-.458.075-.06.233-.144.233-.136.004.052-.518-.191-.562-.315l.455-1.124c-6.105 4.138-11.172 9.714-14.862 16.116a52.077 52.077 0 0 0-6.714 20.986 47.955 47.955 0 0 0 .439 12.417c.131.781 1.16.901 1.655.438 2.906-2.706 4.24-6.593 5.234-10.344 1.148-4.32 1.975-8.725 2.569-13.157 1.208-9.025 1.417-18.145 1.259-27.241-.091-5.102-.293-10.204-.499-15.306-.043-1.101-1.647-1.384-1.944-.263-.867 3.244-2.886 6.246-5.906 7.8-2.736 1.411-6.232 1.236-8.75-.566-2.902-2.08-3.326-6.078-3.345-9.379a46.704 46.704 0 0 1 1.532-12.165 46.537 46.537 0 0 1 4.58-11.277c.82-1.439 1.818-2.818 3.31-3.615 1.109-.594 2.467-.463 2.855.968.411 1.535-.321 3.261-.836 4.684a69.394 69.394 0 0 1-2.074 5.11 73.752 73.752 0 0 1-5.349 9.762 72.993 72.993 0 0 1-14.743 16.526c-.673.558-1.362 1.1-2.055 1.63-.428.323-.649.861-.356 1.364.245.422.926.685 1.354.358l-.008-.008Z" fill="#231F20"/>
      </g>
    </g>
    <path d="M50.105 139h-1.89v-10.965h1.905l5.145 7.77v-7.77h1.89V139h-1.89l-5.16-7.77V139Zm8.772-3.72c0-2.31 1.665-3.9 3.96-3.9s3.96 1.59 3.96 3.9c0 2.31-1.665 3.9-3.96 3.9s-3.96-1.59-3.96-3.9Zm1.83 0c0 1.35.87 2.265 2.13 2.265 1.26 0 2.13-.915 2.13-2.265s-.87-2.265-2.13-2.265c-1.26 0-2.13.915-2.13 2.265Zm9.988 3.72h-1.83v-5.88H67.44v-1.53h1.425v-2.31h1.83v2.31h1.44v1.53h-1.44V139Zm4.738.195c-1.575 0-2.535-.915-2.535-2.31 0-1.365.99-2.22 2.745-2.355l2.22-.165v-.165c0-1.005-.6-1.41-1.53-1.41-1.08 0-1.68.45-1.68 1.23h-1.56c0-1.605 1.32-2.655 3.33-2.655 1.995 0 3.225 1.08 3.225 3.135v4.5h-1.605l-.135-1.095c-.315.765-1.32 1.29-2.475 1.29Zm.6-1.38c1.125 0 1.845-.675 1.845-1.815v-.39l-1.545.12c-1.14.105-1.575.48-1.575 1.08 0 .675.45 1.005 1.275 1.005Zm10.063-6.255v1.695h-.675c-1.32 0-2.145.705-2.145 2.145v3.6h-1.83v-7.395h1.725l.105 1.08c.315-.735 1.02-1.23 2.01-1.23.255 0 .51.03.81.105Zm2.154-1.455a1.11 1.11 0 0 1-1.125-1.11c0-.615.495-1.095 1.125-1.095.6 0 1.095.48 1.095 1.095s-.495 1.11-1.095 1.11ZM87.335 139v-7.41h1.83V139h-1.83Zm9.315 0h-5.985v-1.5l3.69-4.38h-3.69v-1.53h5.985v1.515l-3.75 4.365h3.75V139Zm4.722.195c-2.205 0-3.75-1.605-3.75-3.9 0-2.325 1.515-3.93 3.69-3.93 2.22 0 3.63 1.485 3.63 3.795v.555l-5.58.015c.135 1.305.825 1.965 2.04 1.965 1.005 0 1.665-.39 1.875-1.095h1.695c-.315 1.62-1.665 2.595-3.6 2.595Zm-.045-6.33c-1.08 0-1.74.585-1.92 1.695h3.72c0-1.02-.705-1.695-1.8-1.695Zm8.125 6.33c-2.145 0-3.48-1.575-3.48-3.87 0-2.31 1.35-3.96 3.585-3.96 1.035 0 1.95.435 2.415 1.17v-4.695h1.815V139h-1.68l-.12-1.155c-.45.855-1.41 1.35-2.535 1.35Zm.405-1.68c1.275 0 2.1-.915 2.1-2.25s-.825-2.265-2.1-2.265c-1.275 0-2.055.945-2.055 2.265 0 1.32.78 2.25 2.055 2.25ZM121.432 139h-1.695v-11.16h1.83v4.83c.48-.825 1.47-1.32 2.595-1.32 2.115 0 3.405 1.65 3.405 3.99 0 2.28-1.395 3.855-3.525 3.855-1.11 0-2.055-.495-2.49-1.35l-.12 1.155Zm.15-3.735c0 1.335.825 2.25 2.085 2.25 1.29 0 2.055-.93 2.055-2.25 0-1.32-.765-2.265-2.055-2.265-1.26 0-2.085.93-2.085 2.265Zm6.519 7.17v-1.53h1.095c.72 0 1.17-.165 1.485-1.035l.21-.555-2.985-7.725h1.935l1.905 5.4 2.01-5.4h1.89l-3.63 9.06c-.555 1.38-1.335 1.95-2.55 1.95-.51 0-.96-.06-1.365-.165Z" fill="black"/>
    <path d="M55.16 364h-3.945v-10.965h3.84c3.24 0 5.475 2.235 5.475 5.505 0 3.225-2.19 5.46-5.37 5.46Zm-.285-9.195h-1.74v7.425h1.845c2.19 0 3.525-1.41 3.525-3.69 0-2.325-1.365-3.735-3.63-3.735Zm11.823 1.755v1.695h-.674c-1.32 0-2.145.705-2.145 2.145v3.6h-1.83v-7.395h1.724l.105 1.08c.316-.735 1.02-1.23 2.01-1.23.255 0 .51.03.81.105Zm1.21 7.62c-.66 0-1.216-.54-1.216-1.185 0-.66.555-1.2 1.215-1.2s1.215.54 1.215 1.2c0 .645-.555 1.185-1.215 1.185Zm12.248-9.525c-2.175 0-3.42 1.575-3.42 3.945 0 2.445 1.41 3.78 3.435 3.78 1.905 0 3.06-1.05 3.06-2.805v-.045h-3.315v-1.695h5.1V364h-1.62l-.12-1.26c-.6.84-1.845 1.425-3.33 1.425-3.075 0-5.22-2.235-5.22-5.61 0-3.33 2.175-5.7 5.475-5.7 2.505 0 4.44 1.455 4.755 3.69H82.93c-.345-1.29-1.455-1.89-2.775-1.89Zm8.868 9.54c-1.575 0-2.535-.915-2.535-2.31 0-1.365.99-2.22 2.745-2.355l2.22-.165v-.165c0-1.005-.6-1.41-1.53-1.41-1.08 0-1.68.45-1.68 1.23h-1.56c0-1.605 1.32-2.655 3.33-2.655 1.995 0 3.225 1.08 3.225 3.135v4.5h-1.605l-.135-1.095c-.315.765-1.32 1.29-2.475 1.29Zm.6-1.38c1.125 0 1.845-.675 1.845-1.815v-.39l-1.545.12c-1.14.105-1.575.48-1.575 1.08 0 .675.45 1.005 1.275 1.005ZM96.867 364h-1.83v-7.41h1.695l.15.96c.465-.75 1.365-1.185 2.37-1.185 1.86 0 2.82 1.155 2.82 3.075V364h-1.83v-4.125c0-1.245-.615-1.845-1.56-1.845-1.125 0-1.815.78-1.815 1.98V364Zm10.048.195c-2.145 0-3.48-1.575-3.48-3.87 0-2.31 1.35-3.96 3.585-3.96 1.035 0 1.95.435 2.415 1.17v-4.695h1.815V364h-1.68l-.12-1.155c-.45.855-1.41 1.35-2.535 1.35Zm.405-1.68c1.275 0 2.1-.915 2.1-2.25s-.825-2.265-2.1-2.265c-1.275 0-2.055.945-2.055 2.265 0 1.32.78 2.25 2.055 2.25Zm8.042 1.68c-1.575 0-2.535-.915-2.535-2.31 0-1.365.99-2.22 2.745-2.355l2.22-.165v-.165c0-1.005-.6-1.41-1.53-1.41-1.08 0-1.68.45-1.68 1.23h-1.56c0-1.605 1.32-2.655 3.33-2.655 1.995 0 3.225 1.08 3.225 3.135v4.5h-1.605l-.135-1.095c-.315.765-1.32 1.29-2.475 1.29Zm.6-1.38c1.125 0 1.845-.675 1.845-1.815v-.39l-1.545.12c-1.14.105-1.575.48-1.575 1.08 0 .675.45 1.005 1.275 1.005ZM123.22 364h-1.815v-11.16h1.815V364Zm1.184-7.41h1.065v-.9c0-2.01 1.065-2.85 2.67-2.85.285 0 .63.015.945.075v1.56h-.645c-.93 0-1.155.48-1.155 1.215v.9h1.77v1.53h-1.77V364h-1.815v-5.88h-1.065v-1.53Zm14.931-1.935c-2.175 0-3.42 1.575-3.42 3.945 0 2.445 1.41 3.78 3.435 3.78 1.905 0 3.06-1.05 3.06-2.805v-.045h-3.315v-1.695h5.1V364h-1.62l-.12-1.26c-.6.84-1.845 1.425-3.33 1.425-3.075 0-5.22-2.235-5.22-5.61 0-3.33 2.175-5.7 5.475-5.7 2.505 0 4.44 1.455 4.755 3.69h-2.025c-.345-1.29-1.455-1.89-2.775-1.89Zm11.314 1.905v1.695h-.675c-1.32 0-2.145.705-2.145 2.145v3.6h-1.83v-7.395h1.725l.105 1.08c.315-.735 1.02-1.23 2.01-1.23.255 0 .51.03.81.105Zm4.304 7.635c-2.205 0-3.75-1.605-3.75-3.9 0-2.325 1.515-3.93 3.69-3.93 2.22 0 3.63 1.485 3.63 3.795v.555l-5.58.015c.135 1.305.825 1.965 2.04 1.965 1.005 0 1.665-.39 1.875-1.095h1.695c-.315 1.62-1.665 2.595-3.6 2.595Zm-.045-6.33c-1.08 0-1.74.585-1.92 1.695h3.72c0-1.02-.705-1.695-1.8-1.695Zm4.186 9.57v-1.53h1.095c.72 0 1.17-.165 1.485-1.035l.21-.555-2.985-7.725h1.935l1.905 5.4 2.01-5.4h1.89l-3.63 9.06c-.555 1.38-1.335 1.95-2.55 1.95-.51 0-.96-.06-1.365-.165Z" fill="black"/>
  </g>
  <g opacity="0.9">
    <rect x="224.25" y="0.25" width="328.5" height="353.5" rx="11.75" fill="white" stroke="black" stroke-width="0.5"/>
    <path d="M276.85 47.18c-3.195 0-5.265-2.22-5.265-5.655 0-3.405 2.145-5.67 5.355-5.67 2.595 0 4.53 1.515 4.905 3.87h-2.025c-.375-1.275-1.47-2.025-2.925-2.025-2.025 0-3.3 1.47-3.3 3.81 0 2.325 1.29 3.825 3.3 3.825 1.485 0 2.625-.78 2.985-1.995h1.995c-.42 2.31-2.43 3.84-5.025 3.84Zm8.234-.18h-1.83V35.84h1.845v4.71c.465-.72 1.335-1.185 2.4-1.185 1.83 0 2.79 1.155 2.79 3.075V47h-1.83v-4.125c0-1.245-.615-1.845-1.545-1.845-1.155 0-1.83.81-1.83 1.92V47Zm9.208.195c-1.575 0-2.535-.915-2.535-2.31 0-1.365.99-2.22 2.745-2.355l2.22-.165V42.2c0-1.005-.6-1.41-1.53-1.41-1.08 0-1.68.45-1.68 1.23h-1.56c0-1.605 1.32-2.655 3.33-2.655 1.995 0 3.225 1.08 3.225 3.135V47h-1.605l-.135-1.095c-.315.765-1.32 1.29-2.475 1.29Zm.6-1.38c1.125 0 1.845-.675 1.845-1.815v-.39l-1.545.12c-1.14.105-1.575.48-1.575 1.08 0 .675.45 1.005 1.275 1.005Zm10.062-6.255v1.695h-.675c-1.32 0-2.145.705-2.145 2.145V47h-1.83v-7.395h1.725l.105 1.08c.315-.735 1.02-1.23 2.01-1.23.255 0 .51.03.81.105Zm4.052 7.44h-1.83v-5.88h-1.425v-1.53h1.425v-2.31h1.83v2.31h1.44v1.53h-1.44V47Zm8.781 0h-1.89V36.035h1.905l5.145 7.77v-7.77h1.89V47h-1.89l-5.16-7.77V47Zm8.772-3.72c0-2.31 1.665-3.9 3.96-3.9s3.96 1.59 3.96 3.9c0 2.31-1.665 3.9-3.96 3.9s-3.96-1.59-3.96-3.9Zm1.83 0c0 1.35.87 2.265 2.13 2.265 1.26 0 2.13-.915 2.13-2.265s-.87-2.265-2.13-2.265c-1.26 0-2.13.915-2.13 2.265Zm9.987 3.72h-1.83v-5.88h-1.425v-1.53h1.425v-2.31h1.83v2.31h1.44v1.53h-1.44V47Zm5.82.195c-2.205 0-3.75-1.605-3.75-3.9 0-2.325 1.515-3.93 3.69-3.93 2.22 0 3.63 1.485 3.63 3.795v.555l-5.58.015c.135 1.305.825 1.965 2.04 1.965 1.005 0 1.665-.39 1.875-1.095h1.695c-.315 1.62-1.665 2.595-3.6 2.595Zm-.045-6.33c-1.08 0-1.74.585-1.92 1.695h3.72c0-1.02-.705-1.695-1.8-1.695ZM356.618 47l-4.14-10.965h2.04l2.4 6.315c.24.66.45 1.305.69 2.19.27-.96.495-1.635.705-2.19l2.37-6.315h1.995L358.598 47h-1.98Zm8.103.195c-1.575 0-2.535-.915-2.535-2.31 0-1.365.99-2.22 2.745-2.355l2.22-.165V42.2c0-1.005-.6-1.41-1.53-1.41-1.08 0-1.68.45-1.68 1.23h-1.56c0-1.605 1.32-2.655 3.33-2.655 1.995 0 3.225 1.08 3.225 3.135V47h-1.605l-.135-1.095c-.315.765-1.32 1.29-2.475 1.29Zm.6-1.38c1.125 0 1.845-.675 1.845-1.815v-.39l-1.545.12c-1.14.105-1.575.48-1.575 1.08 0 .675.45 1.005 1.275 1.005ZM372.579 47h-1.815V35.84h1.815V47Zm2.835-8.895a1.11 1.11 0 0 1-1.125-1.11c0-.615.495-1.095 1.125-1.095.6 0 1.095.48 1.095 1.095s-.495 1.11-1.095 1.11ZM374.499 47v-7.41h1.83V47h-1.83Zm6.765.195c-2.145 0-3.48-1.575-3.48-3.87 0-2.31 1.35-3.96 3.585-3.96 1.035 0 1.95.435 2.415 1.17V35.84h1.815V47h-1.68l-.12-1.155c-.45.855-1.41 1.35-2.535 1.35Zm.405-1.68c1.275 0 2.1-.915 2.1-2.25s-.825-2.265-2.1-2.265c-1.275 0-2.055.945-2.055 2.265 0 1.32.78 2.25 2.055 2.25Zm8.043 1.68c-1.575 0-2.535-.915-2.535-2.31 0-1.365.99-2.22 2.745-2.355l2.22-.165V42.2c0-1.005-.6-1.41-1.53-1.41-1.08 0-1.68.45-1.68 1.23h-1.56c0-1.605 1.32-2.655 3.33-2.655 1.995 0 3.225 1.08 3.225 3.135V47h-1.605l-.135-1.095c-.315.765-1.32 1.29-2.475 1.29Zm.6-1.38c1.125 0 1.845-.675 1.845-1.815v-.39l-1.545.12c-1.14.105-1.575.48-1.575 1.08 0 .675.45 1.005 1.275 1.005Zm7.83 1.185h-1.83v-5.88h-1.425v-1.53h1.425v-2.31h1.83v2.31h1.44v1.53h-1.44V47Zm3.492-8.895a1.11 1.11 0 0 1-1.125-1.11c0-.615.495-1.095 1.125-1.095.6 0 1.095.48 1.095 1.095s-.495 1.11-1.095 1.11ZM400.719 47v-7.41h1.83V47h-1.83Zm3.286-3.72c0-2.31 1.665-3.9 3.96-3.9s3.96 1.59 3.96 3.9c0 2.31-1.665 3.9-3.96 3.9s-3.96-1.59-3.96-3.9Zm1.83 0c0 1.35.87 2.265 2.13 2.265 1.26 0 2.13-.915 2.13-2.265s-.87-2.265-2.13-2.265c-1.26 0-2.13.915-2.13 2.265Zm9.371 3.72h-1.83v-7.41h1.695l.15.96c.465-.75 1.365-1.185 2.37-1.185 1.86 0 2.82 1.155 2.82 3.075V47h-1.83v-4.125c0-1.245-.615-1.845-1.56-1.845-1.125 0-1.815.78-1.815 1.98V47Zm6.345-2.25h1.74c.015.645.495 1.05 1.335 1.05.855 0 1.32-.345 1.32-.885 0-.375-.195-.645-.855-.795l-1.335-.315c-1.335-.3-1.98-.93-1.98-2.115 0-1.455 1.23-2.325 2.94-2.325 1.665 0 2.79.96 2.805 2.4h-1.74c-.015-.63-.435-1.035-1.14-1.035-.72 0-1.14.33-1.14.885 0 .42.33.69.96.84l1.335.315c1.245.285 1.875.855 1.875 1.995 0 1.5-1.275 2.43-3.105 2.43-1.845 0-3.015-.99-3.015-2.445Z" fill="black"/>
    <rect x="274" y="97" width="227" height="37" rx="18.5" fill="#E3F2DF"/>
    <path d="M323.85 120.18c-3.195 0-5.265-2.22-5.265-5.655 0-3.405 2.145-5.67 5.355-5.67 2.595 0 4.53 1.515 4.905 3.87h-2.025c-.375-1.275-1.47-2.025-2.925-2.025-2.025 0-3.3 1.47-3.3 3.81 0 2.325 1.29 3.825 3.3 3.825 1.485 0 2.625-.78 2.985-1.995h1.995c-.42 2.31-2.43 3.84-5.025 3.84Zm8.249-.18h-1.815v-11.16h1.815V120Zm5.234.195c-2.205 0-3.75-1.605-3.75-3.9 0-2.325 1.515-3.93 3.69-3.93 2.22 0 3.63 1.485 3.63 3.795v.555l-5.58.015c.135 1.305.825 1.965 2.04 1.965 1.005 0 1.665-.39 1.875-1.095h1.695c-.315 1.62-1.665 2.595-3.6 2.595Zm-.045-6.33c-1.08 0-1.74.585-1.92 1.695h3.72c0-1.02-.705-1.695-1.8-1.695Zm7.212 6.33c-1.575 0-2.535-.915-2.535-2.31 0-1.365.99-2.22 2.745-2.355l2.22-.165v-.165c0-1.005-.6-1.41-1.53-1.41-1.08 0-1.68.45-1.68 1.23h-1.56c0-1.605 1.32-2.655 3.33-2.655 1.995 0 3.225 1.08 3.225 3.135v4.5h-1.605l-.135-1.095c-.315.765-1.32 1.29-2.475 1.29Zm.6-1.38c1.125 0 1.845-.675 1.845-1.815v-.39l-1.545.12c-1.14.105-1.575.48-1.575 1.08 0 .675.45 1.005 1.275 1.005Zm10.062-6.255v1.695h-.675c-1.32 0-2.145.705-2.145 2.145v3.6h-1.83v-7.395h1.725l.105 1.08c.315-.735 1.02-1.23 2.01-1.23.255 0 .51.03.81.105Zm10.187 7.62c-3.195 0-5.265-2.22-5.265-5.655 0-3.405 2.145-5.67 5.355-5.67 2.595 0 4.53 1.515 4.905 3.87h-2.025c-.375-1.275-1.47-2.025-2.925-2.025-2.025 0-3.3 1.47-3.3 3.81 0 2.325 1.29 3.825 3.3 3.825 1.485 0 2.625-.78 2.985-1.995h1.995c-.42 2.31-2.43 3.84-5.025 3.84Zm8.234-.18h-1.83v-11.16h1.845v4.71c.465-.72 1.335-1.185 2.4-1.185 1.83 0 2.79 1.155 2.79 3.075V120h-1.83v-4.125c0-1.245-.615-1.845-1.545-1.845-1.155 0-1.83.81-1.83 1.92V120Zm7.918-8.895a1.11 1.11 0 0 1-1.125-1.11c0-.615.495-1.095 1.125-1.095.6 0 1.095.48 1.095 1.095s-.495 1.11-1.095 1.11Zm-.915 8.895v-7.41h1.83V120h-1.83Zm7.035.195c-2.205 0-3.75-1.605-3.75-3.9 0-2.325 1.515-3.93 3.69-3.93 2.22 0 3.63 1.485 3.63 3.795v.555l-5.58.015c.135 1.305.825 1.965 2.04 1.965 1.005 0 1.665-.39 1.875-1.095h1.695c-.315 1.62-1.665 2.595-3.6 2.595Zm-.045-6.33c-1.08 0-1.74.585-1.92 1.695h3.72c0-1.02-.705-1.695-1.8-1.695Zm4.345-1.275h1.065v-.9c0-2.01 1.065-2.85 2.67-2.85.285 0 .63.015.945.075v1.56h-.645c-.93 0-1.155.48-1.155 1.215v.9h1.77v1.53h-1.77V120h-1.815v-5.88h-1.065v-1.53Zm14.766 7.59c-3.195 0-5.265-2.22-5.265-5.655 0-3.405 2.145-5.67 5.355-5.67 2.595 0 4.53 1.515 4.905 3.87h-2.025c-.375-1.275-1.47-2.025-2.925-2.025-2.025 0-3.3 1.47-3.3 3.81 0 2.325 1.29 3.825 3.3 3.825 1.485 0 2.625-.78 2.985-1.995h1.995c-.42 2.31-2.43 3.84-5.025 3.84Zm6.042-3.9c0-2.31 1.665-3.9 3.96-3.9s3.96 1.59 3.96 3.9c0 2.31-1.665 3.9-3.96 3.9s-3.96-1.59-3.96-3.9Zm1.83 0c0 1.35.87 2.265 2.13 2.265 1.26 0 2.13-.915 2.13-2.265s-.87-2.265-2.13-2.265c-1.26 0-2.13.915-2.13 2.265Zm9.37 3.72h-1.83v-7.41h1.68l.15.87c.375-.615 1.125-1.095 2.19-1.095 1.125 0 1.905.555 2.295 1.41.375-.855 1.245-1.41 2.37-1.41 1.8 0 2.79 1.08 2.79 2.79V120h-1.815v-4.365c0-1.065-.57-1.62-1.44-1.62-.885 0-1.56.57-1.56 1.785v4.2h-1.83v-4.38c0-1.035-.555-1.59-1.425-1.59s-1.575.57-1.575 1.77v4.2Zm11.442 3.435V112.59h1.695l.12 1.125c.45-.855 1.425-1.35 2.55-1.35 2.085 0 3.465 1.515 3.465 3.84 0 2.31-1.26 3.99-3.465 3.99-1.11 0-2.07-.435-2.535-1.185v4.425h-1.83Zm1.845-7.14c0 1.335.825 2.25 2.085 2.25 1.29 0 2.055-.93 2.055-2.25 0-1.32-.765-2.265-2.055-2.265-1.26 0-2.085.93-2.085 2.265Zm9.287 3.705h-1.815v-11.16h1.815V120Zm4.125.195c-1.575 0-2.535-.915-2.535-2.31 0-1.365.99-2.22 2.745-2.355l2.22-.165v-.165c0-1.005-.6-1.41-1.53-1.41-1.08 0-1.68.45-1.68 1.23h-1.56c0-1.605 1.32-2.655 3.33-2.655 1.995 0 3.225 1.08 3.225 3.135v4.5h-1.605l-.135-1.095c-.315.765-1.32 1.29-2.475 1.29Zm.6-1.38c1.125 0 1.845-.675 1.845-1.815v-.39l-1.545.12c-1.14.105-1.575.48-1.575 1.08 0 .675.45 1.005 1.275 1.005Zm6.327-7.71a1.11 1.11 0 0 1-1.125-1.11c0-.615.495-1.095 1.125-1.095.6 0 1.095.48 1.095 1.095s-.495 1.11-1.095 1.11ZM456.64 120v-7.41h1.83V120h-1.83Zm5.551 0h-1.83v-7.41h1.695l.15.96c.465-.75 1.365-1.185 2.37-1.185 1.86 0 2.82 1.155 2.82 3.075V120h-1.83v-4.125c0-1.245-.615-1.845-1.56-1.845-1.125 0-1.815.78-1.815 1.98V120Zm9.523 0h-1.83v-5.88h-1.425v-1.53h1.425v-2.31h1.83v2.31h1.44v1.53h-1.44V120Z" fill="black"/>
    <circle cx="293" cy="115" r="12" stroke="#327141" stroke-width="2"/>
    <path d="m300.5 110.833-10 10-4.583-4.583 1.175-1.175 3.408 3.4 8.825-8.817 1.175 1.175Z" fill="#327141"/>
    <rect x="274" y="219" width="227" height="37" rx="18.5" fill="#E3F2DF"/>
    <path d="M323.85 242.18c-3.195 0-5.265-2.22-5.265-5.655 0-3.405 2.145-5.67 5.355-5.67 2.595 0 4.53 1.515 4.905 3.87h-2.025c-.375-1.275-1.47-2.025-2.925-2.025-2.025 0-3.3 1.47-3.3 3.81 0 2.325 1.29 3.825 3.3 3.825 1.485 0 2.625-.78 2.985-1.995h1.995c-.42 2.31-2.43 3.84-5.025 3.84Zm8.249-.18h-1.815v-11.16h1.815V242Zm5.234.195c-2.205 0-3.75-1.605-3.75-3.9 0-2.325 1.515-3.93 3.69-3.93 2.22 0 3.63 1.485 3.63 3.795v.555l-5.58.015c.135 1.305.825 1.965 2.04 1.965 1.005 0 1.665-.39 1.875-1.095h1.695c-.315 1.62-1.665 2.595-3.6 2.595Zm-.045-6.33c-1.08 0-1.74.585-1.92 1.695h3.72c0-1.02-.705-1.695-1.8-1.695Zm7.212 6.33c-1.575 0-2.535-.915-2.535-2.31 0-1.365.99-2.22 2.745-2.355l2.22-.165v-.165c0-1.005-.6-1.41-1.53-1.41-1.08 0-1.68.45-1.68 1.23h-1.56c0-1.605 1.32-2.655 3.33-2.655 1.995 0 3.225 1.08 3.225 3.135v4.5h-1.605l-.135-1.095c-.315.765-1.32 1.29-2.475 1.29Zm.6-1.38c1.125 0 1.845-.675 1.845-1.815v-.39l-1.545.12c-1.14.105-1.575.48-1.575 1.08 0 .675.45 1.005 1.275 1.005Zm10.062-6.255v1.695h-.675c-1.32 0-2.145.705-2.145 2.145v3.6h-1.83v-7.395h1.725l.105 1.08c.315-.735 1.02-1.23 2.01-1.23.255 0 .51.03.81.105Zm9.497 7.44h-3.945v-10.965h3.84c3.24 0 5.475 2.235 5.475 5.505 0 3.225-2.19 5.46-5.37 5.46Zm-.285-9.195h-1.74v7.425h1.845c2.19 0 3.525-1.41 3.525-3.69 0-2.325-1.365-3.735-3.63-3.735Zm8.089.3a1.11 1.11 0 0 1-1.125-1.11c0-.615.495-1.095 1.125-1.095.6 0 1.095.48 1.095 1.095s-.495 1.11-1.095 1.11Zm-.915 8.895v-7.41h1.83V242h-1.83Zm5.925.195c-1.575 0-2.535-.915-2.535-2.31 0-1.365.99-2.22 2.745-2.355l2.22-.165v-.165c0-1.005-.6-1.41-1.53-1.41-1.08 0-1.68.45-1.68 1.23h-1.56c0-1.605 1.32-2.655 3.33-2.655 1.995 0 3.225 1.08 3.225 3.135v4.5h-1.605l-.135-1.095c-.315.765-1.32 1.29-2.475 1.29Zm.6-1.38c1.125 0 1.845-.675 1.845-1.815v-.39l-1.545.12c-1.14.105-1.575.48-1.575 1.08 0 .675.45 1.005 1.275 1.005Zm4.993-2.685c0-2.16 1.41-3.78 3.525-3.78 1.11 0 1.98.465 2.415 1.26l.105-1.02h1.695v7.035c0 2.475-1.485 4.02-3.885 4.02-2.13 0-3.585-1.215-3.81-3.195h1.83c.12.96.855 1.53 1.98 1.53 1.26 0 2.07-.795 2.07-2.025v-1.23c-.465.69-1.38 1.125-2.445 1.125-2.1 0-3.48-1.575-3.48-3.72Zm1.845-.045c0 1.245.795 2.175 1.995 2.175 1.26 0 2.04-.885 2.04-2.175 0-1.26-.765-2.13-2.04-2.13-1.215 0-1.995.915-1.995 2.13ZM394.53 242h-1.83v-7.41h1.695l.15.96c.465-.75 1.365-1.185 2.37-1.185 1.86 0 2.82 1.155 2.82 3.075V242h-1.83v-4.125c0-1.245-.615-1.845-1.56-1.845-1.125 0-1.815.78-1.815 1.98V242Zm6.568-3.72c0-2.31 1.665-3.9 3.96-3.9s3.96 1.59 3.96 3.9c0 2.31-1.665 3.9-3.96 3.9s-3.96-1.59-3.96-3.9Zm1.83 0c0 1.35.87 2.265 2.13 2.265 1.26 0 2.13-.915 2.13-2.265s-.87-2.265-2.13-2.265c-1.26 0-2.13.915-2.13 2.265Zm6.97 1.47h1.74c.015.645.495 1.05 1.335 1.05.855 0 1.32-.345 1.32-.885 0-.375-.195-.645-.855-.795l-1.335-.315c-1.335-.3-1.98-.93-1.98-2.115 0-1.455 1.23-2.325 2.94-2.325 1.665 0 2.79.96 2.805 2.4h-1.74c-.015-.63-.435-1.035-1.14-1.035-.72 0-1.14.33-1.14.885 0 .42.33.69.96.84l1.335.315c1.245.285 1.875.855 1.875 1.995 0 1.5-1.275 2.43-3.105 2.43-1.845 0-3.015-.99-3.015-2.445Zm8.429-6.645a1.11 1.11 0 0 1-1.125-1.11c0-.615.495-1.095 1.125-1.095.6 0 1.095.48 1.095 1.095s-.495 1.11-1.095 1.11Zm-.915 8.895v-7.41h1.83V242h-1.83Zm3.151-2.25h1.74c.015.645.495 1.05 1.335 1.05.855 0 1.32-.345 1.32-.885 0-.375-.195-.645-.855-.795l-1.335-.315c-1.335-.3-1.98-.93-1.98-2.115 0-1.455 1.23-2.325 2.94-2.325 1.665 0 2.79.96 2.805 2.4h-1.74c-.015-.63-.435-1.035-1.14-1.035-.72 0-1.14.33-1.14.885 0 .42.33.69.96.84l1.335.315c1.245.285 1.875.855 1.875 1.995 0 1.5-1.275 2.43-3.105 2.43-1.845 0-3.015-.99-3.015-2.445Z" fill="black"/>
    <circle cx="293" cy="237" r="12" stroke="#327141" stroke-width="2"/>
    <path d="m300.5 232.833-10 10-4.583-4.583 1.175-1.175 3.408 3.4 8.825-8.817 1.175 1.175Z" fill="#327141"/>
    <rect x="274" y="287" width="227" height="37" rx="18.5" fill="#E3F2DF"/>
    <path d="M323.16 310h-3.945v-10.965h3.84c3.24 0 5.475 2.235 5.475 5.505 0 3.225-2.19 5.46-5.37 5.46Zm-.285-9.195h-1.74v7.425h1.845c2.19 0 3.525-1.41 3.525-3.69 0-2.325-1.365-3.735-3.63-3.735Zm10.489 9.39c-2.205 0-3.75-1.605-3.75-3.9 0-2.325 1.515-3.93 3.69-3.93 2.22 0 3.63 1.485 3.63 3.795v.555l-5.58.015c.135 1.305.825 1.965 2.04 1.965 1.005 0 1.665-.39 1.875-1.095h1.695c-.315 1.62-1.665 2.595-3.6 2.595Zm-.045-6.33c-1.08 0-1.74.585-1.92 1.695h3.72c0-1.02-.705-1.695-1.8-1.695Zm7.526 6.135h-1.83v-5.88h-1.425v-1.53h1.425v-2.31h1.83v2.31h1.44v1.53h-1.44V310Zm4.739.195c-1.575 0-2.535-.915-2.535-2.31 0-1.365.99-2.22 2.745-2.355l2.22-.165v-.165c0-1.005-.6-1.41-1.53-1.41-1.08 0-1.68.45-1.68 1.23h-1.56c0-1.605 1.32-2.655 3.33-2.655 1.995 0 3.225 1.08 3.225 3.135v4.5h-1.605l-.135-1.095c-.315.765-1.32 1.29-2.475 1.29Zm.6-1.38c1.125 0 1.845-.675 1.845-1.815v-.39l-1.545.12c-1.14.105-1.575.48-1.575 1.08 0 .675.45 1.005 1.275 1.005Zm6.327-7.71a1.11 1.11 0 0 1-1.125-1.11c0-.615.495-1.095 1.125-1.095.6 0 1.095.48 1.095 1.095s-.495 1.11-1.095 1.11Zm-.915 8.895v-7.41h1.83V310h-1.83Zm5.566 0h-1.815v-11.16h1.815V310Zm5.235.195c-2.205 0-3.75-1.605-3.75-3.9 0-2.325 1.515-3.93 3.69-3.93 2.22 0 3.63 1.485 3.63 3.795v.555l-5.58.015c.135 1.305.825 1.965 2.04 1.965 1.005 0 1.665-.39 1.875-1.095h1.695c-.315 1.62-1.665 2.595-3.6 2.595Zm-.045-6.33c-1.08 0-1.74.585-1.92 1.695h3.72c0-1.02-.705-1.695-1.8-1.695Zm8.124 6.33c-2.145 0-3.48-1.575-3.48-3.87 0-2.31 1.35-3.96 3.585-3.96 1.035 0 1.95.435 2.415 1.17v-4.695h1.815V310h-1.68l-.12-1.155c-.45.855-1.41 1.35-2.535 1.35Zm.405-1.68c1.275 0 2.1-.915 2.1-2.25s-.825-2.265-2.1-2.265c-1.275 0-2.055.945-2.055 2.265 0 1.32.78 2.25 2.055 2.25Zm14.485-2.295h-2.415V310h-1.92v-10.965h4.335c2.205 0 3.63 1.44 3.63 3.585 0 2.115-1.44 3.6-3.63 3.6Zm-.375-5.475h-2.04v3.765h2.01c1.32 0 2.025-.705 2.025-1.905 0-1.2-.72-1.86-1.995-1.86Zm7.18 9.255h-1.83v-11.16h1.845v4.71c.465-.72 1.335-1.185 2.4-1.185 1.83 0 2.79 1.155 2.79 3.075V310h-1.83v-4.125c0-1.245-.615-1.845-1.545-1.845-1.155 0-1.83.81-1.83 1.92V310Zm6.212 3.435v-1.53h1.095c.72 0 1.17-.165 1.485-1.035l.21-.555-2.985-7.725h1.935l1.905 5.4 2.01-5.4h1.89l-3.63 9.06c-.555 1.38-1.335 1.95-2.55 1.95-.51 0-.96-.06-1.365-.165Zm7.853-5.685h1.74c.015.645.495 1.05 1.335 1.05.855 0 1.32-.345 1.32-.885 0-.375-.195-.645-.855-.795l-1.335-.315c-1.335-.3-1.98-.93-1.98-2.115 0-1.455 1.23-2.325 2.94-2.325 1.665 0 2.79.96 2.805 2.4h-1.74c-.015-.63-.435-1.035-1.14-1.035-.72 0-1.14.33-1.14.885 0 .42.33.69.96.84l1.335.315c1.245.285 1.875.855 1.875 1.995 0 1.5-1.275 2.43-3.105 2.43-1.845 0-3.015-.99-3.015-2.445Zm8.429-6.645a1.11 1.11 0 0 1-1.125-1.11c0-.615.495-1.095 1.125-1.095.6 0 1.095.48 1.095 1.095s-.495 1.11-1.095 1.11ZM413.75 310v-7.41h1.83V310h-1.83Zm3.285-3.72c0-2.295 1.515-3.915 3.705-3.915 2.025 0 3.405 1.125 3.6 2.91h-1.83c-.21-.84-.825-1.275-1.695-1.275-1.17 0-1.95.885-1.95 2.28 0 1.395.72 2.265 1.89 2.265.915 0 1.56-.45 1.755-1.26h1.845c-.225 1.725-1.665 2.91-3.6 2.91-2.25 0-3.72-1.56-3.72-3.915Zm10.887 3.915c-1.575 0-2.535-.915-2.535-2.31 0-1.365.99-2.22 2.745-2.355l2.22-.165v-.165c0-1.005-.6-1.41-1.53-1.41-1.08 0-1.68.45-1.68 1.23h-1.56c0-1.605 1.32-2.655 3.33-2.655 1.995 0 3.225 1.08 3.225 3.135v4.5h-1.605l-.135-1.095c-.315.765-1.32 1.29-2.475 1.29Zm.6-1.38c1.125 0 1.845-.675 1.845-1.815v-.39l-1.545.12c-1.14.105-1.575.48-1.575 1.08 0 .675.45 1.005 1.275 1.005ZM435.78 310h-1.815v-11.16h1.815V310Zm13.043 0h-6.81v-10.965h6.81v1.77h-4.89v2.82h4.38v1.695h-4.38v2.91h4.89V310Zm3.101 0h-2.085l2.55-3.63-2.55-3.78h2.13l1.635 2.52 1.575-2.52h2.055l-2.52 3.75 2.445 3.66h-2.1l-1.575-2.445-1.56 2.445Zm8.606.195c-1.575 0-2.535-.915-2.535-2.31 0-1.365.99-2.22 2.745-2.355l2.22-.165v-.165c0-1.005-.6-1.41-1.53-1.41-1.08 0-1.68.45-1.68 1.23h-1.56c0-1.605 1.32-2.655 3.33-2.655 1.995 0 3.225 1.08 3.225 3.135v4.5h-1.605l-.135-1.095c-.315.765-1.32 1.29-2.475 1.29Zm.6-1.38c1.125 0 1.845-.675 1.845-1.815v-.39l-1.545.12c-1.14.105-1.575.48-1.575 1.08 0 .675.45 1.005 1.275 1.005Zm7.243 1.185h-1.83v-7.41h1.68l.15.87c.375-.615 1.125-1.095 2.19-1.095 1.125 0 1.905.555 2.295 1.41.375-.855 1.245-1.41 2.37-1.41 1.8 0 2.79 1.08 2.79 2.79V310h-1.815v-4.365c0-1.065-.57-1.62-1.44-1.62-.885 0-1.56.57-1.56 1.785v4.2h-1.83v-4.38c0-1.035-.555-1.59-1.425-1.59s-1.575.57-1.575 1.77v4.2Z" fill="black"/>
    <circle cx="293" cy="305" r="12" stroke="#327141" stroke-width="2"/>
    <path d="m300.5 300.833-10 10-4.583-4.583 1.175-1.175 3.408 3.4 8.825-8.817 1.175 1.175Z" fill="#327141"/>
    <rect x="274" y="158" width="227" height="37" rx="18.5" fill="#E3F2DF"/>
    <path d="M323.85 181.18c-3.195 0-5.265-2.22-5.265-5.655 0-3.405 2.145-5.67 5.355-5.67 2.595 0 4.53 1.515 4.905 3.87h-2.025c-.375-1.275-1.47-2.025-2.925-2.025-2.025 0-3.3 1.47-3.3 3.81 0 2.325 1.29 3.825 3.3 3.825 1.485 0 2.625-.78 2.985-1.995h1.995c-.42 2.31-2.43 3.84-5.025 3.84Zm8.249-.18h-1.815v-11.16h1.815V181Zm5.234.195c-2.205 0-3.75-1.605-3.75-3.9 0-2.325 1.515-3.93 3.69-3.93 2.22 0 3.63 1.485 3.63 3.795v.555l-5.58.015c.135 1.305.825 1.965 2.04 1.965 1.005 0 1.665-.39 1.875-1.095h1.695c-.315 1.62-1.665 2.595-3.6 2.595Zm-.045-6.33c-1.08 0-1.74.585-1.92 1.695h3.72c0-1.02-.705-1.695-1.8-1.695Zm7.212 6.33c-1.575 0-2.535-.915-2.535-2.31 0-1.365.99-2.22 2.745-2.355l2.22-.165v-.165c0-1.005-.6-1.41-1.53-1.41-1.08 0-1.68.45-1.68 1.23h-1.56c0-1.605 1.32-2.655 3.33-2.655 1.995 0 3.225 1.08 3.225 3.135v4.5h-1.605l-.135-1.095c-.315.765-1.32 1.29-2.475 1.29Zm.6-1.38c1.125 0 1.845-.675 1.845-1.815v-.39l-1.545.12c-1.14.105-1.575.48-1.575 1.08 0 .675.45 1.005 1.275 1.005Zm10.062-6.255v1.695h-.675c-1.32 0-2.145.705-2.145 2.145v3.6h-1.83v-7.395h1.725l.105 1.08c.315-.735 1.02-1.23 2.01-1.23.255 0 .51.03.81.105Zm11.552 2.955h-4.08V181h-1.92v-10.965h6.78v1.77h-4.86v2.985h4.08v1.725Zm1.234.765c0-2.31 1.665-3.9 3.96-3.9s3.96 1.59 3.96 3.9c0 2.31-1.665 3.9-3.96 3.9s-3.96-1.59-3.96-3.9Zm1.83 0c0 1.35.87 2.265 2.13 2.265 1.26 0 2.13-.915 2.13-2.265s-.87-2.265-2.13-2.265c-1.26 0-2.13.915-2.13 2.265Zm9.386 3.72h-1.815v-11.16h1.815V181Zm3.765 0h-1.815v-11.16h1.815V181Zm1.484-3.72c0-2.31 1.665-3.9 3.96-3.9s3.96 1.59 3.96 3.9c0 2.31-1.665 3.9-3.96 3.9s-3.96-1.59-3.96-3.9Zm1.83 0c0 1.35.87 2.265 2.13 2.265 1.26 0 2.13-.915 2.13-2.265s-.87-2.265-2.13-2.265c-1.26 0-2.13.915-2.13 2.265Zm8.81 3.72-2.4-7.41h1.905l.975 3.18c.165.585.315 1.23.45 1.92.135-.72.27-1.185.51-1.92l1.02-3.18h1.86l.99 3.18c.09.3.39 1.41.48 1.905.12-.555.36-1.44.495-1.905l.99-3.18h1.935l-2.565 7.41h-1.71l-1.02-3.21c-.3-.975-.465-1.68-.525-2.055-.075.345-.21.87-.585 2.085l-1.02 3.18h-1.785Zm9.79-3.195v-1.62h4.83v1.62h-4.83Zm11.72-4.215h1.83V181h-1.695l-.135-.99c-.45.705-1.41 1.185-2.4 1.185-1.71 0-2.715-1.155-2.715-2.97v-4.635h1.83v3.99c0 1.41.555 1.98 1.575 1.98 1.155 0 1.71-.675 1.71-2.085v-3.885Zm3.72 10.845V173.59h1.695l.12 1.125c.45-.855 1.425-1.35 2.55-1.35 2.085 0 3.465 1.515 3.465 3.84 0 2.31-1.26 3.99-3.465 3.99-1.11 0-2.07-.435-2.535-1.185v4.425h-1.83Zm1.845-7.14c0 1.335.825 2.25 2.085 2.25 1.29 0 2.055-.93 2.055-2.25 0-1.32-.765-2.265-2.055-2.265-1.26 0-2.085.93-2.085 2.265Zm16.09-.075h-2.415V181h-1.92v-10.965h4.335c2.205 0 3.63 1.44 3.63 3.585 0 2.115-1.44 3.6-3.63 3.6Zm-.375-5.475h-2.04v3.765h2.01c1.32 0 2.025-.705 2.025-1.905 0-1.2-.72-1.86-1.995-1.86Zm7.195 9.255h-1.815v-11.16h1.815V181Zm4.125.195c-1.575 0-2.535-.915-2.535-2.31 0-1.365.99-2.22 2.745-2.355l2.22-.165v-.165c0-1.005-.6-1.41-1.53-1.41-1.08 0-1.68.45-1.68 1.23h-1.56c0-1.605 1.32-2.655 3.33-2.655 1.995 0 3.225 1.08 3.225 3.135v4.5h-1.605l-.135-1.095c-.315.765-1.32 1.29-2.475 1.29Zm.6-1.38c1.125 0 1.845-.675 1.845-1.815v-.39l-1.545.12c-1.14.105-1.575.48-1.575 1.08 0 .675.45 1.005 1.275 1.005Zm7.242 1.185h-1.83v-7.41h1.695l.15.96c.465-.75 1.365-1.185 2.37-1.185 1.86 0 2.82 1.155 2.82 3.075V181h-1.83v-4.125c0-1.245-.615-1.845-1.56-1.845-1.125 0-1.815.78-1.815 1.98V181Z" fill="black"/>
    <circle cx="293" cy="176" r="12" stroke="#327141" stroke-width="2"/>
    <path d="m300.5 171.833-10 10-4.583-4.583 1.175-1.175 3.408 3.4 8.825-8.817 1.175 1.175Z" fill="#327141"/>
    <path d="M274 72h227" stroke="black"/>
  </g>
  <g opacity="0.9">
    <rect x="177.25" y="264.25" width="422.5" height="353.5" rx="11.75" fill="white" stroke="black" stroke-width="0.5"/>
    <path d="M229.85 311.18c-3.195 0-5.265-2.22-5.265-5.655 0-3.405 2.145-5.67 5.355-5.67 2.595 0 4.53 1.515 4.905 3.87h-2.025c-.375-1.275-1.47-2.025-2.925-2.025-2.025 0-3.3 1.47-3.3 3.81 0 2.325 1.29 3.825 3.3 3.825 1.485 0 2.625-.78 2.985-1.995h1.995c-.42 2.31-2.43 3.84-5.025 3.84Zm8.234-.18h-1.83v-11.16h1.845v4.71c.465-.72 1.335-1.185 2.4-1.185 1.83 0 2.79 1.155 2.79 3.075V311h-1.83v-4.125c0-1.245-.615-1.845-1.545-1.845-1.155 0-1.83.81-1.83 1.92V311Zm7.918-8.895a1.11 1.11 0 0 1-1.125-1.11c0-.615.495-1.095 1.125-1.095.6 0 1.095.48 1.095 1.095s-.495 1.11-1.095 1.11Zm-.915 8.895v-7.41h1.83V311h-1.83Zm7.035.195c-2.205 0-3.75-1.605-3.75-3.9 0-2.325 1.515-3.93 3.69-3.93 2.22 0 3.63 1.485 3.63 3.795v.555l-5.58.015c.135 1.305.825 1.965 2.04 1.965 1.005 0 1.665-.39 1.875-1.095h1.695c-.315 1.62-1.665 2.595-3.6 2.595Zm-.045-6.33c-1.08 0-1.74.585-1.92 1.695h3.72c0-1.02-.705-1.695-1.8-1.695Zm4.345-1.275h1.065v-.9c0-2.01 1.065-2.85 2.67-2.85.285 0 .63.015.945.075v1.56h-.645c-.93 0-1.155.48-1.155 1.215v.9h1.77v1.53h-1.77V311h-1.815v-5.88h-1.065v-1.53Zm14.766 7.59c-3.195 0-5.265-2.22-5.265-5.655 0-3.405 2.145-5.67 5.355-5.67 2.595 0 4.53 1.515 4.905 3.87h-2.025c-.375-1.275-1.47-2.025-2.925-2.025-2.025 0-3.3 1.47-3.3 3.81 0 2.325 1.29 3.825 3.3 3.825 1.485 0 2.625-.78 2.985-1.995h1.995c-.42 2.31-2.43 3.84-5.025 3.84Zm6.042-3.9c0-2.31 1.665-3.9 3.96-3.9s3.96 1.59 3.96 3.9c0 2.31-1.665 3.9-3.96 3.9s-3.96-1.59-3.96-3.9Zm1.83 0c0 1.35.87 2.265 2.13 2.265 1.26 0 2.13-.915 2.13-2.265s-.87-2.265-2.13-2.265c-1.26 0-2.13.915-2.13 2.265Zm9.37 3.72h-1.83v-7.41h1.68l.15.87c.375-.615 1.125-1.095 2.19-1.095 1.125 0 1.905.555 2.295 1.41.375-.855 1.245-1.41 2.37-1.41 1.8 0 2.79 1.08 2.79 2.79V311h-1.815v-4.365c0-1.065-.57-1.62-1.44-1.62-.885 0-1.56.57-1.56 1.785v4.2h-1.83v-4.38c0-1.035-.555-1.59-1.425-1.59s-1.575.57-1.575 1.77v4.2Zm11.442 3.435V303.59h1.695l.12 1.125c.45-.855 1.425-1.35 2.55-1.35 2.085 0 3.465 1.515 3.465 3.84 0 2.31-1.26 3.99-3.465 3.99-1.11 0-2.07-.435-2.535-1.185v4.425h-1.83Zm1.845-7.14c0 1.335.825 2.25 2.085 2.25 1.29 0 2.055-.93 2.055-2.25 0-1.32-.765-2.265-2.055-2.265-1.26 0-2.085.93-2.085 2.265Zm9.287 3.705h-1.815v-11.16h1.815V311Zm4.125.195c-1.575 0-2.535-.915-2.535-2.31 0-1.365.99-2.22 2.745-2.355l2.22-.165v-.165c0-1.005-.6-1.41-1.53-1.41-1.08 0-1.68.45-1.68 1.23h-1.56c0-1.605 1.32-2.655 3.33-2.655 1.995 0 3.225 1.08 3.225 3.135v4.5h-1.605l-.135-1.095c-.315.765-1.32 1.29-2.475 1.29Zm.6-1.38c1.125 0 1.845-.675 1.845-1.815v-.39l-1.545.12c-1.14.105-1.575.48-1.575 1.08 0 .675.45 1.005 1.275 1.005Zm6.327-7.71a1.11 1.11 0 0 1-1.125-1.11c0-.615.495-1.095 1.125-1.095.6 0 1.095.48 1.095 1.095s-.495 1.11-1.095 1.11Zm-.915 8.895v-7.41h1.83V311h-1.83Zm5.551 0h-1.83v-7.41h1.695l.15.96c.465-.75 1.365-1.185 2.37-1.185 1.86 0 2.82 1.155 2.82 3.075V311h-1.83v-4.125c0-1.245-.615-1.845-1.56-1.845-1.125 0-1.815.78-1.815 1.98V311Zm9.523 0h-1.83v-5.88h-1.425v-1.53h1.425v-2.31h1.83v2.31h1.44v1.53h-1.44V311Z" fill="black"/>
    <path d="M231.2 379.74h-4.02V385h-1.44v-14.32h5.46c2.76 0 4.5 1.8 4.5 4.5 0 2.6-1.76 4.56-4.5 4.56Zm-.2-7.76h-3.82v6.46h3.74c2.08 0 3.28-1.32 3.28-3.28 0-1.98-1.22-3.18-3.2-3.18Zm9.115 13.26c-2.06 0-3.28-1.16-3.28-2.86 0-1.78 1.36-2.9 3.62-3.08l3.2-.26v-.32c0-1.9-1.14-2.5-2.56-2.5-1.68 0-2.68.76-2.68 2.06h-1.26c0-1.96 1.6-3.22 3.98-3.22 2.24 0 3.88 1.12 3.88 3.68V385h-1.16l-.18-1.7c-.6 1.22-1.92 1.94-3.56 1.94Zm.32-1.12c2.04 0 3.22-1.42 3.22-3.52v-.52l-2.86.22c-1.82.16-2.56.96-2.56 2.04 0 1.18.88 1.78 2.2 1.78Zm9.393.88h-1.36v-8.52h-1.94v-1.16h1.94v-3.06h1.36v3.06h1.94v1.16h-1.94V385Zm4.417-12.34c-.56 0-1.02-.46-1.02-1.02s.46-1.04 1.02-1.04 1.04.48 1.04 1.04-.48 1.02-1.04 1.02Zm-.68 12.34v-9.68h1.38V385h-1.38Zm8.318.24c-2.84 0-4.74-2.04-4.74-5.08 0-3.02 1.88-5.1 4.64-5.1 2.62 0 4.4 1.86 4.4 4.6v.68h-7.7c.1 2.36 1.34 3.72 3.42 3.72 1.58 0 2.6-.68 2.96-1.96h1.32c-.52 2.04-2.02 3.14-4.3 3.14Zm-.1-9c-1.82 0-3.02 1.2-3.26 3.1h6.28c0-1.86-1.2-3.1-3.02-3.1Zm7.986 8.76h-1.38v-9.68h1.2l.2 1.68c.64-1.24 1.92-1.94 3.32-1.94 2.66 0 3.76 1.58 3.76 4.02V385h-1.38v-5.62c0-2.26-1.02-3.06-2.62-3.06-1.98 0-3.1 1.44-3.1 3.62V385Zm12.071 0h-1.36v-8.52h-1.94v-1.16h1.94v-3.06h1.36v3.06h1.94v1.16h-1.94V385Zm8.464-2.72h1.32c0 1.12.84 1.82 2.2 1.82 1.5 0 2.38-.64 2.38-1.68 0-.8-.4-1.26-1.54-1.54l-1.66-.42c-1.68-.42-2.5-1.3-2.5-2.62 0-1.7 1.42-2.78 3.5-2.78 2.04 0 3.36 1.12 3.42 2.92h-1.34c-.04-1.12-.82-1.78-2.12-1.78-1.36 0-2.12.58-2.12 1.62 0 .74.52 1.26 1.58 1.52l1.66.42c1.68.42 2.44 1.2 2.44 2.6 0 1.74-1.48 2.88-3.68 2.88-2.18 0-3.54-1.16-3.54-2.96Zm16.291-6.96h1.38V385h-1.2l-.18-1.64c-.54 1.12-1.88 1.88-3.4 1.88-2.28 0-3.52-1.56-3.52-3.92v-6.02h1.4v5.58c0 2.3 1.02 3.12 2.56 3.12 1.86 0 2.96-1.24 2.96-3.54v-5.14Zm3.175 0h1.48v-1.88c0-2.18 1.18-3.02 2.68-3.02.34 0 .74.02 1.06.08v1.2h-.84c-1.2 0-1.52.6-1.52 1.74v1.88h4.6v-1.88c0-2.18 1.2-3.02 2.68-3.02.34 0 .74.02 1.06.08v1.2h-.82c-1.22 0-1.54.6-1.54 1.74v1.88h2.28v1.16h-2.28V385h-1.38v-8.52h-4.6V385h-1.38v-8.52h-1.48v-1.16Zm16.761 9.92c-2.84 0-4.74-2.04-4.74-5.08 0-3.02 1.88-5.1 4.64-5.1 2.62 0 4.4 1.86 4.4 4.6v.68h-7.7c.1 2.36 1.34 3.72 3.42 3.72 1.58 0 2.6-.68 2.96-1.96h1.32c-.52 2.04-2.02 3.14-4.3 3.14Zm-.1-9c-1.82 0-3.02 1.2-3.26 3.1h6.28c0-1.86-1.2-3.1-3.02-3.1Zm11.667-1.04v1.24h-.76c-1.78 0-2.92 1.2-2.92 3.04V385h-1.38v-9.68h1.3l.1 1.5c.38-1.04 1.4-1.72 2.76-1.72.3 0 .56.02.9.1Zm5.523 10.04c-2.84 0-4.74-2.04-4.74-5.08 0-3.02 1.88-5.1 4.64-5.1 2.62 0 4.4 1.86 4.4 4.6v.68h-7.7c.1 2.36 1.34 3.72 3.42 3.72 1.58 0 2.6-.68 2.96-1.96h1.32c-.52 2.04-2.02 3.14-4.3 3.14Zm-.1-9c-1.82 0-3.02 1.2-3.26 3.1h6.28c0-1.86-1.2-3.1-3.02-3.1Zm10.407 9c-2.82 0-4.48-2.16-4.48-5.06 0-2.92 1.66-5.12 4.54-5.12 1.6 0 2.88.7 3.56 2.1v-6.74h1.38V385h-1.2l-.14-1.98c-.68 1.5-2.04 2.22-3.66 2.22Zm.24-1.26c2.12 0 3.36-1.6 3.36-3.84 0-2.22-1.24-3.84-3.36-3.84-2.1 0-3.32 1.62-3.32 3.84 0 2.24 1.22 3.84 3.32 3.84Zm15.966 1.26c-2.06 0-3.28-1.16-3.28-2.86 0-1.78 1.36-2.9 3.62-3.08l3.2-.26v-.32c0-1.9-1.14-2.5-2.56-2.5-1.68 0-2.68.76-2.68 2.06h-1.26c0-1.96 1.6-3.22 3.98-3.22 2.24 0 3.88 1.12 3.88 3.68V385h-1.16l-.18-1.7c-.6 1.22-1.92 1.94-3.56 1.94Zm.32-1.12c2.04 0 3.22-1.42 3.22-3.52v-.52l-2.86.22c-1.82.16-2.56.96-2.56 2.04 0 1.18.88 1.78 2.2 1.78Zm14.276.86h-1.38v-14.56h1.38V377c.62-1.16 1.8-1.94 3.42-1.94 2.54 0 3.68 1.58 3.68 4.02V385h-1.38v-5.62c0-2.26-1.06-3.06-2.56-3.06-2.08 0-3.16 1.54-3.16 3.4v5.26Zm12.631.26c-2.06 0-3.28-1.16-3.28-2.86 0-1.78 1.36-2.9 3.62-3.08l3.2-.26v-.32c0-1.9-1.14-2.5-2.56-2.5-1.68 0-2.68.76-2.68 2.06h-1.26c0-1.96 1.6-3.22 3.98-3.22 2.24 0 3.88 1.12 3.88 3.68V385h-1.16l-.18-1.7c-.6 1.22-1.92 1.94-3.56 1.94Zm.32-1.12c2.04 0 3.22-1.42 3.22-3.52v-.52l-2.86.22c-1.82.16-2.56.96-2.56 2.04 0 1.18.88 1.78 2.2 1.78Zm8.729.88h-1.38v-9.68h1.2l.2 1.68c.64-1.24 1.92-1.94 3.32-1.94 2.66 0 3.76 1.58 3.76 4.02V385h-1.38v-5.62c0-2.26-1.02-3.06-2.62-3.06-1.98 0-3.1 1.44-3.1 3.62V385Zm13.65.24c-2.82 0-4.48-2.16-4.48-5.06 0-2.92 1.66-5.12 4.54-5.12 1.6 0 2.88.7 3.56 2.1v-6.74h1.38V385h-1.2l-.14-1.98c-.68 1.5-2.04 2.22-3.66 2.22Zm.24-1.26c2.12 0 3.36-1.6 3.36-3.84 0-2.22-1.24-3.84-3.36-3.84-2.1 0-3.32 1.62-3.32 3.84 0 2.24 1.22 3.84 3.32 3.84Zm13.867-11.32c-.56 0-1.02-.46-1.02-1.02s.46-1.04 1.02-1.04 1.04.48 1.04 1.04-.48 1.02-1.04 1.02Zm-.68 12.34v-9.68h1.38V385h-1.38Zm5.638 0h-1.38v-9.68h1.2l.2 1.68c.64-1.24 1.92-1.94 3.32-1.94 2.66 0 3.76 1.58 3.76 4.02V385h-1.38v-5.62c0-2.26-1.02-3.06-2.62-3.06-1.98 0-3.1 1.44-3.1 3.62V385Zm10.55-12.34c-.58 0-1.04-.46-1.04-1.02s.46-1.04 1.04-1.04c.54 0 1.02.48 1.02 1.04s-.48 1.02-1.02 1.02Zm-3.28 16.58.26-1.26c.4.1.64.14.94.14.96 0 1.38-.56 1.38-1.74v-11.06h1.38v11.14c0 1.84-.96 2.96-2.66 2.96-.52 0-.8-.04-1.3-.18Zm13.638-13.92h1.38V385h-1.2l-.18-1.64c-.54 1.12-1.88 1.88-3.4 1.88-2.28 0-3.52-1.56-3.52-3.92v-6.02h1.4v5.58c0 2.3 1.02 3.12 2.56 3.12 1.86 0 2.96-1.24 2.96-3.54v-5.14Zm9.315-.12v1.24h-.76c-1.78 0-2.92 1.2-2.92 3.04V385h-1.38v-9.68h1.3l.1 1.5c.38-1.04 1.4-1.72 2.76-1.72.3 0 .56.02.9.1Zm1.147 14.02v-1.14h1.06c.84 0 1.68-.06 2.16-1.36l.42-1.14-3.92-10.26h1.46l3.12 8.44 3.06-8.44h1.42l-4.44 11.9c-.56 1.52-1.5 2.14-2.88 2.14-.58 0-1.02-.04-1.46-.14Zm17.981-4.22-3.2-9.68h1.42l1.9 5.84c.22.64.4 1.3.6 2.08.16-.78.48-1.76.58-2.08l1.92-5.84h1.42l1.9 5.84c.18.52.42 1.36.6 2.08.2-.8.24-1.04.58-2.08l1.92-5.84h1.44l-3.28 9.68h-1.34l-2-6.08c-.24-.72-.4-1.32-.52-1.9-.14.52-.3 1.1-.56 1.9l-2 6.08h-1.38Zm14.184-.02h-1.38v-14.56h1.38V377c.62-1.16 1.8-1.94 3.42-1.94 2.54 0 3.68 1.58 3.68 4.02V385h-1.38v-5.62c0-2.26-1.06-3.06-2.56-3.06-2.08 0-3.16 1.54-3.16 3.4v5.26Zm10.53-12.32c-.56 0-1.02-.46-1.02-1.02s.46-1.04 1.02-1.04 1.04.48 1.04 1.04-.48 1.02-1.04 1.02Zm-.68 12.34v-9.68h1.38V385h-1.38Zm5.698 0h-1.38v-14.58h1.38V385Zm6.995.24c-2.84 0-4.74-2.04-4.74-5.08 0-3.02 1.88-5.1 4.64-5.1 2.62 0 4.4 1.86 4.4 4.6v.68h-7.7c.1 2.36 1.34 3.72 3.42 3.72 1.58 0 2.6-.68 2.96-1.96h1.32c-.52 2.04-2.02 3.14-4.3 3.14Zm-.1-9c-1.82 0-3.02 1.2-3.26 3.1h6.28c0-1.86-1.2-3.1-3.02-3.1ZM227.66 415h-1.36v-8.52h-1.94v-1.16h1.94v-3.06h1.36v3.06h1.94v1.16h-1.94V415Zm8.797-9.8v1.24h-.76c-1.78 0-2.92 1.2-2.92 3.04V415h-1.38v-9.68h1.3l.1 1.5c.38-1.04 1.4-1.72 2.76-1.72.3 0 .56.02.9.1Zm4.224 10.04c-2.06 0-3.28-1.16-3.28-2.86 0-1.78 1.36-2.9 3.62-3.08l3.2-.26v-.32c0-1.9-1.14-2.5-2.56-2.5-1.68 0-2.68.76-2.68 2.06h-1.26c0-1.96 1.6-3.22 3.98-3.22 2.24 0 3.88 1.12 3.88 3.68V415h-1.16l-.18-1.7c-.6 1.22-1.92 1.94-3.56 1.94Zm.32-1.12c2.04 0 3.22-1.42 3.22-3.52v-.52l-2.86.22c-1.82.16-2.56.96-2.56 2.04 0 1.18.88 1.78 2.2 1.78Zm9.659.88-3.96-9.68h1.48l2.5 6.24c.26.7.52 1.36.7 2 .18-.66.44-1.3.72-2l2.54-6.24h1.42l-4.02 9.68h-1.38Zm10.656.24c-2.84 0-4.74-2.04-4.74-5.08 0-3.02 1.88-5.1 4.64-5.1 2.62 0 4.4 1.86 4.4 4.6v.68h-7.7c.1 2.36 1.34 3.72 3.42 3.72 1.58 0 2.6-.68 2.96-1.96h1.32c-.52 2.04-2.02 3.14-4.3 3.14Zm-.1-9c-1.82 0-3.02 1.2-3.26 3.1h6.28c0-1.86-1.2-3.1-3.02-3.1Zm8.047 8.76h-1.38v-14.58h1.38V415Zm3.615-12.34c-.56 0-1.02-.46-1.02-1.02s.46-1.04 1.02-1.04 1.04.48 1.04 1.04-.48 1.02-1.04 1.02Zm-.68 12.34v-9.68h1.38V415h-1.38Zm5.638 0h-1.38v-9.68h1.2l.2 1.68c.64-1.24 1.92-1.94 3.32-1.94 2.66 0 3.76 1.58 3.76 4.02V415h-1.38v-5.62c0-2.26-1.02-3.06-2.62-3.06-1.98 0-3.1 1.44-3.1 3.62V415Zm9.19-5.12c0-2.64 1.7-4.82 4.54-4.82 1.68 0 2.96.78 3.58 2.2l.14-1.94h1.2v9.38c0 2.88-1.84 4.76-4.68 4.76-2.48 0-4.22-1.4-4.6-3.74h1.38c.3 1.56 1.5 2.48 3.24 2.48 1.98 0 3.3-1.34 3.3-3.36v-2.3c-.66 1.36-2 2.16-3.66 2.16-2.76 0-4.44-2.18-4.44-4.82Zm1.38-.02c0 1.98 1.22 3.6 3.26 3.6 2.1 0 3.34-1.52 3.34-3.6 0-2.06-1.2-3.58-3.32-3.58-2.08 0-3.28 1.62-3.28 3.58Zm18.727 5.14h-1.36v-8.52h-1.94v-1.16h1.94v-3.06h1.36v3.06h1.94v1.16h-1.94V415Zm5.117-.02h-1.38v-14.56h1.38V407c.62-1.16 1.8-1.94 3.42-1.94 2.54 0 3.68 1.58 3.68 4.02V415h-1.38v-5.62c0-2.26-1.06-3.06-2.56-3.06-2.08 0-3.16 1.54-3.16 3.4v5.26Zm14.91-9.78v1.24h-.76c-1.78 0-2.92 1.2-2.92 3.04V415h-1.38v-9.68h1.3l.1 1.5c.38-1.04 1.4-1.72 2.76-1.72.3 0 .56.02.9.1Zm.784 4.96c0-2.96 2.08-5.1 4.92-5.1s4.92 2.14 4.92 5.1c0 2.94-2.08 5.08-4.92 5.08s-4.92-2.14-4.92-5.08Zm1.4-.02c0 2.28 1.44 3.86 3.52 3.86 2.06 0 3.52-1.58 3.52-3.86 0-2.24-1.46-3.84-3.52-3.84-2.08 0-3.52 1.6-3.52 3.84Zm17.212-4.82h1.38V415h-1.2l-.18-1.64c-.54 1.12-1.88 1.88-3.4 1.88-2.28 0-3.52-1.56-3.52-3.92v-6.02h1.4v5.58c0 2.3 1.02 3.12 2.56 3.12 1.86 0 2.96-1.24 2.96-3.54v-5.14Zm3.595 4.56c0-2.64 1.7-4.82 4.54-4.82 1.68 0 2.96.78 3.58 2.2l.14-1.94h1.2v9.38c0 2.88-1.84 4.76-4.68 4.76-2.48 0-4.22-1.4-4.6-3.74h1.38c.3 1.56 1.5 2.48 3.24 2.48 1.98 0 3.3-1.34 3.3-3.36v-2.3c-.66 1.36-2 2.16-3.66 2.16-2.76 0-4.44-2.18-4.44-4.82Zm1.38-.02c0 1.98 1.22 3.6 3.26 3.6 2.1 0 3.34-1.52 3.34-3.6 0-2.06-1.2-3.58-3.32-3.58-2.08 0-3.28 1.62-3.28 3.58Zm12.34 5.12h-1.38v-14.56h1.38V407c.62-1.16 1.8-1.94 3.42-1.94 2.54 0 3.68 1.58 3.68 4.02V415h-1.38v-5.62c0-2.26-1.06-3.06-2.56-3.06-2.08 0-3.16 1.54-3.16 3.4v5.26Zm20.457-9.78v1.24h-.76c-1.78 0-2.92 1.2-2.92 3.04V415h-1.38v-9.68h1.3l.1 1.5c.38-1.04 1.4-1.72 2.76-1.72.3 0 .56.02.9.1Zm8.635.12h1.38V415h-1.2l-.18-1.64c-.54 1.12-1.88 1.88-3.4 1.88-2.28 0-3.52-1.56-3.52-3.92v-6.02h1.4v5.58c0 2.3 1.02 3.12 2.56 3.12 1.86 0 2.96-1.24 2.96-3.54v-5.14Zm3.594 4.56c0-2.64 1.7-4.82 4.54-4.82 1.68 0 2.96.78 3.58 2.2l.14-1.94h1.2v9.38c0 2.88-1.84 4.76-4.68 4.76-2.48 0-4.22-1.4-4.6-3.74h1.38c.3 1.56 1.5 2.48 3.24 2.48 1.98 0 3.3-1.34 3.3-3.36v-2.3c-.66 1.36-2 2.16-3.66 2.16-2.76 0-4.44-2.18-4.44-4.82Zm1.38-.02c0 1.98 1.22 3.6 3.26 3.6 2.1 0 3.34-1.52 3.34-3.6 0-2.06-1.2-3.58-3.32-3.58-2.08 0-3.28 1.62-3.28 3.58Zm10.3.02c0-2.64 1.7-4.82 4.54-4.82 1.68 0 2.96.78 3.58 2.2l.14-1.94h1.2v9.38c0 2.88-1.84 4.76-4.68 4.76-2.48 0-4.22-1.4-4.6-3.74h1.38c.3 1.56 1.5 2.48 3.24 2.48 1.98 0 3.3-1.34 3.3-3.36v-2.3c-.66 1.36-2 2.16-3.66 2.16-2.76 0-4.44-2.18-4.44-4.82Zm1.38-.02c0 1.98 1.22 3.6 3.26 3.6 2.1 0 3.34-1.52 3.34-3.6 0-2.06-1.2-3.58-3.32-3.58-2.08 0-3.28 1.62-3.28 3.58Zm15.02 5.38c-2.84 0-4.74-2.04-4.74-5.08 0-3.02 1.88-5.1 4.64-5.1 2.62 0 4.4 1.86 4.4 4.6v.68h-7.7c.1 2.36 1.34 3.72 3.42 3.72 1.58 0 2.6-.68 2.96-1.96h1.32c-.52 2.04-2.02 3.14-4.3 3.14Zm-.1-9c-1.82 0-3.02 1.2-3.26 3.1h6.28c0-1.86-1.2-3.1-3.02-3.1Zm10.406 9c-2.82 0-4.48-2.16-4.48-5.06 0-2.92 1.66-5.12 4.54-5.12 1.6 0 2.88.7 3.56 2.1v-6.74h1.38V415h-1.2l-.14-1.98c-.68 1.5-2.04 2.22-3.66 2.22Zm.24-1.26c2.12 0 3.36-1.6 3.36-3.84 0-2.22-1.24-3.84-3.36-3.84-2.1 0-3.32 1.62-3.32 3.84 0 2.24 1.22 3.84 3.32 3.84ZM450.59 415h-1.36v-8.52h-1.94v-1.16h1.94v-3.06h1.36v3.06h1.94v1.16h-1.94V415Zm7.699.24c-2.84 0-4.74-2.04-4.74-5.08 0-3.02 1.88-5.1 4.64-5.1 2.62 0 4.4 1.86 4.4 4.6v.68h-7.7c.1 2.36 1.34 3.72 3.42 3.72 1.58 0 2.6-.68 2.96-1.96h1.32c-.52 2.04-2.02 3.14-4.3 3.14Zm-.1-9c-1.82 0-3.02 1.2-3.26 3.1h6.28c0-1.86-1.2-3.1-3.02-3.1Zm11.666-1.04v1.24h-.76c-1.78 0-2.92 1.2-2.92 3.04V415h-1.38v-9.68h1.3l.1 1.5c.38-1.04 1.4-1.72 2.76-1.72.3 0 .56.02.9.1Zm6.895 0v1.24h-.76c-1.78 0-2.92 1.2-2.92 3.04V415h-1.38v-9.68h1.3l.1 1.5c.38-1.04 1.4-1.72 2.76-1.72.3 0 .56.02.9.1Zm4.224 10.04c-2.06 0-3.28-1.16-3.28-2.86 0-1.78 1.36-2.9 3.62-3.08l3.2-.26v-.32c0-1.9-1.14-2.5-2.56-2.5-1.68 0-2.68.76-2.68 2.06h-1.26c0-1.96 1.6-3.22 3.98-3.22 2.24 0 3.88 1.12 3.88 3.68V415h-1.16l-.18-1.7c-.6 1.22-1.92 1.94-3.56 1.94Zm.32-1.12c2.04 0 3.22-1.42 3.22-3.52v-.52l-2.86.22c-1.82.16-2.56.96-2.56 2.04 0 1.18.88 1.78 2.2 1.78Zm8.029-11.46c-.56 0-1.02-.46-1.02-1.02s.46-1.04 1.02-1.04 1.04.48 1.04 1.04-.48 1.02-1.04 1.02Zm-.68 12.34v-9.68h1.38V415h-1.38Zm5.638 0h-1.38v-9.68h1.2l.2 1.68c.64-1.24 1.92-1.94 3.32-1.94 2.66 0 3.76 1.58 3.76 4.02V415h-1.38v-5.62c0-2.26-1.02-3.06-2.62-3.06-1.98 0-3.1 1.44-3.1 3.62V415Zm11.03.22c-.68 0-1.26-.56-1.26-1.22 0-.68.58-1.26 1.26-1.26s1.26.58 1.26 1.26c0 .66-.58 1.22-1.26 1.22ZM231.2 439.74h-4.02V445h-1.44v-14.32h5.46c2.76 0 4.5 1.8 4.5 4.5 0 2.6-1.76 4.56-4.5 4.56Zm-.2-7.76h-3.82v6.46h3.74c2.08 0 3.28-1.32 3.28-3.28 0-1.98-1.22-3.18-3.2-3.18Zm9.115 13.26c-2.06 0-3.28-1.16-3.28-2.86 0-1.78 1.36-2.9 3.62-3.08l3.2-.26v-.32c0-1.9-1.14-2.5-2.56-2.5-1.68 0-2.68.76-2.68 2.06h-1.26c0-1.96 1.6-3.22 3.98-3.22 2.24 0 3.88 1.12 3.88 3.68V445h-1.16l-.18-1.7c-.6 1.22-1.92 1.94-3.56 1.94Zm.32-1.12c2.04 0 3.22-1.42 3.22-3.52v-.52l-2.86.22c-1.82.16-2.56.96-2.56 2.04 0 1.18.88 1.78 2.2 1.78Zm9.393.88h-1.36v-8.52h-1.94v-1.16h1.94v-3.06h1.36v3.06h1.94v1.16h-1.94V445Zm4.417-12.34c-.56 0-1.02-.46-1.02-1.02s.46-1.04 1.02-1.04 1.04.48 1.04 1.04-.48 1.02-1.04 1.02Zm-.68 12.34v-9.68h1.38V445h-1.38Zm8.318.24c-2.84 0-4.74-2.04-4.74-5.08 0-3.02 1.88-5.1 4.64-5.1 2.62 0 4.4 1.86 4.4 4.6v.68h-7.7c.1 2.36 1.34 3.72 3.42 3.72 1.58 0 2.6-.68 2.96-1.96h1.32c-.52 2.04-2.02 3.14-4.3 3.14Zm-.1-9c-1.82 0-3.02 1.2-3.26 3.1h6.28c0-1.86-1.2-3.1-3.02-3.1Zm7.986 8.76h-1.38v-9.68h1.2l.2 1.68c.64-1.24 1.92-1.94 3.32-1.94 2.66 0 3.76 1.58 3.76 4.02V445h-1.38v-5.62c0-2.26-1.02-3.06-2.62-3.06-1.98 0-3.1 1.44-3.1 3.62V445Zm12.071 0h-1.36v-8.52h-1.94v-1.16h1.94v-3.06h1.36v3.06h1.94v1.16h-1.94V445Zm14.344-9.8v1.24h-.76c-1.78 0-2.92 1.2-2.92 3.04V445h-1.38v-9.68h1.3l.1 1.5c.38-1.04 1.4-1.72 2.76-1.72.3 0 .56.02.9.1Zm5.523 10.04c-2.84 0-4.74-2.04-4.74-5.08 0-3.02 1.88-5.1 4.64-5.1 2.62 0 4.4 1.86 4.4 4.6v.68h-7.7c.1 2.36 1.34 3.72 3.42 3.72 1.58 0 2.6-.68 2.96-1.96h1.32c-.52 2.04-2.02 3.14-4.3 3.14Zm-.1-9c-1.82 0-3.02 1.2-3.26 3.1h6.28c0-1.86-1.2-3.1-3.02-3.1Zm6.606 12.98v-13.9h1.2l.14 1.96c.68-1.5 2.04-2.22 3.66-2.22 2.8 0 4.48 2.14 4.48 5.06 0 2.92-1.62 5.12-4.48 5.12-1.64 0-2.94-.7-3.62-2.1v6.08h-1.38Zm1.4-9.06c0 2.22 1.24 3.84 3.36 3.84 2.1 0 3.32-1.62 3.32-3.84 0-2.24-1.22-3.84-3.32-3.84-2.12 0-3.36 1.6-3.36 3.84Zm9.6 0c0-2.96 2.08-5.1 4.92-5.1s4.92 2.14 4.92 5.1c0 2.94-2.08 5.08-4.92 5.08s-4.92-2.14-4.92-5.08Zm1.4-.02c0 2.28 1.44 3.86 3.52 3.86 2.06 0 3.52-1.58 3.52-3.86 0-2.24-1.46-3.84-3.52-3.84-2.08 0-3.52 1.6-3.52 3.84Zm15.707-4.94v1.24h-.76c-1.78 0-2.92 1.2-2.92 3.04V445h-1.38v-9.68h1.3l.1 1.5c.38-1.04 1.4-1.72 2.76-1.72.3 0 .56.02.9.1Zm4.445 9.8h-1.36v-8.52h-1.94v-1.16h1.94v-3.06h1.36v3.06h1.94v1.16h-1.94V445Zm2.918-2.72h1.32c0 1.12.84 1.82 2.2 1.82 1.5 0 2.38-.64 2.38-1.68 0-.8-.4-1.26-1.54-1.54l-1.66-.42c-1.68-.42-2.5-1.3-2.5-2.62 0-1.7 1.42-2.78 3.5-2.78 2.04 0 3.36 1.12 3.42 2.92h-1.34c-.04-1.12-.82-1.78-2.12-1.78-1.36 0-2.12.58-2.12 1.62 0 .74.52 1.26 1.58 1.52l1.66.42c1.68.42 2.44 1.2 2.44 2.6 0 1.74-1.48 2.88-3.68 2.88-2.18 0-3.54-1.16-3.54-2.96Zm16.238 2.72h-1.2v-14.58h1.38v6.78c.68-1.42 2-2.14 3.64-2.14 2.82 0 4.46 2.2 4.46 5.12 0 2.9-1.68 5.06-4.5 5.06-1.62 0-2.96-.72-3.64-2.22l-.14 1.98Zm.2-4.86c0 2.24 1.24 3.84 3.36 3.84 2.1 0 3.32-1.6 3.32-3.84 0-2.22-1.22-3.84-3.32-3.84-2.12 0-3.36 1.62-3.36 3.84Zm14.34 5.1c-2.84 0-4.74-2.04-4.74-5.08 0-3.02 1.88-5.1 4.64-5.1 2.62 0 4.4 1.86 4.4 4.6v.68h-7.7c.1 2.36 1.34 3.72 3.42 3.72 1.58 0 2.6-.68 2.96-1.96h1.32c-.52 2.04-2.02 3.14-4.3 3.14Zm-.1-9c-1.82 0-3.02 1.2-3.26 3.1h6.28c0-1.86-1.2-3.1-3.02-3.1Zm7.286-3.58c-.56 0-1.02-.46-1.02-1.02s.46-1.04 1.02-1.04 1.04.48 1.04 1.04-.48 1.02-1.04 1.02Zm-.68 12.34v-9.68h1.38V445h-1.38Zm5.638 0h-1.38v-9.68h1.2l.2 1.68c.64-1.24 1.92-1.94 3.32-1.94 2.66 0 3.76 1.58 3.76 4.02V445h-1.38v-5.62c0-2.26-1.02-3.06-2.62-3.06-1.98 0-3.1 1.44-3.1 3.62V445Zm9.191-5.12c0-2.64 1.7-4.82 4.54-4.82 1.68 0 2.96.78 3.58 2.2l.14-1.94h1.2v9.38c0 2.88-1.84 4.76-4.68 4.76-2.48 0-4.22-1.4-4.6-3.74h1.38c.3 1.56 1.5 2.48 3.24 2.48 1.98 0 3.3-1.34 3.3-3.36v-2.3c-.66 1.36-2 2.16-3.66 2.16-2.76 0-4.44-2.18-4.44-4.82Zm1.38-.02c0 1.98 1.22 3.6 3.26 3.6 2.1 0 3.34-1.52 3.34-3.6 0-2.06-1.2-3.58-3.32-3.58-2.08 0-3.28 1.62-3.28 3.58Zm23.306-4.54h1.38V445h-1.2l-.18-1.64c-.54 1.12-1.88 1.88-3.4 1.88-2.28 0-3.52-1.56-3.52-3.92v-6.02h1.4v5.58c0 2.3 1.02 3.12 2.56 3.12 1.86 0 2.96-1.24 2.96-3.54v-5.14Zm5.635 9.68h-1.38v-9.68h1.2l.2 1.68c.64-1.24 1.92-1.94 3.32-1.94 2.66 0 3.76 1.58 3.76 4.02V445h-1.38v-5.62c0-2.26-1.02-3.06-2.62-3.06-1.98 0-3.1 1.44-3.1 3.62V445Zm12.63.24c-2.06 0-3.28-1.16-3.28-2.86 0-1.78 1.36-2.9 3.62-3.08l3.2-.26v-.32c0-1.9-1.14-2.5-2.56-2.5-1.68 0-2.68.76-2.68 2.06h-1.26c0-1.96 1.6-3.22 3.98-3.22 2.24 0 3.88 1.12 3.88 3.68V445h-1.16l-.18-1.7c-.6 1.22-1.92 1.94-3.56 1.94Zm.32-1.12c2.04 0 3.22-1.42 3.22-3.52v-.52l-2.86.22c-1.82.16-2.56.96-2.56 2.04 0 1.18.88 1.78 2.2 1.78Zm8.55.88h-1.2v-14.58h1.38v6.78c.68-1.42 2-2.14 3.64-2.14 2.82 0 4.46 2.2 4.46 5.12 0 2.9-1.68 5.06-4.5 5.06-1.62 0-2.96-.72-3.64-2.22l-.14 1.98Zm.2-4.86c0 2.24 1.24 3.84 3.36 3.84 2.1 0 3.32-1.6 3.32-3.84 0-2.22-1.22-3.84-3.32-3.84-2.12 0-3.36 1.62-3.36 3.84Zm11.719 4.86h-1.38v-14.58h1.38V445Zm6.995.24c-2.84 0-4.74-2.04-4.74-5.08 0-3.02 1.88-5.1 4.64-5.1 2.62 0 4.4 1.86 4.4 4.6v.68h-7.7c.1 2.36 1.34 3.72 3.42 3.72 1.58 0 2.6-.68 2.96-1.96h1.32c-.52 2.04-2.02 3.14-4.3 3.14Zm-.1-9c-1.82 0-3.02 1.2-3.26 3.1h6.28c0-1.86-1.2-3.1-3.02-3.1Zm14.374 8.76h-1.36v-8.52h-1.94v-1.16h1.94v-3.06h1.36v3.06h1.94v1.16h-1.94V445Zm2.959-4.84c0-2.96 2.08-5.1 4.92-5.1s4.92 2.14 4.92 5.1c0 2.94-2.08 5.08-4.92 5.08s-4.92-2.14-4.92-5.08Zm1.4-.02c0 2.28 1.44 3.86 3.52 3.86 2.06 0 3.52-1.58 3.52-3.86 0-2.24-1.46-3.84-3.52-3.84-2.08 0-3.52 1.6-3.52 3.84ZM229.5 475.24c-2.84 0-4.74-2.04-4.74-5.08 0-3.02 1.88-5.1 4.64-5.1 2.62 0 4.4 1.86 4.4 4.6v.68h-7.7c.1 2.36 1.34 3.72 3.42 3.72 1.58 0 2.6-.68 2.96-1.96h1.32c-.52 2.04-2.02 3.14-4.3 3.14Zm-.1-9c-1.82 0-3.02 1.2-3.26 3.1h6.28c0-1.86-1.2-3.1-3.02-3.1Zm6.654 8.76h-1.62l3.46-4.84-3.44-4.84h1.62l2.74 3.88 2.72-3.88h1.6l-3.44 4.86 3.42 4.82h-1.64l-2.72-3.88-2.7 3.88Zm11.333 0h-1.36v-8.52h-1.94v-1.16h1.94v-3.06h1.36v3.06h1.94v1.16h-1.94V475Zm7.699.24c-2.84 0-4.74-2.04-4.74-5.08 0-3.02 1.88-5.1 4.64-5.1 2.62 0 4.4 1.86 4.4 4.6v.68h-7.7c.1 2.36 1.34 3.72 3.42 3.72 1.58 0 2.6-.68 2.96-1.96h1.32c-.52 2.04-2.02 3.14-4.3 3.14Zm-.1-9c-1.82 0-3.02 1.2-3.26 3.1h6.28c0-1.86-1.2-3.1-3.02-3.1Zm7.986 8.76h-1.38v-9.68h1.2l.2 1.68c.64-1.24 1.92-1.94 3.32-1.94 2.66 0 3.76 1.58 3.76 4.02V475h-1.38v-5.62c0-2.26-1.02-3.06-2.62-3.06-1.98 0-3.1 1.44-3.1 3.62V475Zm13.651.24c-2.82 0-4.48-2.16-4.48-5.06 0-2.92 1.66-5.12 4.54-5.12 1.6 0 2.88.7 3.56 2.1v-6.74h1.38V475h-1.2l-.14-1.98c-.68 1.5-2.04 2.22-3.66 2.22Zm.24-1.26c2.12 0 3.36-1.6 3.36-3.84 0-2.22-1.24-3.84-3.36-3.84-2.1 0-3.32 1.62-3.32 3.84 0 2.24 1.22 3.84 3.32 3.84Zm19.566 1.02v-8.52h-4.6V475h-1.38v-8.52h-1.48v-1.16h1.48v-1.88c0-2.18 1.18-3.02 2.62-3.02.34 0 .76.02 1.08.08v1.2h-.84c-1.16 0-1.48.6-1.48 1.74v1.88h5.98V475h-1.38Zm.68-12.44c-.56 0-.96-.4-.96-.96 0-.56.4-.98.96-.98.54 0 .96.42.96.98s-.42.96-.96.96Zm4.906 12.44h-1.38v-9.68h1.2l.2 1.68c.64-1.24 1.92-1.94 3.32-1.94 2.66 0 3.76 1.58 3.76 4.02V475h-1.38v-5.62c0-2.26-1.02-3.06-2.62-3.06-1.98 0-3.1 1.44-3.1 3.62V475Zm9.191-5.12c0-2.64 1.7-4.82 4.54-4.82 1.68 0 2.96.78 3.58 2.2l.14-1.94h1.2v9.38c0 2.88-1.84 4.76-4.68 4.76-2.48 0-4.22-1.4-4.6-3.74h1.38c.3 1.56 1.5 2.48 3.24 2.48 1.98 0 3.3-1.34 3.3-3.36v-2.3c-.66 1.36-2 2.16-3.66 2.16-2.76 0-4.44-2.18-4.44-4.82Zm1.38-.02c0 1.98 1.22 3.6 3.26 3.6 2.1 0 3.34-1.52 3.34-3.6 0-2.06-1.2-3.58-3.32-3.58-2.08 0-3.28 1.62-3.28 3.58Zm15.019 5.38c-2.84 0-4.74-2.04-4.74-5.08 0-3.02 1.88-5.1 4.64-5.1 2.62 0 4.4 1.86 4.4 4.6v.68h-7.7c.1 2.36 1.34 3.72 3.42 3.72 1.58 0 2.6-.68 2.96-1.96h1.32c-.52 2.04-2.02 3.14-4.3 3.14Zm-.1-9c-1.82 0-3.02 1.2-3.26 3.1h6.28c0-1.86-1.2-3.1-3.02-3.1Zm11.667-1.04v1.24h-.76c-1.78 0-2.92 1.2-2.92 3.04V475h-1.38v-9.68h1.3l.1 1.5c.38-1.04 1.4-1.72 2.76-1.72.3 0 .56.02.9.1Zm1.014 7.08h1.32c0 1.12.84 1.82 2.2 1.82 1.5 0 2.38-.64 2.38-1.68 0-.8-.4-1.26-1.54-1.54l-1.66-.42c-1.68-.42-2.5-1.3-2.5-2.62 0-1.7 1.42-2.78 3.5-2.78 2.04 0 3.36 1.12 3.42 2.92h-1.34c-.04-1.12-.82-1.78-2.12-1.78-1.36 0-2.12.58-2.12 1.62 0 .74.52 1.26 1.58 1.52l1.66.42c1.68.42 2.44 1.2 2.44 2.6 0 1.74-1.48 2.88-3.68 2.88-2.18 0-3.54-1.16-3.54-2.96Zm13.959-6.96h1.48v-1.88c0-2.18 1.2-3.02 2.68-3.02.34 0 .74.02 1.06.08v1.18h-.82c-1.22 0-1.54.62-1.54 1.76v1.88h2.28v1.16h-2.28V475h-1.38v-8.52h-1.48v-1.16Zm13.818 0h1.38V475h-1.2l-.18-1.64c-.54 1.12-1.88 1.88-3.4 1.88-2.28 0-3.52-1.56-3.52-3.92v-6.02h1.4v5.58c0 2.3 1.02 3.12 2.56 3.12 1.86 0 2.96-1.24 2.96-3.54v-5.14Zm5.694 9.68h-1.38v-14.58h1.38V475Zm4.375 0h-1.38v-14.58h1.38V475Zm1.955 4.22v-1.14h1.06c.84 0 1.68-.06 2.16-1.36l.42-1.14-3.92-10.26h1.46l3.12 8.44 3.06-8.44h1.42l-4.44 11.9c-.56 1.52-1.5 2.14-2.88 2.14-.58 0-1.02-.04-1.46-.14Zm10.051-4c-.68 0-1.26-.56-1.26-1.22 0-.68.58-1.26 1.26-1.26s1.26.58 1.26 1.26c0 .66-.58 1.22-1.26 1.22Zm15.741 0c-4 0-6.72-2.98-6.72-7.38s2.76-7.4 6.8-7.4c3.08 0 5.5 1.86 6.08 4.7h-1.54c-.6-2.06-2.36-3.32-4.6-3.32-3.14 0-5.24 2.4-5.24 6.02 0 3.6 2.1 6 5.24 6 2.26 0 4.06-1.22 4.68-3.14h1.54c-.66 2.7-3.16 4.52-6.24 4.52Zm7.751-5.06c0-2.96 2.08-5.1 4.92-5.1s4.92 2.14 4.92 5.1c0 2.94-2.08 5.08-4.92 5.08s-4.92-2.14-4.92-5.08Zm1.4-.02c0 2.28 1.44 3.86 3.52 3.86 2.06 0 3.52-1.58 3.52-3.86 0-2.24-1.46-3.84-3.52-3.84-2.08 0-3.52 1.6-3.52 3.84Zm12.027 4.86h-1.38v-9.68h1.2l.2 1.68c.64-1.24 1.92-1.94 3.32-1.94 2.66 0 3.76 1.58 3.76 4.02V475h-1.38v-5.62c0-2.26-1.02-3.06-2.62-3.06-1.98 0-3.1 1.44-3.1 3.62V475Zm8.913-2.72h1.32c0 1.12.84 1.82 2.2 1.82 1.5 0 2.38-.64 2.38-1.68 0-.8-.4-1.26-1.54-1.54l-1.66-.42c-1.68-.42-2.5-1.3-2.5-2.62 0-1.7 1.42-2.78 3.5-2.78 2.04 0 3.36 1.12 3.42 2.92h-1.34c-.04-1.12-.82-1.78-2.12-1.78-1.36 0-2.12.58-2.12 1.62 0 .74.52 1.26 1.58 1.52l1.66.42c1.68.42 2.44 1.2 2.44 2.6 0 1.74-1.48 2.88-3.68 2.88-2.18 0-3.54-1.16-3.54-2.96Zm11.712 2.72h-1.36v-8.52h-1.94v-1.16h1.94v-3.06h1.36v3.06h1.94v1.16h-1.94V475Zm6.361.24c-2.06 0-3.28-1.16-3.28-2.86 0-1.78 1.36-2.9 3.62-3.08l3.2-.26v-.32c0-1.9-1.14-2.5-2.56-2.5-1.68 0-2.68.76-2.68 2.06h-1.26c0-1.96 1.6-3.22 3.98-3.22 2.24 0 3.88 1.12 3.88 3.68V475h-1.16l-.18-1.7c-.6 1.22-1.92 1.94-3.56 1.94Zm.32-1.12c2.04 0 3.22-1.42 3.22-3.52v-.52l-2.86.22c-1.82.16-2.56.96-2.56 2.04 0 1.18.88 1.78 2.2 1.78Zm8.729.88h-1.38v-9.68h1.2l.2 1.68c.64-1.24 1.92-1.94 3.32-1.94 2.66 0 3.76 1.58 3.76 4.02V475h-1.38v-5.62c0-2.26-1.02-3.06-2.62-3.06-1.98 0-3.1 1.44-3.1 3.62V475Zm12.07 0h-1.36v-8.52h-1.94v-1.16h1.94v-3.06h1.36v3.06h1.94v1.16h-1.94V475Zm9.284 4.22v-13.9h1.2l.14 1.96c.68-1.5 2.04-2.22 3.66-2.22 2.8 0 4.48 2.14 4.48 5.06 0 2.92-1.62 5.12-4.48 5.12-1.64 0-2.94-.7-3.62-2.1v6.08h-1.38Zm1.4-9.06c0 2.22 1.24 3.84 3.36 3.84 2.1 0 3.32-1.62 3.32-3.84 0-2.24-1.22-3.84-3.32-3.84-2.12 0-3.36 1.6-3.36 3.84Zm13.06 5.08c-2.06 0-3.28-1.16-3.28-2.86 0-1.78 1.36-2.9 3.62-3.08l3.2-.26v-.32c0-1.9-1.14-2.5-2.56-2.5-1.68 0-2.68.76-2.68 2.06h-1.26c0-1.96 1.6-3.22 3.98-3.22 2.24 0 3.88 1.12 3.88 3.68V475h-1.16l-.18-1.7c-.6 1.22-1.92 1.94-3.56 1.94Zm.32-1.12c2.04 0 3.22-1.42 3.22-3.52v-.52l-2.86.22c-1.82.16-2.56.96-2.56 2.04 0 1.18.88 1.78 2.2 1.78Zm8.029-11.46c-.56 0-1.02-.46-1.02-1.02s.46-1.04 1.02-1.04 1.04.48 1.04 1.04-.48 1.02-1.04 1.02Zm-.68 12.34v-9.68h1.38V475h-1.38Zm5.638 0h-1.38v-9.68h1.2l.2 1.68c.64-1.24 1.92-1.94 3.32-1.94 2.66 0 3.76 1.58 3.76 4.02V475h-1.38v-5.62c0-2.26-1.02-3.06-2.62-3.06-1.98 0-3.1 1.44-3.1 3.62V475ZM227.48 505l-3.2-9.68h1.42l1.9 5.84c.22.64.4 1.3.6 2.08.16-.78.48-1.76.58-2.08l1.92-5.84h1.42l1.9 5.84c.18.52.42 1.36.6 2.08.2-.8.24-1.04.58-2.08l1.92-5.84h1.44l-3.28 9.68h-1.34l-2-6.08c-.24-.72-.4-1.32-.52-1.9-.14.52-.3 1.1-.56 1.9l-2 6.08h-1.38Zm13.484-12.34c-.56 0-1.02-.46-1.02-1.02s.46-1.04 1.02-1.04 1.04.48 1.04 1.04-.48 1.02-1.04 1.02Zm-.68 12.34v-9.68h1.38V505h-1.38Zm6.478 0h-1.36v-8.52h-1.94v-1.16h1.94v-3.06h1.36v3.06h1.94v1.16h-1.94V505Zm5.117-.02h-1.38v-14.56h1.38V497c.62-1.16 1.8-1.94 3.42-1.94 2.54 0 3.68 1.58 3.68 4.02V505h-1.38v-5.62c0-2.26-1.06-3.06-2.56-3.06-2.08 0-3.16 1.54-3.16 3.4v5.26Zm16.837.02h-1.38v-14.58h1.38V505Zm5.715.24c-2.06 0-3.28-1.16-3.28-2.86 0-1.78 1.36-2.9 3.62-3.08l3.2-.26v-.32c0-1.9-1.14-2.5-2.56-2.5-1.68 0-2.68.76-2.68 2.06h-1.26c0-1.96 1.6-3.22 3.98-3.22 2.24 0 3.88 1.12 3.88 3.68V505h-1.16l-.18-1.7c-.6 1.22-1.92 1.94-3.56 1.94Zm.32-1.12c2.04 0 3.22-1.42 3.22-3.52v-.52l-2.86.22c-1.82.16-2.56.96-2.56 2.04 0 1.18.88 1.78 2.2 1.78Zm9.393.88h-1.36v-8.52h-1.94v-1.16h1.94v-3.06h1.36v3.06h1.94v1.16h-1.94V505Zm7.7.24c-2.84 0-4.74-2.04-4.74-5.08 0-3.02 1.88-5.1 4.64-5.1 2.62 0 4.4 1.86 4.4 4.6v.68h-7.7c.1 2.36 1.34 3.72 3.42 3.72 1.58 0 2.6-.68 2.96-1.96h1.32c-.52 2.04-2.02 3.14-4.3 3.14Zm-.1-9c-1.82 0-3.02 1.2-3.26 3.1h6.28c0-1.86-1.2-3.1-3.02-3.1Zm11.666-1.04v1.24h-.76c-1.78 0-2.92 1.2-2.92 3.04V505h-1.38v-9.68h1.3l.1 1.5c.38-1.04 1.4-1.72 2.76-1.72.3 0 .56.02.9.1Zm4.224 10.04c-2.06 0-3.28-1.16-3.28-2.86 0-1.78 1.36-2.9 3.62-3.08l3.2-.26v-.32c0-1.9-1.14-2.5-2.56-2.5-1.68 0-2.68.76-2.68 2.06h-1.26c0-1.96 1.6-3.22 3.98-3.22 2.24 0 3.88 1.12 3.88 3.68V505h-1.16l-.18-1.7c-.6 1.22-1.92 1.94-3.56 1.94Zm.32-1.12c2.04 0 3.22-1.42 3.22-3.52v-.52l-2.86.22c-1.82.16-2.56.96-2.56 2.04 0 1.18.88 1.78 2.2 1.78Zm8.789.88h-1.38v-14.58h1.38V505Zm9.862 0h-1.38v-9.68h1.2l.16 1.38c.48-1.02 1.56-1.64 2.92-1.64 1.52 0 2.66.8 3.12 2.06.44-1.26 1.62-2.06 3.18-2.06 2.1 0 3.48 1.36 3.48 3.6V505h-1.34v-6.06c0-1.66-.92-2.64-2.4-2.64-1.62 0-2.58 1.22-2.58 2.72V505h-1.36v-6.08c0-1.64-.94-2.6-2.4-2.6-1.62 0-2.6 1.2-2.6 2.68v6Zm14.776-4.84c0-2.96 2.08-5.1 4.92-5.1s4.92 2.14 4.92 5.1c0 2.94-2.08 5.08-4.92 5.08s-4.92-2.14-4.92-5.08Zm1.4-.02c0 2.28 1.44 3.86 3.52 3.86 2.06 0 3.52-1.58 3.52-3.86 0-2.24-1.46-3.84-3.52-3.84-2.08 0-3.52 1.6-3.52 3.84Zm12.918 4.86-3.96-9.68h1.48l2.5 6.24c.26.7.52 1.36.7 2 .18-.66.44-1.3.72-2l2.54-6.24h1.42l-4.02 9.68h-1.38Zm10.656.24c-2.84 0-4.74-2.04-4.74-5.08 0-3.02 1.88-5.1 4.64-5.1 2.62 0 4.4 1.86 4.4 4.6v.68h-7.7c.1 2.36 1.34 3.72 3.42 3.72 1.58 0 2.6-.68 2.96-1.96h1.32c-.52 2.04-2.02 3.14-4.3 3.14Zm-.1-9c-1.82 0-3.02 1.2-3.26 3.1h6.28c0-1.86-1.2-3.1-3.02-3.1Zm7.987 8.76h-1.38v-9.68h1.2l.16 1.38c.48-1.02 1.56-1.64 2.92-1.64 1.52 0 2.66.8 3.12 2.06.44-1.26 1.62-2.06 3.18-2.06 2.1 0 3.48 1.36 3.48 3.6V505h-1.34v-6.06c0-1.66-.92-2.64-2.4-2.64-1.62 0-2.58 1.22-2.58 2.72V505h-1.36v-6.08c0-1.64-.94-2.6-2.4-2.6-1.62 0-2.6 1.2-2.6 2.68v6Zm19.516.24c-2.84 0-4.74-2.04-4.74-5.08 0-3.02 1.88-5.1 4.64-5.1 2.62 0 4.4 1.86 4.4 4.6v.68h-7.7c.1 2.36 1.34 3.72 3.42 3.72 1.58 0 2.6-.68 2.96-1.96h1.32c-.52 2.04-2.02 3.14-4.3 3.14Zm-.1-9c-1.82 0-3.02 1.2-3.26 3.1h6.28c0-1.86-1.2-3.1-3.02-3.1Zm7.986 8.76h-1.38v-9.68h1.2l.2 1.68c.64-1.24 1.92-1.94 3.32-1.94 2.66 0 3.76 1.58 3.76 4.02V505h-1.38v-5.62c0-2.26-1.02-3.06-2.62-3.06-1.98 0-3.1 1.44-3.1 3.62V505Zm12.071 0h-1.36v-8.52h-1.94v-1.16h1.94v-3.06h1.36v3.06h1.94v1.16h-1.94V505Zm4.311.22c-.68 0-1.26-.56-1.26-1.22 0-.68.58-1.26 1.26-1.26s1.26.58 1.26 1.26c0 .66-.58 1.22-1.26 1.22Z" fill="black"/>
    <rect x="370" y="551" width="193" height="37" rx="18.5" fill="#E3F2DF"/>
    <path d="M416.16 574h-1.995l3.96-10.965h1.965L424.05 574h-2.025l-.885-2.535h-4.095L416.16 574Zm2.7-7.695-1.245 3.54h2.97l-1.26-3.54c-.09-.285-.195-.615-.225-.84-.045.21-.135.54-.24.84Zm5.355.285h1.065v-.9c0-2.01 1.05-2.85 2.655-2.85.285 0 .63.015.945.075v1.56h-.645c-.93 0-1.14.48-1.14 1.215v.9h3.03v-.9c0-2.01 1.05-2.85 2.655-2.85.3 0 .63.015.945.075v1.56h-.63c-.93 0-1.155.48-1.155 1.215v.9h1.77v1.53h-1.77V574h-1.815v-5.88h-3.03V574h-1.815v-5.88h-1.065v-1.53Zm13.762 7.605c-2.205 0-3.75-1.605-3.75-3.9 0-2.325 1.515-3.93 3.69-3.93 2.22 0 3.63 1.485 3.63 3.795v.555l-5.58.015c.135 1.305.825 1.965 2.04 1.965 1.005 0 1.665-.39 1.875-1.095h1.695c-.315 1.62-1.665 2.595-3.6 2.595Zm-.045-6.33c-1.08 0-1.74.585-1.92 1.695h3.72c0-1.02-.705-1.695-1.8-1.695Zm4.644 2.415c0-2.295 1.515-3.915 3.705-3.915 2.025 0 3.405 1.125 3.6 2.91h-1.83c-.21-.84-.825-1.275-1.695-1.275-1.17 0-1.95.885-1.95 2.28 0 1.395.72 2.265 1.89 2.265.915 0 1.56-.45 1.755-1.26h1.845c-.225 1.725-1.665 2.91-3.6 2.91-2.25 0-3.72-1.56-3.72-3.915Zm11.202 3.72h-1.83v-5.88h-1.425v-1.53h1.425v-2.31h1.83v2.31h1.44v1.53h-1.44V574Zm5.82.195c-2.205 0-3.75-1.605-3.75-3.9 0-2.325 1.515-3.93 3.69-3.93 2.22 0 3.63 1.485 3.63 3.795v.555l-5.58.015c.135 1.305.825 1.965 2.04 1.965 1.005 0 1.665-.39 1.875-1.095h1.695c-.315 1.62-1.665 2.595-3.6 2.595Zm-.045-6.33c-1.08 0-1.74.585-1.92 1.695h3.72c0-1.02-.705-1.695-1.8-1.695Zm8.125 6.33c-2.145 0-3.48-1.575-3.48-3.87 0-2.31 1.35-3.96 3.585-3.96 1.035 0 1.95.435 2.415 1.17v-4.695h1.815V574h-1.68l-.12-1.155c-.45.855-1.41 1.35-2.535 1.35Zm.405-1.68c1.275 0 2.1-.915 2.1-2.25s-.825-2.265-2.1-2.265c-1.275 0-2.055.945-2.055 2.265 0 1.32.78 2.25 2.055 2.25Zm10.15 1.485v-10.965h4.365c2.16 0 3.48 1.125 3.48 2.955 0 1.215-.54 2.085-1.575 2.52 1.155.375 1.74 1.245 1.74 2.52 0 1.875-1.305 2.97-3.57 2.97h-4.44Zm4.2-9.27h-2.28v2.985h2.325c1.05 0 1.635-.555 1.635-1.53 0-.945-.6-1.455-1.68-1.455Zm.165 4.605h-2.445v2.97h2.445c1.08 0 1.68-.525 1.68-1.515 0-.93-.615-1.455-1.68-1.455Zm4.7.945c0-2.31 1.665-3.9 3.96-3.9s3.96 1.59 3.96 3.9c0 2.31-1.665 3.9-3.96 3.9s-3.96-1.59-3.96-3.9Zm1.83 0c0 1.35.87 2.265 2.13 2.265 1.26 0 2.13-.915 2.13-2.265s-.87-2.265-2.13-2.265c-1.26 0-2.13.915-2.13 2.265Zm10.586 3.915c-2.145 0-3.48-1.575-3.48-3.87 0-2.31 1.35-3.96 3.585-3.96 1.035 0 1.95.435 2.415 1.17v-4.695h1.815V574h-1.68l-.12-1.155c-.45.855-1.41 1.35-2.535 1.35Zm.405-1.68c1.275 0 2.1-.915 2.1-2.25s-.825-2.265-2.1-2.265c-1.275 0-2.055.945-2.055 2.265 0 1.32.78 2.25 2.055 2.25Zm5.192 4.92v-1.53h1.095c.72 0 1.17-.165 1.485-1.035l.21-.555-2.985-7.725h1.935l1.905 5.4 2.01-5.4h1.89l-3.63 9.06c-.555 1.38-1.335 1.95-2.55 1.95-.51 0-.96-.06-1.365-.165Zm17.232-7.215h-2.415V574h-1.92v-10.965h4.335c2.205 0 3.63 1.44 3.63 3.585 0 2.115-1.44 3.6-3.63 3.6Zm-.375-5.475h-2.04v3.765h2.01c1.32 0 2.025-.705 2.025-1.905 0-1.2-.72-1.86-1.995-1.86Zm7.262 9.45c-1.575 0-2.535-.915-2.535-2.31 0-1.365.99-2.22 2.745-2.355l2.22-.165v-.165c0-1.005-.6-1.41-1.53-1.41-1.08 0-1.68.45-1.68 1.23h-1.56c0-1.605 1.32-2.655 3.33-2.655 1.995 0 3.225 1.08 3.225 3.135v4.5h-1.605l-.135-1.095c-.315.765-1.32 1.29-2.475 1.29Zm.6-1.38c1.125 0 1.845-.675 1.845-1.815v-.39l-1.545.12c-1.14.105-1.575.48-1.575 1.08 0 .675.45 1.005 1.275 1.005Zm10.063-6.255v1.695h-.675c-1.32 0-2.145.705-2.145 2.145v3.6h-1.83v-7.395h1.725l.105 1.08c.315-.735 1.02-1.23 2.01-1.23.255 0 .51.03.81.105Zm4.052 7.44h-1.83v-5.88h-1.425v-1.53h1.425v-2.31h1.83v2.31h1.44v1.53h-1.44V574Z" fill="black"/>
    <circle cx="389" cy="569" r="12" stroke="#327141" stroke-width="2"/>
    <rect x="224" y="551" width="131" height="37" rx="18.5" fill="#E3F2DF"/>
    <path d="M271.135 563.035v9.195h4.59V574h-6.51v-10.965h1.92Zm8.086 11.16c-1.575 0-2.535-.915-2.535-2.31 0-1.365.99-2.22 2.745-2.355l2.22-.165v-.165c0-1.005-.6-1.41-1.53-1.41-1.08 0-1.68.45-1.68 1.23h-1.56c0-1.605 1.32-2.655 3.33-2.655 1.995 0 3.225 1.08 3.225 3.135v4.5h-1.605l-.135-1.095c-.315.765-1.32 1.29-2.475 1.29Zm.6-1.38c1.125 0 1.845-.675 1.845-1.815v-.39l-1.545.12c-1.14.105-1.575.48-1.575 1.08 0 .675.45 1.005 1.275 1.005Zm7.831 1.185h-1.83v-5.88h-1.425v-1.53h1.425v-2.31h1.83v2.31h1.44v1.53h-1.44V574Zm5.819.195c-2.205 0-3.75-1.605-3.75-3.9 0-2.325 1.515-3.93 3.69-3.93 2.22 0 3.63 1.485 3.63 3.795v.555l-5.58.015c.135 1.305.825 1.965 2.04 1.965 1.005 0 1.665-.39 1.875-1.095h1.695c-.315 1.62-1.665 2.595-3.6 2.595Zm-.045-6.33c-1.08 0-1.74.585-1.92 1.695h3.72c0-1.02-.705-1.695-1.8-1.695Zm9.73-1.305v1.695h-.675c-1.32 0-2.145.705-2.145 2.145v3.6h-1.83v-7.395h1.725l.105 1.08c.315-.735 1.02-1.23 2.01-1.23.255 0 .51.03.81.105Zm3.15 7.635c-1.575 0-2.535-.915-2.535-2.31 0-1.365.99-2.22 2.745-2.355l2.22-.165v-.165c0-1.005-.6-1.41-1.53-1.41-1.08 0-1.68.45-1.68 1.23h-1.56c0-1.605 1.32-2.655 3.33-2.655 1.995 0 3.225 1.08 3.225 3.135v4.5h-1.605l-.135-1.095c-.315.765-1.32 1.29-2.475 1.29Zm.6-1.38c1.125 0 1.845-.675 1.845-1.815v-.39l-1.545.12c-1.14.105-1.575.48-1.575 1.08 0 .675.45 1.005 1.275 1.005Zm7.258 1.185h-1.815v-11.16h1.815V574Zm2.835-8.895a1.11 1.11 0 0 1-1.125-1.11c0-.615.495-1.095 1.125-1.095.6 0 1.095.48 1.095 1.095s-.495 1.11-1.095 1.11Zm-.915 8.895v-7.41h1.83V574h-1.83Zm6.24 0h-1.83v-5.88h-1.425v-1.53h1.425v-2.31h1.83v2.31h1.44v1.53h-1.44V574Zm1.933 3.435v-1.53h1.095c.72 0 1.17-.165 1.485-1.035l.21-.555-2.985-7.725h1.935l1.905 5.4 2.01-5.4h1.89l-3.63 9.06c-.555 1.38-1.335 1.95-2.55 1.95-.51 0-.96-.06-1.365-.165Z" fill="black"/>
    <circle cx="243" cy="569" r="12" stroke="#327141" stroke-width="2"/>
    <path d="m396.5 564.833-10 10-4.583-4.583 1.175-1.175 3.408 3.4 8.825-8.817 1.175 1.175Z" fill="#327141"/>
    <path d="m250.5 564.833-10 10-4.583-4.583 1.175-1.175 3.408 3.4 8.825-8.817 1.175 1.175Z" fill="#327141"/>
    <path d="M227 336h326.5" stroke="black"/>
  </g>
  <defs>
    <clipPath id="a">
      <rect width="122" height="119" fill="white" transform="translate(84 192)"/>
    </clipPath>
  </defs>
</svg>
