<svg viewBox="0 0 600 566" fill="none" xmlns="http://www.w3.org/2000/svg">
  <rect opacity="0.96" x="104" width="410" height="548" rx="12" fill="#D8EDFF"/>
  <rect opacity="0.96" x="86.25" y="18.25" width="409.5" height="547.5" rx="11.75" fill="white" stroke="black" stroke-width="0.5"/>
  <rect x="134.364" y="480.361" width="327.909" height="35.7895" rx="7" fill="#5C86A8"/>
  <path d="M264.555 504.312c-3.195 0-5.265-2.22-5.265-5.655 0-3.405 2.145-5.67 5.355-5.67 2.595 0 4.53 1.515 4.905 3.87h-2.025c-.375-1.275-1.47-2.025-2.925-2.025-2.025 0-3.3 1.47-3.3 3.81 0 2.325 1.29 3.825 3.3 3.825 1.485 0 2.625-.78 2.985-1.995h1.995c-.42 2.31-2.43 3.84-5.025 3.84Zm6.042-3.9c0-2.31 1.665-3.9 3.96-3.9s3.96 1.59 3.96 3.9c0 2.31-1.665 3.9-3.96 3.9s-3.96-1.59-3.96-3.9Zm1.83 0c0 1.35.87 2.265 2.13 2.265 1.26 0 2.13-.915 2.13-2.265s-.87-2.265-2.13-2.265c-1.26 0-2.13.915-2.13 2.265Zm9.371 3.72h-1.83v-7.41h1.695l.15.96c.465-.75 1.365-1.185 2.37-1.185 1.86 0 2.82 1.155 2.82 3.075v4.56h-1.83v-4.125c0-1.245-.615-1.845-1.56-1.845-1.125 0-1.815.78-1.815 1.98v3.99Zm9.523 0h-1.83v-5.88h-1.425v-1.53h1.425v-2.31h1.83v2.31h1.44v1.53h-1.44v5.88Zm3.492-8.895a1.11 1.11 0 0 1-1.125-1.11c0-.615.495-1.095 1.125-1.095.6 0 1.095.48 1.095 1.095s-.495 1.11-1.095 1.11Zm-.915 8.895v-7.41h1.83v7.41h-1.83Zm5.551 0h-1.83v-7.41h1.695l.15.96c.465-.75 1.365-1.185 2.37-1.185 1.86 0 2.82 1.155 2.82 3.075v4.56h-1.83v-4.125c0-1.245-.615-1.845-1.56-1.845-1.125 0-1.815.78-1.815 1.98v3.99Zm12.028-7.41h1.83v7.41h-1.695l-.135-.99c-.45.705-1.41 1.185-2.4 1.185-1.71 0-2.715-1.155-2.715-2.97v-4.635h1.83v3.99c0 1.41.555 1.98 1.575 1.98 1.155 0 1.71-.675 1.71-2.085v-3.885Zm6.889 7.605c-2.205 0-3.75-1.605-3.75-3.9 0-2.325 1.515-3.93 3.69-3.93 2.22 0 3.63 1.485 3.63 3.795v.555l-5.58.015c.135 1.305.825 1.965 2.04 1.965 1.005 0 1.665-.39 1.875-1.095h1.695c-.315 1.62-1.665 2.595-3.6 2.595Zm-.045-6.33c-1.08 0-1.74.585-1.92 1.695h3.72c0-1.02-.705-1.695-1.8-1.695Z" fill="white"/>
  <path d="m134.855 60.13-3.705-6.646h2.145l2.16 3.99c.165.3.27.54.39.81.135-.27.195-.45.39-.81l2.145-3.99h2.085l-3.69 6.645v4.32h-1.92v-4.32Zm4.712.6c0-2.31 1.665-3.9 3.96-3.9s3.96 1.59 3.96 3.9c0 2.31-1.665 3.9-3.96 3.9s-3.96-1.59-3.96-3.9Zm1.83 0c0 1.35.87 2.264 2.13 2.264 1.26 0 2.13-.915 2.13-2.265s-.87-2.265-2.13-2.265c-1.26 0-2.13.915-2.13 2.265Zm12.389-3.69h1.83v7.41h-1.695l-.135-.99c-.45.704-1.41 1.184-2.4 1.184-1.71 0-2.715-1.155-2.715-2.97V57.04h1.83v3.99c0 1.41.555 1.98 1.575 1.98 1.155 0 1.71-.675 1.71-2.085V57.04Zm8.371-.03v1.694h-.675c-1.32 0-2.145.705-2.145 2.145v3.6h-1.83v-7.395h1.725l.105 1.08c.315-.735 1.02-1.23 2.01-1.23.255 0 .51.03.81.105Zm5.476 3.434v-6.96h1.92v6.84c0 1.575.855 2.445 2.415 2.445s2.43-.885 2.43-2.445v-6.84h1.92v6.96c0 2.565-1.68 4.185-4.35 4.185-2.655 0-4.335-1.605-4.335-4.185Zm10.777 7.44V57.04h1.695l.12 1.125c.45-.855 1.425-1.35 2.55-1.35 2.085 0 3.465 1.515 3.465 3.84 0 2.31-1.26 3.99-3.465 3.99-1.11 0-2.07-.435-2.535-1.185v4.425h-1.83Zm1.845-7.14c0 1.335.825 2.25 2.085 2.25 1.29 0 2.055-.93 2.055-2.25 0-1.32-.765-2.265-2.055-2.265-1.26 0-2.085.93-2.085 2.265Zm7.007-.015c0-2.295 1.515-3.915 3.705-3.915 2.025 0 3.405 1.125 3.6 2.91h-1.83c-.21-.84-.825-1.275-1.695-1.275-1.17 0-1.95.885-1.95 2.28 0 1.395.72 2.265 1.89 2.265.915 0 1.56-.45 1.755-1.26h1.845c-.225 1.725-1.665 2.91-3.6 2.91-2.25 0-3.72-1.56-3.72-3.915Zm8.247 0c0-2.31 1.665-3.9 3.96-3.9s3.96 1.59 3.96 3.9c0 2.31-1.665 3.9-3.96 3.9s-3.96-1.59-3.96-3.9Zm1.83 0c0 1.35.87 2.265 2.13 2.265 1.26 0 2.13-.915 2.13-2.265s-.87-2.265-2.13-2.265c-1.26 0-2.13.915-2.13 2.265Zm9.371 3.72h-1.83v-7.41h1.68l.15.87c.375-.615 1.125-1.095 2.19-1.095 1.125 0 1.905.555 2.295 1.41.375-.855 1.245-1.41 2.37-1.41 1.8 0 2.79 1.08 2.79 2.79v4.845h-1.815v-4.365c0-1.065-.57-1.62-1.44-1.62-.885 0-1.56.57-1.56 1.785v4.2h-1.83v-4.38c0-1.035-.555-1.59-1.425-1.59s-1.575.57-1.575 1.77v4.2Zm12.356-8.895a1.11 1.11 0 0 1-1.125-1.11c0-.615.495-1.095 1.125-1.095.6 0 1.095.48 1.095 1.095s-.495 1.11-1.095 1.11Zm-.915 8.895v-7.41h1.83v7.41h-1.83Zm5.551 0h-1.83v-7.41h1.695l.15.96c.465-.75 1.365-1.185 2.37-1.185 1.86 0 2.82 1.155 2.82 3.075v4.56h-1.83v-4.125c0-1.245-.615-1.845-1.56-1.845-1.125 0-1.815.78-1.815 1.98v3.99Zm6.583-3.87c0-2.16 1.41-3.78 3.525-3.78 1.11 0 1.98.465 2.415 1.26l.105-1.02h1.695v7.035c0 2.475-1.485 4.02-3.885 4.02-2.13 0-3.585-1.215-3.81-3.195h1.83c.12.96.855 1.53 1.98 1.53 1.26 0 2.07-.795 2.07-2.025v-1.23c-.465.69-1.38 1.125-2.445 1.125-2.1 0-3.48-1.575-3.48-3.72Zm1.845-.045c0 1.245.795 2.175 1.995 2.175 1.26 0 2.04-.885 2.04-2.175 0-1.26-.765-2.13-2.04-2.13-1.215 0-1.995.915-1.995 2.13Zm13.047 3.915h-1.995l3.96-10.965h1.965l3.96 10.965h-2.025l-.885-2.535h-4.095l-.885 2.535Zm2.7-7.695-1.245 3.54h2.97l-1.26-3.54c-.09-.285-.195-.615-.225-.84-.045.21-.135.54-.24.84Zm6.295 11.13V57.04h1.695l.12 1.125c.45-.855 1.425-1.35 2.55-1.35 2.085 0 3.465 1.515 3.465 3.84 0 2.31-1.26 3.99-3.465 3.99-1.11 0-2.07-.435-2.535-1.185v4.425h-1.83Zm1.845-7.14c0 1.335.825 2.25 2.085 2.25 1.29 0 2.055-.93 2.055-2.25 0-1.32-.765-2.265-2.055-2.265-1.26 0-2.085.93-2.085 2.265Zm7.442 7.14V57.04h1.695l.12 1.125c.45-.855 1.425-1.35 2.55-1.35 2.085 0 3.465 1.515 3.465 3.84 0 2.31-1.26 3.99-3.465 3.99-1.11 0-2.07-.435-2.535-1.185v4.425h-1.83Zm1.845-7.14c0 1.335.825 2.25 2.085 2.25 1.29 0 2.055-.93 2.055-2.25 0-1.32-.765-2.265-2.055-2.265-1.26 0-2.085.93-2.085 2.265Zm7.007-.015c0-2.31 1.665-3.9 3.96-3.9s3.96 1.59 3.96 3.9c0 2.31-1.665 3.9-3.96 3.9s-3.96-1.59-3.96-3.9Zm1.83 0c0 1.35.87 2.265 2.13 2.265 1.26 0 2.13-.915 2.13-2.265s-.87-2.265-2.13-2.265c-1.26 0-2.13.915-2.13 2.265Zm8.455-5.175a1.11 1.11 0 0 1-1.125-1.11c0-.615.495-1.095 1.125-1.095.6 0 1.095.48 1.095 1.095s-.495 1.11-1.095 1.11Zm-.915 8.895v-7.41h1.83v7.41h-1.83Zm5.551 0h-1.83v-7.41h1.695l.15.96c.465-.75 1.365-1.185 2.37-1.185 1.86 0 2.82 1.155 2.82 3.075v4.56h-1.83v-4.125c0-1.245-.615-1.845-1.56-1.845-1.125 0-1.815.78-1.815 1.98v3.99Zm9.523 0h-1.83v-5.88H293.5v-1.53h1.425v-2.31h1.83v2.31h1.44v1.53h-1.44v5.88Zm4.408 0h-1.83v-7.41h1.68l.15.87c.375-.615 1.125-1.095 2.19-1.095 1.125 0 1.905.555 2.295 1.41.375-.855 1.245-1.41 2.37-1.41 1.8 0 2.79 1.08 2.79 2.79v4.845h-1.815v-4.365c0-1.065-.57-1.62-1.44-1.62-.885 0-1.56.57-1.56 1.785v4.2h-1.83v-4.38c0-1.035-.555-1.59-1.425-1.59s-1.575.57-1.575 1.77v4.2Zm14.756.195c-2.205 0-3.75-1.605-3.75-3.9 0-2.325 1.515-3.93 3.69-3.93 2.22 0 3.63 1.485 3.63 3.795v.555l-5.58.015c.135 1.305.825 1.965 2.04 1.965 1.005 0 1.665-.39 1.875-1.095h1.695c-.315 1.62-1.665 2.595-3.6 2.595Zm-.045-6.33c-1.08 0-1.74.585-1.92 1.695h3.72c0-1.02-.705-1.695-1.8-1.695Zm6.91 6.135h-1.83v-7.41h1.695l.15.96c.465-.75 1.365-1.185 2.37-1.185 1.86 0 2.82 1.155 2.82 3.075v4.56h-1.83v-4.125c0-1.245-.615-1.845-1.56-1.845-1.125 0-1.815.78-1.815 1.98v3.99Zm9.523 0h-1.83v-5.88h-1.425v-1.53h1.425v-2.31h1.83v2.31h1.44v1.53h-1.44v5.88Z" fill="black"/>
  <path d="M208.507 286.486h-3.22v5.04h-2.56v-14.62h5.78c2.94 0 4.84 1.92 4.84 4.78 0 2.82-1.92 4.8-4.84 4.8Zm-.5-7.3h-2.72v5.02h2.68c1.76 0 2.7-.94 2.7-2.54s-.96-2.48-2.66-2.48Zm13.333 2.42v2.26h-.9c-1.76 0-2.86.94-2.86 2.86v4.8h-2.44v-9.86h2.3l.14 1.44c.42-.98 1.36-1.64 2.68-1.64.34 0 .68.04 1.08.14Zm.74 4.96c0-3.08 2.22-5.2 5.28-5.2s5.28 2.12 5.28 5.2-2.22 5.2-5.28 5.2-5.28-2.12-5.28-5.2Zm2.44 0c0 1.8 1.16 3.02 2.84 3.02s2.84-1.22 2.84-3.02-1.16-3.02-2.84-3.02-2.84 1.22-2.84 3.02Zm12.365 4.96-3.92-9.88h2.6l1.72 4.54c.42 1.18.76 2.2.88 2.74.14-.62.5-1.66.92-2.74l1.8-4.54h2.52l-4.12 9.88h-2.4Zm9.143-11.86c-.84 0-1.5-.66-1.5-1.48s.66-1.46 1.5-1.46c.8 0 1.46.64 1.46 1.46s-.66 1.48-1.46 1.48Zm-1.22 11.86v-9.88h2.44v9.88h-2.44Zm9.021.26c-2.86 0-4.64-2.1-4.64-5.16 0-3.08 1.8-5.28 4.78-5.28 1.38 0 2.6.58 3.22 1.56v-6.26h2.42v14.88h-2.24l-.16-1.54c-.6 1.14-1.88 1.8-3.38 1.8Zm.54-2.24c1.7 0 2.8-1.22 2.8-3s-1.1-3.02-2.8-3.02c-1.7 0-2.74 1.26-2.74 3.02s1.04 3 2.74 3Zm12.203 2.24c-2.94 0-5-2.14-5-5.2 0-3.1 2.02-5.24 4.92-5.24 2.96 0 4.84 1.98 4.84 5.06v.74l-7.44.02c.18 1.74 1.1 2.62 2.72 2.62 1.34 0 2.22-.52 2.5-1.46h2.26c-.42 2.16-2.22 3.46-4.8 3.46Zm-.06-8.44c-1.44 0-2.32.78-2.56 2.26h4.96c0-1.36-.94-2.26-2.4-2.26Zm12.973-1.74v2.26h-.9c-1.76 0-2.86.94-2.86 2.86v4.8h-2.44v-9.86h2.3l.14 1.44c.42-.98 1.36-1.64 2.68-1.64.34 0 .68.04 1.08.14Zm3.491 2.88c-.88 0-1.62-.72-1.62-1.58 0-.88.74-1.6 1.62-1.6.88 0 1.62.72 1.62 1.6 0 .86-.74 1.58-1.62 1.58Zm0 7.28c-.88 0-1.62-.72-1.62-1.58 0-.88.74-1.6 1.62-1.6.88 0 1.62.72 1.62 1.6 0 .86-.74 1.58-1.62 1.58Zm16.522-12.7c-2.9 0-4.56 2.1-4.56 5.26 0 3.26 1.88 5.04 4.58 5.04 2.54 0 4.08-1.4 4.08-3.74v-.06h-4.42v-2.26h6.8v8.22h-2.16l-.16-1.68c-.8 1.12-2.46 1.9-4.44 1.9-4.1 0-6.96-2.98-6.96-7.48 0-4.44 2.9-7.6 7.3-7.6 3.34 0 5.92 1.94 6.34 4.92h-2.7c-.46-1.72-1.94-2.52-3.7-2.52Zm11.824 12.72c-2.1 0-3.38-1.22-3.38-3.08 0-1.82 1.32-2.96 3.66-3.14l2.96-.22v-.22c0-1.34-.8-1.88-2.04-1.88-1.44 0-2.24.6-2.24 1.64h-2.08c0-2.14 1.76-3.54 4.44-3.54 2.66 0 4.3 1.44 4.3 4.18v6h-2.14l-.18-1.46c-.42 1.02-1.76 1.72-3.3 1.72Zm.8-1.84c1.5 0 2.46-.9 2.46-2.42v-.52l-2.06.16c-1.52.14-2.1.64-2.1 1.44 0 .9.6 1.34 1.7 1.34Zm9.657 1.58h-2.44v-9.88h2.26l.2 1.28c.62-1 1.82-1.58 3.16-1.58 2.48 0 3.76 1.54 3.76 4.1v6.08h-2.44v-5.5c0-1.66-.82-2.46-2.08-2.46-1.5 0-2.42 1.04-2.42 2.64v5.32Zm13.398.26c-2.86 0-4.64-2.1-4.64-5.16 0-3.08 1.8-5.28 4.78-5.28 1.38 0 2.6.58 3.22 1.56v-6.26h2.42v14.88h-2.24l-.16-1.54c-.6 1.14-1.88 1.8-3.38 1.8Zm.54-2.24c1.7 0 2.8-1.22 2.8-3s-1.1-3.02-2.8-3.02c-1.7 0-2.74 1.26-2.74 3.02s1.04 3 2.74 3Zm10.723 2.24c-2.1 0-3.38-1.22-3.38-3.08 0-1.82 1.32-2.96 3.66-3.14l2.96-.22v-.22c0-1.34-.8-1.88-2.04-1.88-1.44 0-2.24.6-2.24 1.64h-2.08c0-2.14 1.76-3.54 4.44-3.54 2.66 0 4.3 1.44 4.3 4.18v6h-2.14l-.18-1.46c-.42 1.02-1.76 1.72-3.3 1.72Zm.8-1.84c1.5 0 2.46-.9 2.46-2.42v-.52l-2.06.16c-1.52.14-2.1.64-2.1 1.44 0 .9.6 1.34 1.7 1.34Zm9.677 1.58h-2.42v-14.88h2.42v14.88Zm1.579-9.88h1.42v-1.2c0-2.68 1.42-3.8 3.56-3.8.38 0 .84.02 1.26.1v2.08h-.86c-1.24 0-1.54.64-1.54 1.62v1.2h2.36v2.04h-2.36v7.84h-2.42v-7.84h-1.42v-2.04Zm19.908-2.58c-2.9 0-4.56 2.1-4.56 5.26 0 3.26 1.88 5.04 4.58 5.04 2.54 0 4.08-1.4 4.08-3.74v-.06h-4.42v-2.26h6.8v8.22h-2.16l-.16-1.68c-.8 1.12-2.46 1.9-4.44 1.9-4.1 0-6.96-2.98-6.96-7.48 0-4.44 2.9-7.6 7.3-7.6 3.34 0 5.92 1.94 6.34 4.92h-2.7c-.46-1.72-1.94-2.52-3.7-2.52Zm15.085 2.54v2.26h-.9c-1.76 0-2.86.94-2.86 2.86v4.8h-2.44v-9.86h2.3l.14 1.44c.42-.98 1.36-1.64 2.68-1.64.34 0 .68.04 1.08.14Zm5.739 10.18c-2.94 0-5-2.14-5-5.2 0-3.1 2.02-5.24 4.92-5.24 2.96 0 4.84 1.98 4.84 5.06v.74l-7.44.02c.18 1.74 1.1 2.62 2.72 2.62 1.34 0 2.22-.52 2.5-1.46h2.26c-.42 2.16-2.22 3.46-4.8 3.46Zm-.06-8.44c-1.44 0-2.32.78-2.56 2.26h4.96c0-1.36-.94-2.26-2.4-2.26Zm5.581 12.76v-2.04h1.46c.96 0 1.56-.22 1.98-1.38l.28-.74-3.98-10.3h2.58l2.54 7.2 2.68-7.2h2.52l-4.84 12.08c-.74 1.84-1.78 2.6-3.4 2.6-.68 0-1.28-.08-1.82-.22Z" fill="black"/>
  <path d="M204.987 337.243h-3.2v-2.3h5.66v14.62h-2.46v-12.32Zm4.948 5.04c0-4.54 2.44-7.62 6.18-7.62 3.74 0 6.2 3.08 6.2 7.62 0 4.52-2.32 7.54-6.2 7.54-3.88 0-6.18-3.02-6.18-7.54Zm2.52 0c0 3.38 1.36 5.28 3.66 5.28 2.32 0 3.68-1.9 3.68-5.28 0-3.46-1.36-5.36-3.68-5.36-2.3 0-3.66 1.9-3.66 5.36Zm20.213 7.28h-2.48v-14.62h2.48l4.72 11.64 4.72-11.64h2.52v14.62h-2.48v-4.5c0-2.94 0-3.8.14-4.84l-3.72 9.34h-2.36l-3.7-9.32c.14.88.16 2.26.16 4.08v5.24Zm16.055-11.86c-.84 0-1.5-.66-1.5-1.48s.66-1.46 1.5-1.46c.8 0 1.46.64 1.46 1.46s-.66 1.48-1.46 1.48Zm-1.22 11.86v-9.88h2.44v9.88h-2.44Zm8.321 0h-2.44v-7.84h-1.9v-2.04h1.9v-3.08h2.44v3.08h1.92v2.04h-1.92v7.84Zm5.877 0h-2.44v-14.88h2.46v6.28c.62-.96 1.78-1.58 3.2-1.58 2.44 0 3.72 1.54 3.72 4.1v6.08h-2.44v-5.5c0-1.66-.82-2.46-2.06-2.46-1.54 0-2.44 1.08-2.44 2.56v5.4Zm15.538-9.92v2.26h-.9c-1.76 0-2.86.94-2.86 2.86v4.8h-2.44v-9.86h2.3l.14 1.44c.42-.98 1.36-1.64 2.68-1.64.34 0 .68.04 1.08.14Zm2.871-1.94c-.84 0-1.5-.66-1.5-1.48s.66-1.46 1.5-1.46c.8 0 1.46.64 1.46 1.46s-.66 1.48-1.46 1.48Zm-1.22 11.86v-9.88h2.44v9.88h-2.44Zm7.421 0h-2.42v-14.88h2.42v14.88Zm10.87-14.62v12.26h6.12v2.36h-8.68v-14.62h2.56Zm10.782 14.88c-2.1 0-3.38-1.22-3.38-3.08 0-1.82 1.32-2.96 3.66-3.14l2.96-.22v-.22c0-1.34-.8-1.88-2.04-1.88-1.44 0-2.24.6-2.24 1.64h-2.08c0-2.14 1.76-3.54 4.44-3.54 2.66 0 4.3 1.44 4.3 4.18v6h-2.14l-.18-1.46c-.42 1.02-1.76 1.72-3.3 1.72Zm.8-1.84c1.5 0 2.46-.9 2.46-2.42v-.52l-2.06.16c-1.52.14-2.1.64-2.1 1.44 0 .9.6 1.34 1.7 1.34Zm9.657 1.58h-2.44v-9.88h2.26l.2 1.28c.62-1 1.82-1.58 3.16-1.58 2.48 0 3.76 1.54 3.76 4.1v6.08h-2.44v-5.5c0-1.66-.82-2.46-2.08-2.46-1.5 0-2.42 1.04-2.42 2.64v5.32Zm13.757.26c-2.94 0-5-2.14-5-5.2 0-3.1 2.02-5.24 4.92-5.24 2.96 0 4.84 1.98 4.84 5.06v.74l-7.44.02c.18 1.74 1.1 2.62 2.72 2.62 1.34 0 2.22-.52 2.5-1.46h2.26c-.42 2.16-2.22 3.46-4.8 3.46Zm-.06-8.44c-1.44 0-2.32.78-2.56 2.26h4.96c0-1.36-.94-2.26-2.4-2.26Zm-130.13 27.58c0-2.4 1.92-3.98 4.8-3.98 2.58 0 4.28 1.44 4.5 3.84h-1.46c-.16-1.62-1.26-2.54-3.06-2.54-2.02 0-3.34 1.04-3.34 2.66 0 1.26.74 2.06 2.24 2.44l2.46.6c2.24.54 3.4 1.82 3.4 3.76 0 2.48-1.92 4.06-4.88 4.06-2.78 0-4.66-1.46-4.84-3.8h1.48c.08 1.5 1.4 2.48 3.36 2.48 2.1 0 3.44-1.02 3.44-2.66 0-1.28-.72-2.12-2.26-2.48l-2.42-.6c-2.24-.54-3.42-1.82-3.42-3.78Zm13.209 10.58h-1.38v-14.56h1.38v6.58c.62-1.16 1.8-1.94 3.42-1.94 2.54 0 3.68 1.58 3.68 4.02v5.92h-1.38v-5.62c0-2.26-1.06-3.06-2.56-3.06-2.08 0-3.16 1.54-3.16 3.4v5.26Zm10.531-12.32c-.56 0-1.02-.46-1.02-1.02s.46-1.04 1.02-1.04 1.04.48 1.04 1.04-.48 1.02-1.04 1.02Zm-.68 12.34v-9.68h1.38v9.68h-1.38Zm9.318-9.8v1.24h-.76c-1.78 0-2.92 1.2-2.92 3.04v5.52h-1.38v-9.68h1.3l.1 1.5c.38-1.04 1.4-1.72 2.76-1.72.3 0 .56.02.9.1Zm5.523 10.04c-2.84 0-4.74-2.04-4.74-5.08 0-3.02 1.88-5.1 4.64-5.1 2.62 0 4.4 1.86 4.4 4.6v.68h-7.7c.1 2.36 1.34 3.72 3.42 3.72 1.58 0 2.6-.68 2.96-1.96h1.32c-.52 2.04-2.02 3.14-4.3 3.14Zm-.1-9c-1.82 0-3.02 1.2-3.26 3.1h6.28c0-1.86-1.2-3.1-3.02-3.1Zm8.392 8.76-3.2-9.68h1.42l1.9 5.84c.22.64.4 1.3.6 2.08.16-.78.48-1.76.58-2.08l1.92-5.84h1.42l1.9 5.84c.18.52.42 1.36.6 2.08.2-.8.24-1.04.58-2.08l1.92-5.84h1.44l-3.28 9.68h-1.34l-2-6.08c-.24-.72-.4-1.32-.52-1.9-.14.52-.3 1.1-.56 1.9l-2 6.08h-1.38Zm11.695-4.84c0-2.96 2.08-5.1 4.92-5.1s4.92 2.14 4.92 5.1c0 2.94-2.08 5.08-4.92 5.08s-4.92-2.14-4.92-5.08Zm1.4-.02c0 2.28 1.44 3.86 3.52 3.86 2.06 0 3.52-1.58 3.52-3.86 0-2.24-1.46-3.84-3.52-3.84-2.08 0-3.52 1.6-3.52 3.84Zm9.967.02c0-2.96 2.08-5.1 4.92-5.1s4.92 2.14 4.92 5.1c0 2.94-2.08 5.08-4.92 5.08s-4.92-2.14-4.92-5.08Zm1.4-.02c0 2.28 1.44 3.86 3.52 3.86 2.06 0 3.52-1.58 3.52-3.86 0-2.24-1.46-3.84-3.52-3.84-2.08 0-3.52 1.6-3.52 3.84Zm14.447 5.1c-2.82 0-4.48-2.16-4.48-5.06 0-2.92 1.66-5.12 4.54-5.12 1.6 0 2.88.7 3.56 2.1v-6.74h1.38v14.58h-1.2l-.14-1.98c-.68 1.5-2.04 2.22-3.66 2.22Zm.24-1.26c2.12 0 3.36-1.6 3.36-3.84 0-2.22-1.24-3.84-3.36-3.84-2.1 0-3.32 1.62-3.32 3.84 0 2.24 1.22 3.84 3.32 3.84Zm10.08.34c0 1.24-.96 2.32-2.2 2.5v-.74c.72-.12 1.24-.64 1.24-1.2-.12.08-.28.14-.52.14-.56 0-1.04-.4-1.04-1.08 0-.7.48-1.2 1.18-1.2.72 0 1.34.58 1.34 1.58Zm10.061.68h-1.42v-14.32h1.42l5.22 12.62 5.22-12.62h1.44v14.32h-1.42v-6.8c0-2.5.04-3.6.12-4.58l-4.66 11.38h-1.38l-4.66-11.32c.08.54.12 2.12.12 4.3v7.02Zm15.737-12.34c-.56 0-1.02-.46-1.02-1.02s.46-1.04 1.02-1.04 1.04.48 1.04 1.04-.48 1.02-1.04 1.02Zm-.68 12.34v-9.68h1.38v9.68h-1.38Zm8.058.24c-2.82 0-4.48-2.16-4.48-5.06 0-2.92 1.66-5.12 4.54-5.12 1.6 0 2.88.7 3.56 2.1v-6.74h1.38v14.58h-1.2l-.14-1.98c-.68 1.5-2.04 2.22-3.66 2.22Zm.24-1.26c2.12 0 3.36-1.6 3.36-3.84 0-2.22-1.24-3.84-3.36-3.84-2.1 0-3.32 1.62-3.32 3.84 0 2.24 1.22 3.84 3.32 3.84Zm11.44 1.26c-2.82 0-4.48-2.16-4.48-5.06 0-2.92 1.66-5.12 4.54-5.12 1.6 0 2.88.7 3.56 2.1v-6.74h1.38v14.58h-1.2l-.14-1.98c-.68 1.5-2.04 2.22-3.66 2.22Zm.24-1.26c2.12 0 3.36-1.6 3.36-3.84 0-2.22-1.24-3.84-3.36-3.84-2.1 0-3.32 1.62-3.32 3.84 0 2.24 1.22 3.84 3.32 3.84Zm9.079 1.02h-1.38v-14.58h1.38v14.58Zm6.995.24c-2.84 0-4.74-2.04-4.74-5.08 0-3.02 1.88-5.1 4.64-5.1 2.62 0 4.4 1.86 4.4 4.6v.68h-7.7c.1 2.36 1.34 3.72 3.42 3.72 1.58 0 2.6-.68 2.96-1.96h1.32c-.52 2.04-2.02 3.14-4.3 3.14Zm-.1-9c-1.82 0-3.02 1.2-3.26 3.1h6.28c0-1.86-1.2-3.1-3.02-3.1Zm6.447 4.12v-1.24h5.8v1.24h-5.8Zm17.399 4.64h-8.58v-14.32h8.56v1.32h-7.12v5.16h6.46v1.3h-6.46v5.22h7.14v1.32Zm5.404.24c-2.06 0-3.28-1.16-3.28-2.86 0-1.78 1.36-2.9 3.62-3.08l3.2-.26v-.32c0-1.9-1.14-2.5-2.56-2.5-1.68 0-2.68.76-2.68 2.06h-1.26c0-1.96 1.6-3.22 3.98-3.22 2.24 0 3.88 1.12 3.88 3.68v6.26h-1.16l-.18-1.7c-.6 1.22-1.92 1.94-3.56 1.94Zm.32-1.12c2.04 0 3.22-1.42 3.22-3.52v-.52l-2.86.22c-1.82.16-2.56.96-2.56 2.04 0 1.18.88 1.78 2.2 1.78Zm12.409-8.92v1.24h-.76c-1.78 0-2.92 1.2-2.92 3.04v5.52h-1.38v-9.68h1.3l.1 1.5c.38-1.04 1.4-1.72 2.76-1.72.3 0 .56.02.9.1Zm4.445 9.8h-1.36v-8.52h-1.94v-1.16h1.94v-3.06h1.36v3.06h1.94v1.16h-1.94v8.52Zm5.117-.02h-1.38v-14.56h1.38v6.58c.62-1.16 1.8-1.94 3.42-1.94 2.54 0 3.68 1.58 3.68 4.02v5.92h-1.38v-5.62c0-2.26-1.06-3.06-2.56-3.06-2.08 0-3.16 1.54-3.16 3.4v5.26Zm-199.573 25.18-3.58 4.84h-1.68l3.76-5c-.66.36-1.28.48-1.96.48-2.98 0-4.96-2.18-4.96-4.98 0-2.92 2.22-5.08 5.08-5.08 2.88 0 5.14 2.22 5.14 5.1 0 1.66-.44 2.82-1.8 4.64Zm.36-4.66c0-2.18-1.52-3.76-3.7-3.76-2.12 0-3.64 1.58-3.64 3.76 0 2.16 1.52 3.72 3.64 3.72 2.18 0 3.7-1.56 3.7-3.72Zm13.125 6.46h-1.68v3.04h-1.4v-3.04h-7.52v-1.28l7-10h1.92v10h1.68v1.28Zm-9.04-1.28h5.96v-8.52l-5.96 8.52Zm11.28-2.84c0-4.44 2.18-7.44 5.74-7.44 3.54 0 5.72 3 5.72 7.44 0 4.46-2.14 7.42-5.72 7.42-3.6 0-5.74-2.96-5.74-7.42Zm1.42 0c0 3.72 1.58 6.12 4.32 6.12s4.32-2.4 4.32-6.12c0-3.74-1.58-6.12-4.32-6.12s-4.32 2.38-4.32 6.12Zm14.752-5.86h-2.92v-1.3h4.3v14.32h-1.38v-13.02Zm4.16 5.86c0-4.44 2.18-7.44 5.74-7.44 3.54 0 5.72 3 5.72 7.44 0 4.46-2.14 7.42-5.72 7.42-3.6 0-5.74-2.96-5.74-7.42Zm1.42 0c0 3.72 1.58 6.12 4.32 6.12s4.32-2.4 4.32-6.12c0-3.74-1.58-6.12-4.32-6.12s-4.32 2.38-4.32 6.12Z" fill="black"/>
  <path d="M208.847 426.363c-3.3 0-5.38 2.44-5.38 6.1 0 3.72 2.2 5.98 5.42 5.98 2.4 0 4.74-1.16 4.74-4.6v-.74h-5.18v-1.28h6.54v7.76h-1.14l-.14-2.28c-.76 1.42-2.56 2.5-4.88 2.5-4.06 0-6.86-2.92-6.86-7.34 0-4.38 2.8-7.46 6.9-7.46 3.02 0 5.36 1.72 5.92 4.32h-1.56c-.6-1.96-2.28-2.96-4.38-2.96Zm12.76 13.44c-2.84 0-4.74-2.04-4.74-5.08 0-3.02 1.88-5.1 4.64-5.1 2.62 0 4.4 1.86 4.4 4.6v.68h-7.7c.1 2.36 1.34 3.72 3.42 3.72 1.58 0 2.6-.68 2.96-1.96h1.32c-.52 2.04-2.02 3.14-4.3 3.14Zm-.1-9c-1.82 0-3.02 1.2-3.26 3.1h6.28c0-1.86-1.2-3.1-3.02-3.1Zm8.728 8.76h-1.36v-8.52h-1.94v-1.16h1.94v-3.06h1.36v3.06h1.94v1.16h-1.94v8.52Zm13.944 0h-4.36v-14.32h4.32c4.32 0 7.2 2.88 7.2 7.16s-2.86 7.16-7.16 7.16Zm-.1-13h-2.82v11.68h2.86c3.5 0 5.74-2.28 5.74-5.84 0-3.58-2.24-5.84-5.78-5.84Zm10.241.66c-.56 0-1.02-.46-1.02-1.02s.46-1.04 1.02-1.04 1.04.48 1.04 1.04-.48 1.02-1.04 1.02Zm-.68 12.34v-9.68h1.38v9.68h-1.38Zm9.318-9.8v1.24h-.76c-1.78 0-2.92 1.2-2.92 3.04v5.52h-1.38v-9.68h1.3l.1 1.5c.38-1.04 1.4-1.72 2.76-1.72.3 0 .56.02.9.1Zm5.524 10.04c-2.84 0-4.74-2.04-4.74-5.08 0-3.02 1.88-5.1 4.64-5.1 2.62 0 4.4 1.86 4.4 4.6v.68h-7.7c.1 2.36 1.34 3.72 3.42 3.72 1.58 0 2.6-.68 2.96-1.96h1.32c-.52 2.04-2.02 3.14-4.3 3.14Zm-.1-9c-1.82 0-3.02 1.2-3.26 3.1h6.28c0-1.86-1.2-3.1-3.02-3.1Zm5.926 3.94c0-3.04 1.86-5.12 4.68-5.12 2.24 0 3.88 1.3 4.26 3.3h-1.38c-.36-1.34-1.52-2.08-2.86-2.08-1.96 0-3.34 1.5-3.34 3.88 0 2.3 1.28 3.84 3.24 3.84 1.44 0 2.6-.8 2.98-2.04h1.4c-.46 1.98-2.18 3.28-4.38 3.28-2.74 0-4.6-2.02-4.6-5.06Zm13.291 4.82h-1.36v-8.52h-1.94v-1.16h1.94v-3.06h1.36v3.06h1.94v1.16h-1.94v8.52Zm4.417-12.34c-.56 0-1.02-.46-1.02-1.02s.46-1.04 1.02-1.04 1.04.48 1.04 1.04-.48 1.02-1.04 1.02Zm-.68 12.34v-9.68h1.38v9.68h-1.38Zm3.578-4.84c0-2.96 2.08-5.1 4.92-5.1s4.92 2.14 4.92 5.1c0 2.94-2.08 5.08-4.92 5.08s-4.92-2.14-4.92-5.08Zm1.4-.02c0 2.28 1.44 3.86 3.52 3.86 2.06 0 3.52-1.58 3.52-3.86 0-2.24-1.46-3.84-3.52-3.84-2.08 0-3.52 1.6-3.52 3.84Zm12.027 4.86h-1.38v-9.68h1.2l.2 1.68c.64-1.24 1.92-1.94 3.32-1.94 2.66 0 3.76 1.58 3.76 4.02v5.92h-1.38v-5.62c0-2.26-1.02-3.06-2.62-3.06-1.98 0-3.1 1.44-3.1 3.62v5.06Zm8.913-2.72h1.32c0 1.12.84 1.82 2.2 1.82 1.5 0 2.38-.64 2.38-1.68 0-.8-.4-1.26-1.54-1.54l-1.66-.42c-1.68-.42-2.5-1.3-2.5-2.62 0-1.7 1.42-2.78 3.5-2.78 2.04 0 3.36 1.12 3.42 2.92h-1.34c-.04-1.12-.82-1.78-2.12-1.78-1.36 0-2.12.58-2.12 1.62 0 .74.52 1.26 1.58 1.52l1.66.42c1.68.42 2.44 1.2 2.44 2.6 0 1.74-1.48 2.88-3.68 2.88-2.18 0-3.54-1.16-3.54-2.96Z" fill="#5C86A8"/>
  <path d="M140.502 129.494h-5.86v6.3h-1.44v-14.32h8.44v1.32h-7v5.4h5.86v1.3Zm7.714-3.5v1.24h-.76c-1.78 0-2.92 1.2-2.92 3.04v5.52h-1.38v-9.68h1.3l.1 1.5c.38-1.04 1.4-1.72 2.76-1.72.3 0 .56.02.9.1Zm2.514-2.54c-.56 0-1.02-.46-1.02-1.02s.46-1.04 1.02-1.04 1.04.48 1.04 1.04-.48 1.02-1.04 1.02Zm-.68 12.34v-9.68h1.38v9.68h-1.38Zm8.058.24c-2.82 0-4.48-2.16-4.48-5.06 0-2.92 1.66-5.12 4.54-5.12 1.6 0 2.88.7 3.56 2.1v-6.74h1.38v14.58h-1.2l-.14-1.98c-.68 1.5-2.04 2.22-3.66 2.22Zm.24-1.26c2.12 0 3.36-1.6 3.36-3.84 0-2.22-1.24-3.84-3.36-3.84-2.1 0-3.32 1.62-3.32 3.84 0 2.24 1.22 3.84 3.32 3.84Zm10.42 1.26c-2.06 0-3.28-1.16-3.28-2.86 0-1.78 1.36-2.9 3.62-3.08l3.2-.26v-.32c0-1.9-1.14-2.5-2.56-2.5-1.68 0-2.68.76-2.68 2.06h-1.26c0-1.96 1.6-3.22 3.98-3.22 2.24 0 3.88 1.12 3.88 3.68v6.26h-1.16l-.18-1.7c-.6 1.22-1.92 1.94-3.56 1.94Zm.32-1.12c2.04 0 3.22-1.42 3.22-3.52v-.52l-2.86.22c-1.82.16-2.56.96-2.56 2.04 0 1.18.88 1.78 2.2 1.78Zm6.154 5.1v-1.14h1.06c.84 0 1.68-.06 2.16-1.36l.42-1.14-3.92-10.26h1.46l3.12 8.44 3.06-8.44h1.42l-4.44 11.9c-.56 1.52-1.5 2.14-2.88 2.14-.58 0-1.02-.04-1.46-.14Zm11.311-4.9c0 1.24-.96 2.32-2.2 2.5v-.74c.72-.12 1.24-.64 1.24-1.2-.12.08-.28.14-.52.14-.56 0-1.04-.4-1.04-1.08 0-.7.48-1.2 1.18-1.2.72 0 1.34.58 1.34 1.58Zm15.941-5.62h-5.86v6.3h-1.44v-14.32h8.44v1.32h-7v5.4h5.86v1.3Zm6.558 6.54c-2.84 0-4.74-2.04-4.74-5.08 0-3.02 1.88-5.1 4.64-5.1 2.62 0 4.4 1.86 4.4 4.6v.68h-7.7c.1 2.36 1.34 3.72 3.42 3.72 1.58 0 2.6-.68 2.96-1.96h1.32c-.52 2.04-2.02 3.14-4.3 3.14Zm-.1-9c-1.82 0-3.02 1.2-3.26 3.1h6.28c0-1.86-1.2-3.1-3.02-3.1Zm7.806 8.76h-1.2v-14.58h1.38v6.78c.68-1.42 2-2.14 3.64-2.14 2.82 0 4.46 2.2 4.46 5.12 0 2.9-1.68 5.06-4.5 5.06-1.62 0-2.96-.72-3.64-2.22l-.14 1.98Zm.2-4.86c0 2.24 1.24 3.84 3.36 3.84 2.1 0 3.32-1.6 3.32-3.84 0-2.22-1.22-3.84-3.32-3.84-2.12 0-3.36 1.62-3.36 3.84Zm15.34-4.94v1.24h-.76c-1.78 0-2.92 1.2-2.92 3.04v5.52h-1.38v-9.68h1.3l.1 1.5c.38-1.04 1.4-1.72 2.76-1.72.3 0 .56.02.9.1Zm8.634.12h1.38v9.68h-1.2l-.18-1.64c-.54 1.12-1.88 1.88-3.4 1.88-2.28 0-3.52-1.56-3.52-3.92v-6.02h1.4v5.58c0 2.3 1.02 3.12 2.56 3.12 1.86 0 2.96-1.24 2.96-3.54v-5.14Zm7.035 9.92c-2.06 0-3.28-1.16-3.28-2.86 0-1.78 1.36-2.9 3.62-3.08l3.2-.26v-.32c0-1.9-1.14-2.5-2.56-2.5-1.68 0-2.68.76-2.68 2.06h-1.26c0-1.96 1.6-3.22 3.98-3.22 2.24 0 3.88 1.12 3.88 3.68v6.26h-1.16l-.18-1.7c-.6 1.22-1.92 1.94-3.56 1.94Zm.32-1.12c2.04 0 3.22-1.42 3.22-3.52v-.52l-2.86.22c-1.82.16-2.56.96-2.56 2.04 0 1.18.88 1.78 2.2 1.78Zm12.409-8.92v1.24h-.76c-1.78 0-2.92 1.2-2.92 3.04v5.52h-1.38v-9.68h1.3l.1 1.5c.38-1.04 1.4-1.72 2.76-1.72.3 0 .56.02.9.1Zm1.148 14.02v-1.14h1.06c.84 0 1.68-.06 2.16-1.36l.42-1.14-3.92-10.26h1.46l3.12 8.44 3.06-8.44h1.42l-4.44 11.9c-.56 1.52-1.5 2.14-2.88 2.14-.58 0-1.02-.04-1.46-.14Zm24.841-4.22h-9.44v-1.14l4.58-4c2.64-2.3 3.32-3.3 3.32-5 0-1.94-1.16-3.12-3.06-3.12-1.98 0-3.28 1.44-3.34 3.66h-1.44c.08-3 1.98-4.98 4.8-4.98 2.7 0 4.5 1.74 4.5 4.36 0 2.08-.94 3.46-3.8 5.96l-3.34 2.92h7.22v1.34Zm4.549-13.02h-2.92v-1.3h4.3v14.32h-1.38v-13.02Zm6.94 12.34c0 1.24-.96 2.32-2.2 2.5v-.74c.72-.12 1.24-.64 1.24-1.2-.12.08-.28.14-.52.14-.56 0-1.04-.4-1.04-1.08 0-.7.48-1.2 1.18-1.2.72 0 1.34.58 1.34 1.58Zm17.241.68h-9.44v-1.14l4.58-4c2.64-2.3 3.32-3.3 3.32-5 0-1.94-1.16-3.12-3.06-3.12-1.98 0-3.28 1.44-3.34 3.66h-1.44c.08-3 1.98-4.98 4.8-4.98 2.7 0 4.5 1.74 4.5 4.36 0 2.08-.94 3.46-3.8 5.96l-3.34 2.92h7.22v1.34Zm1.991-7.16c0-4.44 2.18-7.44 5.74-7.44 3.54 0 5.72 3 5.72 7.44 0 4.46-2.14 7.42-5.72 7.42-3.6 0-5.74-2.96-5.74-7.42Zm1.42 0c0 3.72 1.58 6.12 4.32 6.12s4.32-2.4 4.32-6.12c0-3.74-1.58-6.12-4.32-6.12s-4.32 2.38-4.32 6.12Zm21.472 7.16h-9.44v-1.14l4.58-4c2.64-2.3 3.32-3.3 3.32-5 0-1.94-1.16-3.12-3.06-3.12-1.98 0-3.28 1.44-3.34 3.66h-1.44c.08-3 1.98-4.98 4.8-4.98 2.7 0 4.5 1.74 4.5 4.36 0 2.08-.94 3.46-3.8 5.96l-3.34 2.92h7.22v1.34Zm6.573.24c-2.88 0-4.72-1.8-4.72-4.62h1.44c0 2.06 1.26 3.3 3.3 3.3 2.16 0 3.56-1.44 3.56-3.56 0-2-1.3-3.58-3.56-3.58-1.32 0-2.52.6-3.3 1.46l-1.14-.36 1.72-7.2h6.92v1.32h-5.88l-1.08 4.5c.8-.64 1.84-1 2.96-1 2.98 0 4.82 2.14 4.82 4.82 0 2.88-2.04 4.92-5.04 4.92Z" fill="black"/>
  <path d="M140.774 188.492h-7.68v-5.52h13.584v35.088h-5.904v-29.568Zm17.253 12.672c-2.112 0-3.888-1.728-3.888-3.792 0-2.112 1.776-3.84 3.888-3.84s3.888 1.728 3.888 3.84c0 2.064-1.776 3.792-3.888 3.792Zm0 17.472c-2.112 0-3.888-1.728-3.888-3.792 0-2.112 1.776-3.84 3.888-3.84s3.888 1.728 3.888 3.84c0 2.064-1.776 3.792-3.888 3.792Zm9.53-18.048c0-10.896 5.856-18.288 14.832-18.288s14.88 7.392 14.88 18.288c0 10.848-5.568 18.096-14.88 18.096-9.312 0-14.832-7.248-14.832-18.096Zm6.048 0c0 8.112 3.264 12.672 8.784 12.672 5.568 0 8.832-4.56 8.832-12.672 0-8.304-3.264-12.864-8.832-12.864-5.52 0-8.784 4.56-8.784 12.864Zm27.796 0c0-10.896 5.856-18.288 14.832-18.288s14.88 7.392 14.88 18.288c0 10.848-5.568 18.096-14.88 18.096-9.312 0-14.832-7.248-14.832-18.096Zm6.048 0c0 8.112 3.264 12.672 8.784 12.672 5.568 0 8.832-4.56 8.832-12.672 0-8.304-3.264-12.864-8.832-12.864-5.52 0-8.784 4.56-8.784 12.864Zm56.429 5.376h-7.728v12.096h-6.144v-35.088h13.872c7.056 0 11.616 4.608 11.616 11.472 0 6.768-4.608 11.52-11.616 11.52Zm-1.2-17.52h-6.528v12.048h6.432c4.224 0 6.48-2.256 6.48-6.096 0-3.84-2.304-5.952-6.384-5.952Zm23.936 29.616h-5.952v-35.088h5.952l11.328 27.936 11.328-27.936h6.048v35.088h-5.952v-10.8c0-7.056 0-9.12.336-11.616l-8.928 22.416h-5.664l-8.88-22.368c.336 2.112.384 5.424.384 9.792v12.576Z" fill="black"/>
  <path d="M134.364 87.644h315.818" stroke="black"/>
  <path d="M148.873 284.97c-1.596 0-2.962-.568-4.099-1.705-1.136-1.136-1.705-2.502-1.705-4.099 0-1.596.569-2.962 1.705-4.098 1.137-1.137 2.503-1.705 4.099-1.705s2.962.568 4.099 1.705c1.136 1.136 1.705 2.502 1.705 4.098 0 1.597-.569 2.963-1.705 4.099-1.137 1.137-2.503 1.705-4.099 1.705Zm-11.607 11.608v-4.063c0-.822.211-1.578.635-2.266a4.256 4.256 0 0 1 1.686-1.579 21.466 21.466 0 0 1 4.571-1.686 20.05 20.05 0 0 1 9.431 0c1.547.376 3.071.938 4.57 1.686a4.232 4.232 0 0 1 1.687 1.579c.424.689.635 1.445.634 2.266v4.063h-23.214Z" fill="black"/>
  <path d="M148.873 343.41a2.822 2.822 0 1 1 0-5.643 2.822 2.822 0 0 1 0 5.643Zm0-10.721a7.902 7.902 0 0 0-7.899 7.9c0 5.925 7.899 14.67 7.899 14.67s7.899-8.745 7.899-14.67a7.902 7.902 0 0 0-7.899-7.9Z" fill="black"/>
</svg>
