<svg viewBox="0 0 600 523" fill="none" xmlns="http://www.w3.org/2000/svg">
  <g opacity="0.89">
    <rect opacity="0.96" x="151.25" y="290.25" width="385.5" height="232.5" rx="11.75" fill="white" stroke="black" stroke-width="0.5"/>
    <path d="M243.02 403.091c-2.9 0-4.56 2.1-4.56 5.26 0 3.26 1.88 5.04 4.58 5.04 2.54 0 4.08-1.4 4.08-3.74v-.06h-4.42v-2.26h6.8v8.22h-2.16l-.16-1.68c-.8 1.12-2.46 1.9-4.44 1.9-4.1 0-6.96-2.98-6.96-7.48 0-4.44 2.9-7.6 7.3-7.6 3.34 0 5.92 1.94 6.34 4.92h-2.7c-.46-1.72-1.94-2.52-3.7-2.52Zm10.105.6c-.84 0-1.5-.66-1.5-1.48s.66-1.46 1.5-1.46c.8 0 1.46.64 1.46 1.46s-.66 1.48-1.46 1.48Zm-1.22 11.86v-9.88h2.44v9.88h-2.44Zm7.4 0h-2.44v-9.88h2.24l.2 1.16c.5-.82 1.5-1.46 2.92-1.46 1.5 0 2.54.74 3.06 1.88.5-1.14 1.66-1.88 3.16-1.88 2.4 0 3.72 1.44 3.72 3.72v6.46h-2.42v-5.82c0-1.42-.76-2.16-1.92-2.16-1.18 0-2.08.76-2.08 2.38v5.6h-2.44v-5.84c0-1.38-.74-2.12-1.9-2.12s-2.1.76-2.1 2.36v5.6Zm17.716 0h-2.42v-14.88h2.42v14.88Zm3.779-11.86c-.84 0-1.5-.66-1.5-1.48s.66-1.46 1.5-1.46c.8 0 1.46.64 1.46 1.46s-.66 1.48-1.46 1.48Zm-1.22 11.86v-9.88h2.44v9.88h-2.44Zm12.792 0h-2.44v-14.88h2.46v6.28c.62-.96 1.78-1.58 3.2-1.58 2.44 0 3.72 1.54 3.72 4.1v6.08h-2.44v-5.5c0-1.66-.82-2.46-2.06-2.46-1.54 0-2.44 1.08-2.44 2.56v5.4Zm12.277.26c-2.1 0-3.38-1.22-3.38-3.08 0-1.82 1.32-2.96 3.66-3.14l2.96-.22v-.22c0-1.34-.8-1.88-2.04-1.88-1.44 0-2.24.6-2.24 1.64h-2.08c0-2.14 1.76-3.54 4.44-3.54 2.66 0 4.3 1.44 4.3 4.18v6h-2.14l-.18-1.46c-.42 1.02-1.76 1.72-3.3 1.72Zm.8-1.84c1.5 0 2.46-.9 2.46-2.42v-.52l-2.06.16c-1.52.14-2.1.64-2.1 1.44 0 .9.6 1.34 1.7 1.34Zm6.457-1.42h2.32c.02.86.66 1.4 1.78 1.4 1.14 0 1.76-.46 1.76-1.18 0-.5-.26-.86-1.14-1.06l-1.78-.42c-1.78-.4-2.64-1.24-2.64-2.82 0-1.94 1.64-3.1 3.92-3.1 2.22 0 3.72 1.28 3.74 3.2h-2.32c-.02-.84-.58-1.38-1.52-1.38-.96 0-1.52.44-1.52 1.18 0 .56.44.92 1.28 1.12l1.78.42c1.66.38 2.5 1.14 2.5 2.66 0 2-1.7 3.24-4.14 3.24-2.46 0-4.02-1.32-4.02-3.26Zm14.829-1.96c0-3.06 2.02-5.22 4.94-5.22 2.7 0 4.54 1.5 4.8 3.88h-2.44c-.28-1.12-1.1-1.7-2.26-1.7-1.56 0-2.6 1.18-2.6 3.04s.96 3.02 2.52 3.02c1.22 0 2.08-.6 2.34-1.68h2.46c-.3 2.3-2.22 3.88-4.8 3.88-3 0-4.96-2.08-4.96-5.22Zm14.036 4.96h-2.42v-14.88h2.42v14.88Zm5.499.26c-2.1 0-3.38-1.22-3.38-3.08 0-1.82 1.32-2.96 3.66-3.14l2.96-.22v-.22c0-1.34-.8-1.88-2.04-1.88-1.44 0-2.24.6-2.24 1.64h-2.08c0-2.14 1.76-3.54 4.44-3.54 2.66 0 4.3 1.44 4.3 4.18v6h-2.14l-.18-1.46c-.42 1.02-1.76 1.72-3.3 1.72Zm.8-1.84c1.5 0 2.46-.9 2.46-2.42v-.52l-2.06.16c-1.52.14-2.1.64-2.1 1.44 0 .9.6 1.34 1.7 1.34Zm8.437-10.28c-.84 0-1.5-.66-1.5-1.48s.66-1.46 1.5-1.46c.8 0 1.46.64 1.46 1.46s-.66 1.48-1.46 1.48Zm-1.22 11.86v-9.88h2.44v9.88h-2.44Zm7.401 0h-2.44v-9.88h2.24l.2 1.16c.5-.82 1.5-1.46 2.92-1.46 1.5 0 2.54.74 3.06 1.88.5-1.14 1.66-1.88 3.16-1.88 2.4 0 3.72 1.44 3.72 3.72v6.46h-2.42v-5.82c0-1.42-.76-2.16-1.92-2.16-1.18 0-2.08.76-2.08 2.38v5.6h-2.44v-5.84c0-1.38-.74-2.12-1.9-2.12s-2.1.76-2.1 2.36v5.6Zm19.676.26c-2.94 0-5-2.14-5-5.2 0-3.1 2.02-5.24 4.92-5.24 2.96 0 4.84 1.98 4.84 5.06v.74l-7.44.02c.18 1.74 1.1 2.62 2.72 2.62 1.34 0 2.22-.52 2.5-1.46h2.26c-.42 2.16-2.22 3.46-4.8 3.46Zm-.06-8.44c-1.44 0-2.32.78-2.56 2.26h4.96c0-1.36-.94-2.26-2.4-2.26Zm10.832 8.44c-2.86 0-4.64-2.1-4.64-5.16 0-3.08 1.8-5.28 4.78-5.28 1.38 0 2.6.58 3.22 1.56v-6.26h2.42v14.88h-2.24l-.16-1.54c-.6 1.14-1.88 1.8-3.38 1.8Zm.54-2.24c1.7 0 2.8-1.22 2.8-3s-1.1-3.02-2.8-3.02c-1.7 0-2.74 1.26-2.74 3.02s1.04 3 2.74 3Zm16.114 2.24c-2.1 0-3.38-1.22-3.38-3.08 0-1.82 1.32-2.96 3.66-3.14l2.96-.22v-.22c0-1.34-.8-1.88-2.04-1.88-1.44 0-2.24.6-2.24 1.64h-2.08c0-2.14 1.76-3.54 4.44-3.54 2.66 0 4.3 1.44 4.3 4.18v6h-2.14l-.18-1.46c-.42 1.02-1.76 1.72-3.3 1.72Zm.8-1.84c1.5 0 2.46-.9 2.46-2.42v-.52l-2.06.16c-1.52.14-2.1.64-2.1 1.44 0 .9.6 1.34 1.7 1.34Zm-171.15 31.58-3.2-9.88h2.54l1.3 4.24c.22.78.42 1.64.6 2.56.18-.96.36-1.58.68-2.56l1.36-4.24h2.48l1.32 4.24c.12.4.52 1.88.64 2.54.16-.74.48-1.92.66-2.54l1.32-4.24h2.58l-3.42 9.88h-2.28l-1.36-4.28c-.4-1.3-.62-2.24-.7-2.74-.1.46-.28 1.16-.78 2.78l-1.36 4.24h-2.38Zm16.209.26c-2.1 0-3.38-1.22-3.38-3.08 0-1.82 1.32-2.96 3.66-3.14l2.96-.22v-.22c0-1.34-.8-1.88-2.04-1.88-1.44 0-2.24.6-2.24 1.64h-2.08c0-2.14 1.76-3.54 4.44-3.54 2.66 0 4.3 1.44 4.3 4.18v6h-2.14l-.18-1.46c-.42 1.02-1.76 1.72-3.3 1.72Zm.8-1.84c1.5 0 2.46-.9 2.46-2.42v-.52l-2.06.16c-1.52.14-2.1.64-2.1 1.44 0 .9.6 1.34 1.7 1.34Zm8.437-10.28c-.84 0-1.5-.66-1.5-1.48s.66-1.46 1.5-1.46c.8 0 1.46.64 1.46 1.46s-.66 1.48-1.46 1.48Zm-1.22 11.86v-9.88h2.44v9.88h-2.44Zm8.321 0h-2.44v-7.84h-1.9v-2.04h1.9v-3.08h2.44v3.08h1.92v2.04h-1.92v7.84Zm5.897 0h-2.42v-14.88h2.42v14.88Zm3.78-11.86c-.84 0-1.5-.66-1.5-1.48s.66-1.46 1.5-1.46c.8 0 1.46.64 1.46 1.46s-.66 1.48-1.46 1.48Zm-1.22 11.86v-9.88h2.44v9.88h-2.44Zm4.201-3h2.32c.02.86.66 1.4 1.78 1.4 1.14 0 1.76-.46 1.76-1.18 0-.5-.26-.86-1.14-1.06l-1.78-.42c-1.78-.4-2.64-1.24-2.64-2.82 0-1.94 1.64-3.1 3.92-3.1 2.22 0 3.72 1.28 3.74 3.2h-2.32c-.02-.84-.58-1.38-1.52-1.38-.96 0-1.52.44-1.52 1.18 0 .56.44.92 1.28 1.12l1.78.42c1.66.38 2.5 1.14 2.5 2.66 0 2-1.7 3.24-4.14 3.24-2.46 0-4.02-1.32-4.02-3.26Zm13.377 3h-2.44v-7.84h-1.9v-2.04h1.9v-3.08h2.44v3.08h1.92v2.04h-1.92v7.84Zm11.768.26c-2.1 0-3.38-1.22-3.38-3.08 0-1.82 1.32-2.96 3.66-3.14l2.96-.22v-.22c0-1.34-.8-1.88-2.04-1.88-1.44 0-2.24.6-2.24 1.64h-2.08c0-2.14 1.76-3.54 4.44-3.54 2.66 0 4.3 1.44 4.3 4.18v6h-2.14l-.18-1.46c-.42 1.02-1.76 1.72-3.3 1.72Zm.8-1.84c1.5 0 2.46-.9 2.46-2.42v-.52l-2.06.16c-1.52.14-2.1.64-2.1 1.44 0 .9.6 1.34 1.7 1.34Zm7.217 6.16v-14.46h2.26l.16 1.5c.6-1.14 1.9-1.8 3.4-1.8 2.78 0 4.62 2.02 4.62 5.12 0 3.08-1.68 5.32-4.62 5.32-1.48 0-2.76-.58-3.38-1.58v5.9h-2.44Zm2.46-9.52c0 1.78 1.1 3 2.78 3 1.72 0 2.74-1.24 2.74-3s-1.02-3.02-2.74-3.02c-1.68 0-2.78 1.24-2.78 3.02Zm9.923 9.52v-14.46h2.26l.16 1.5c.6-1.14 1.9-1.8 3.4-1.8 2.78 0 4.62 2.02 4.62 5.12 0 3.08-1.68 5.32-4.62 5.32-1.48 0-2.76-.58-3.38-1.58v5.9h-2.44Zm2.46-9.52c0 1.78 1.1 3 2.78 3 1.72 0 2.74-1.24 2.74-3s-1.02-3.02-2.74-3.02c-1.68 0-2.78 1.24-2.78 3.02Zm9.343-.02c0-3.08 2.22-5.2 5.28-5.2s5.28 2.12 5.28 5.2-2.22 5.2-5.28 5.2-5.28-2.12-5.28-5.2Zm2.44 0c0 1.8 1.16 3.02 2.84 3.02s2.84-1.22 2.84-3.02-1.16-3.02-2.84-3.02-2.84 1.22-2.84 3.02Zm11.274-6.9c-.84 0-1.5-.66-1.5-1.48s.66-1.46 1.5-1.46c.8 0 1.46.64 1.46 1.46s-.66 1.48-1.46 1.48Zm-1.22 11.86v-9.88h2.44v9.88h-2.44Zm7.401 0h-2.44v-9.88h2.26l.2 1.28c.62-1 1.82-1.58 3.16-1.58 2.48 0 3.76 1.54 3.76 4.1v6.08h-2.44v-5.5c0-1.66-.82-2.46-2.08-2.46-1.5 0-2.42 1.04-2.42 2.64v5.32Zm12.697 0h-2.44v-7.84h-1.9v-2.04h1.9v-3.08h2.44v3.08h1.92v2.04h-1.92v7.84Zm5.877 0h-2.44v-9.88h2.24l.2 1.16c.5-.82 1.5-1.46 2.92-1.46 1.5 0 2.54.74 3.06 1.88.5-1.14 1.66-1.88 3.16-1.88 2.4 0 3.72 1.44 3.72 3.72v6.46h-2.42v-5.82c0-1.42-.76-2.16-1.92-2.16-1.18 0-2.08.76-2.08 2.38v5.6h-2.44v-5.84c0-1.38-.74-2.12-1.9-2.12s-2.1.76-2.1 2.36v5.6Zm19.675.26c-2.94 0-5-2.14-5-5.2 0-3.1 2.02-5.24 4.92-5.24 2.96 0 4.84 1.98 4.84 5.06v.74l-7.44.02c.18 1.74 1.1 2.62 2.72 2.62 1.34 0 2.22-.52 2.5-1.46h2.26c-.42 2.16-2.22 3.46-4.8 3.46Zm-.06-8.44c-1.44 0-2.32.78-2.56 2.26h4.96c0-1.36-.94-2.26-2.4-2.26Zm9.213 8.18h-2.44v-9.88h2.26l.2 1.28c.62-1 1.82-1.58 3.16-1.58 2.48 0 3.76 1.54 3.76 4.1v6.08h-2.44v-5.5c0-1.66-.82-2.46-2.08-2.46-1.5 0-2.42 1.04-2.42 2.64v5.32Zm12.697 0h-2.44v-7.84h-1.9v-2.04h1.9v-3.08h2.44v3.08h1.92v2.04h-1.92v7.84Zm7.848-9.88h1.42v-1.2c0-2.68 1.42-3.8 3.56-3.8.38 0 .84.02 1.26.1v2.08h-.86c-1.24 0-1.54.64-1.54 1.62v1.2h2.36v2.04h-2.36v7.84h-2.42v-7.84h-1.42v-2.04Zm6.884 4.92c0-3.08 2.22-5.2 5.28-5.2s5.28 2.12 5.28 5.2-2.22 5.2-5.28 5.2-5.28-2.12-5.28-5.2Zm2.44 0c0 1.8 1.16 3.02 2.84 3.02s2.84-1.22 2.84-3.02-1.16-3.02-2.84-3.02-2.84 1.22-2.84 3.02Zm16.254-4.96v2.26h-.9c-1.76 0-2.86.94-2.86 2.86v4.8h-2.44v-9.86h2.3l.14 1.44c.42-.98 1.36-1.64 2.68-1.64.34 0 .68.04 1.08.14Zm-209.793 33.94h-5.44v5.98h-2.56v-14.62h9.04v2.36h-6.48v3.98h5.44v2.3Zm8.582-3.94v2.26h-.9c-1.76 0-2.86.94-2.86 2.86v4.8h-2.44v-9.86h2.3l.14 1.44c.42-.98 1.36-1.64 2.68-1.64.34 0 .68.04 1.08.14Zm2.872-1.94c-.84 0-1.5-.66-1.5-1.48s.66-1.46 1.5-1.46c.8 0 1.46.64 1.46 1.46s-.66 1.48-1.46 1.48Zm-1.22 11.86v-9.88h2.44v9.88h-2.44Zm9.021.26c-2.86 0-4.64-2.1-4.64-5.16 0-3.08 1.8-5.28 4.78-5.28 1.38 0 2.6.58 3.22 1.56v-6.26h2.42v14.88h-2.24l-.16-1.54c-.6 1.14-1.88 1.8-3.38 1.8Zm.54-2.24c1.7 0 2.8-1.22 2.8-3s-1.1-3.02-2.8-3.02c-1.7 0-2.74 1.26-2.74 3.02s1.04 3 2.74 3Zm10.723 2.24c-2.1 0-3.38-1.22-3.38-3.08 0-1.82 1.32-2.96 3.66-3.14l2.96-.22v-.22c0-1.34-.8-1.88-2.04-1.88-1.44 0-2.24.6-2.24 1.64h-2.08c0-2.14 1.76-3.54 4.44-3.54 2.66 0 4.3 1.44 4.3 4.18v6h-2.14l-.18-1.46c-.42 1.02-1.76 1.72-3.3 1.72Zm.8-1.84c1.5 0 2.46-.9 2.46-2.42v-.52l-2.06.16c-1.52.14-2.1.64-2.1 1.44 0 .9.6 1.34 1.7 1.34Zm6.083 6.16v-2.04h1.46c.96 0 1.56-.22 1.98-1.38l.28-.74-3.98-10.3h2.58l2.54 7.2 2.68-7.2h2.52l-4.84 12.08c-.74 1.84-1.78 2.6-3.4 2.6-.68 0-1.28-.08-1.82-.22Zm12.89-5.46c0 1.66-1.2 2.98-2.82 3.18v-.98c.9-.16 1.58-.7 1.58-1.4-.16.08-.34.12-.58.12-.78 0-1.42-.58-1.42-1.38 0-.96.62-1.6 1.52-1.6 1 0 1.72.82 1.72 2.06Zm10.571-11.44h-3.2v-2.3h5.66v14.62h-2.46v-12.32Zm7.695 0h-3.2v-2.3h5.66v14.62h-2.46v-12.32Zm7.189 5.28c-.88 0-1.62-.72-1.62-1.58 0-.88.74-1.6 1.62-1.6.88 0 1.62.72 1.62 1.6 0 .86-.74 1.58-1.62 1.58Zm0 7.28c-.88 0-1.62-.72-1.62-1.58 0-.88.74-1.6 1.62-1.6.88 0 1.62.72 1.62 1.6 0 .86-.74 1.58-1.62 1.58Zm3.971-7.52c0-4.54 2.44-7.62 6.18-7.62 3.74 0 6.2 3.08 6.2 7.62 0 4.52-2.32 7.54-6.2 7.54-3.88 0-6.18-3.02-6.18-7.54Zm2.52 0c0 3.38 1.36 5.28 3.66 5.28 2.32 0 3.68-1.9 3.68-5.28 0-3.46-1.36-5.36-3.68-5.36-2.3 0-3.66 1.9-3.66 5.36Zm11.581 0c0-4.54 2.44-7.62 6.18-7.62 3.74 0 6.2 3.08 6.2 7.62 0 4.52-2.32 7.54-6.2 7.54-3.88 0-6.18-3.02-6.18-7.54Zm2.52 0c0 3.38 1.36 5.28 3.66 5.28 2.32 0 3.68-1.9 3.68-5.28 0-3.46-1.36-5.36-3.68-5.36-2.3 0-3.66 1.9-3.66 5.36Zm18.992 7.28h-2.66l5.28-14.62h2.62l5.28 14.62h-2.7l-1.18-3.38h-5.46l-1.18 3.38Zm3.6-10.26-1.66 4.72h3.96l-1.68-4.72c-.12-.38-.26-.82-.3-1.12-.06.28-.18.72-.32 1.12Zm11.234 10.26h-2.48v-14.62h2.48l4.72 11.64 4.72-11.64h2.52v14.62h-2.48v-4.5c0-2.94 0-3.8.14-4.84l-3.72 9.34h-2.36l-3.7-9.32c.14.88.16 2.26.16 4.08v5.24Zm16.475.24c-.88 0-1.62-.72-1.62-1.58 0-.88.74-1.6 1.62-1.6.88 0 1.62.72 1.62 1.6 0 .86-.74 1.58-1.62 1.58Z" fill="black"/>
    <path d="M194.874 427.962c-1.597 0-2.963-.568-4.099-1.705-1.137-1.137-1.705-2.503-1.705-4.099s.568-2.962 1.705-4.099c1.136-1.136 2.502-1.705 4.099-1.705 1.596 0 2.962.569 4.098 1.705 1.137 1.137 1.705 2.503 1.705 4.099s-.568 2.962-1.705 4.099c-1.136 1.137-2.502 1.705-4.098 1.705Zm-11.608 11.607v-4.062c0-.822.212-1.578.636-2.267a4.24 4.24 0 0 1 1.686-1.578 21.458 21.458 0 0 1 4.57-1.686 20.006 20.006 0 0 1 9.431 0c1.548.376 3.071.938 4.57 1.686a4.232 4.232 0 0 1 1.688 1.578c.424.69.635 1.445.634 2.267v4.062h-23.215Z" fill="black"/>
  </g>
  <g opacity="0.89">
    <rect opacity="0.96" x="107.25" y="139.25" width="385.5" height="232.5" rx="11.75" fill="white" stroke="black" stroke-width="0.5"/>
    <path d="M193.88 264.551h-2.66l5.28-14.62h2.62l5.28 14.62h-2.7l-1.18-3.38h-5.46l-1.18 3.38Zm3.6-10.26-1.66 4.72h3.96l-1.68-4.72c-.12-.38-.26-.82-.3-1.12-.06.28-.18.72-.32 1.12Zm14.593.34v2.26h-.9c-1.76 0-2.86.94-2.86 2.86v4.8h-2.44v-9.86h2.3l.14 1.44c.42-.98 1.36-1.64 2.68-1.64.34 0 .68.04 1.08.14Zm4.201 10.18c-2.1 0-3.38-1.22-3.38-3.08 0-1.82 1.32-2.96 3.66-3.14l2.96-.22v-.22c0-1.34-.8-1.88-2.04-1.88-1.44 0-2.24.6-2.24 1.64h-2.08c0-2.14 1.76-3.54 4.44-3.54 2.66 0 4.3 1.44 4.3 4.18v6h-2.14l-.18-1.46c-.42 1.02-1.76 1.72-3.3 1.72Zm.8-1.84c1.5 0 2.46-.9 2.46-2.42v-.52l-2.06.16c-1.52.14-2.1.64-2.1 1.44 0 .9.6 1.34 1.7 1.34Zm6.657-3.58c0-2.88 1.88-5.04 4.7-5.04 1.48 0 2.64.62 3.22 1.68l.14-1.36h2.26v9.38c0 3.3-1.98 5.36-5.18 5.36-2.84 0-4.78-1.62-5.08-4.26h2.44c.16 1.28 1.14 2.04 2.64 2.04 1.68 0 2.76-1.06 2.76-2.7v-1.64c-.62.92-1.84 1.5-3.26 1.5-2.8 0-4.64-2.1-4.64-4.96Zm2.46-.06c0 1.66 1.06 2.9 2.66 2.9 1.68 0 2.72-1.18 2.72-2.9 0-1.68-1.02-2.84-2.72-2.84-1.62 0-2.66 1.22-2.66 2.84Zm9.805.26c0-3.08 2.22-5.2 5.28-5.2s5.28 2.12 5.28 5.2-2.22 5.2-5.28 5.2-5.28-2.12-5.28-5.2Zm2.44 0c0 1.8 1.16 3.02 2.84 3.02s2.84-1.22 2.84-3.02-1.16-3.02-2.84-3.02-2.84 1.22-2.84 3.02Zm16.254-4.96v2.26h-.9c-1.76 0-2.86.94-2.86 2.86v4.8h-2.44v-9.86h2.3l.14 1.44c.42-.98 1.36-1.64 2.68-1.64.34 0 .68.04 1.08.14Zm4.092 9.92h-2.44v-9.88h2.26l.2 1.28c.62-1 1.82-1.58 3.16-1.58 2.48 0 3.76 1.54 3.76 4.1v6.08h-2.44v-5.5c0-1.66-.82-2.46-2.08-2.46-1.5 0-2.42 1.04-2.42 2.64v5.32Zm17.168 0h-2.44v-14.88h2.46v6.28c.62-.96 1.78-1.58 3.2-1.58 2.44 0 3.72 1.54 3.72 4.1v6.08h-2.44v-5.5c0-1.66-.82-2.46-2.06-2.46-1.54 0-2.44 1.08-2.44 2.56v5.4Zm12.277.26c-2.1 0-3.38-1.22-3.38-3.08 0-1.82 1.32-2.96 3.66-3.14l2.96-.22v-.22c0-1.34-.8-1.88-2.04-1.88-1.44 0-2.24.6-2.24 1.64h-2.08c0-2.14 1.76-3.54 4.44-3.54 2.66 0 4.3 1.44 4.3 4.18v6h-2.14l-.18-1.46c-.42 1.02-1.76 1.72-3.3 1.72Zm.8-1.84c1.5 0 2.46-.9 2.46-2.42v-.52l-2.06.16c-1.52.14-2.1.64-2.1 1.44 0 .9.6 1.34 1.7 1.34Zm6.457-1.42h2.32c.02.86.66 1.4 1.78 1.4 1.14 0 1.76-.46 1.76-1.18 0-.5-.26-.86-1.14-1.06l-1.78-.42c-1.78-.4-2.64-1.24-2.64-2.82 0-1.94 1.64-3.1 3.92-3.1 2.22 0 3.72 1.28 3.74 3.2h-2.32c-.02-.84-.58-1.38-1.52-1.38-.96 0-1.52.44-1.52 1.18 0 .56.44.92 1.28 1.12l1.78.42c1.66.38 2.5 1.14 2.5 2.66 0 2-1.7 3.24-4.14 3.24-2.46 0-4.02-1.32-4.02-3.26Zm14.829-1.96c0-3.06 2.02-5.22 4.94-5.22 2.7 0 4.54 1.5 4.8 3.88h-2.44c-.28-1.12-1.1-1.7-2.26-1.7-1.56 0-2.6 1.18-2.6 3.04s.96 3.02 2.52 3.02c1.22 0 2.08-.6 2.34-1.68h2.46c-.3 2.3-2.22 3.88-4.8 3.88-3 0-4.96-2.08-4.96-5.22Zm14.036 4.96h-2.42v-14.88h2.42v14.88Zm5.499.26c-2.1 0-3.38-1.22-3.38-3.08 0-1.82 1.32-2.96 3.66-3.14l2.96-.22v-.22c0-1.34-.8-1.88-2.04-1.88-1.44 0-2.24.6-2.24 1.64h-2.08c0-2.14 1.76-3.54 4.44-3.54 2.66 0 4.3 1.44 4.3 4.18v6h-2.14l-.18-1.46c-.42 1.02-1.76 1.72-3.3 1.72Zm.8-1.84c1.5 0 2.46-.9 2.46-2.42v-.52l-2.06.16c-1.52.14-2.1.64-2.1 1.44 0 .9.6 1.34 1.7 1.34Zm8.437-10.28c-.84 0-1.5-.66-1.5-1.48s.66-1.46 1.5-1.46c.8 0 1.46.64 1.46 1.46s-.66 1.48-1.46 1.48Zm-1.22 11.86v-9.88h2.44v9.88h-2.44Zm7.401 0h-2.44v-9.88h2.24l.2 1.16c.5-.82 1.5-1.46 2.92-1.46 1.5 0 2.54.74 3.06 1.88.5-1.14 1.66-1.88 3.16-1.88 2.4 0 3.72 1.44 3.72 3.72v6.46h-2.42v-5.82c0-1.42-.76-2.16-1.92-2.16-1.18 0-2.08.76-2.08 2.38v5.6h-2.44v-5.84c0-1.38-.74-2.12-1.9-2.12s-2.1.76-2.1 2.36v5.6Zm19.676.26c-2.94 0-5-2.14-5-5.2 0-3.1 2.02-5.24 4.92-5.24 2.96 0 4.84 1.98 4.84 5.06v.74l-7.44.02c.18 1.74 1.1 2.62 2.72 2.62 1.34 0 2.22-.52 2.5-1.46h2.26c-.42 2.16-2.22 3.46-4.8 3.46Zm-.06-8.44c-1.44 0-2.32.78-2.56 2.26h4.96c0-1.36-.94-2.26-2.4-2.26Zm10.833 8.44c-2.86 0-4.64-2.1-4.64-5.16 0-3.08 1.8-5.28 4.78-5.28 1.38 0 2.6.58 3.22 1.56v-6.26h2.42v14.88h-2.24l-.16-1.54c-.6 1.14-1.88 1.8-3.38 1.8Zm.54-2.24c1.7 0 2.8-1.22 2.8-3s-1.1-3.02-2.8-3.02c-1.7 0-2.74 1.26-2.74 3.02s1.04 3 2.74 3Zm16.113 2.24c-2.1 0-3.38-1.22-3.38-3.08 0-1.82 1.32-2.96 3.66-3.14l2.96-.22v-.22c0-1.34-.8-1.88-2.04-1.88-1.44 0-2.24.6-2.24 1.64h-2.08c0-2.14 1.76-3.54 4.44-3.54 2.66 0 4.3 1.44 4.3 4.18v6h-2.14l-.18-1.46c-.42 1.02-1.76 1.72-3.3 1.72Zm.8-1.84c1.5 0 2.46-.9 2.46-2.42v-.52l-2.06.16c-1.52.14-2.1.64-2.1 1.44 0 .9.6 1.34 1.7 1.34Zm-198.728 31.58-3.2-9.88h2.54l1.3 4.24c.22.78.42 1.64.6 2.56.18-.96.36-1.58.68-2.56l1.36-4.24h2.48l1.32 4.24c.12.4.52 1.88.64 2.54.16-.74.48-1.92.66-2.54l1.32-4.24h2.58l-3.42 9.88h-2.28l-1.36-4.28c-.4-1.3-.62-2.24-.7-2.74-.1.46-.28 1.16-.78 2.78l-1.36 4.24h-2.38Zm16.209.26c-2.1 0-3.38-1.22-3.38-3.08 0-1.82 1.32-2.96 3.66-3.14l2.96-.22v-.22c0-1.34-.8-1.88-2.04-1.88-1.44 0-2.24.6-2.24 1.64h-2.08c0-2.14 1.76-3.54 4.44-3.54 2.66 0 4.3 1.44 4.3 4.18v6h-2.14l-.18-1.46c-.42 1.02-1.76 1.72-3.3 1.72Zm.8-1.84c1.5 0 2.46-.9 2.46-2.42v-.52l-2.06.16c-1.52.14-2.1.64-2.1 1.44 0 .9.6 1.34 1.7 1.34Zm8.437-10.28c-.84 0-1.5-.66-1.5-1.48s.66-1.46 1.5-1.46c.8 0 1.46.64 1.46 1.46s-.66 1.48-1.46 1.48Zm-1.22 11.86v-9.88h2.44v9.88h-2.44Zm8.321 0h-2.44v-7.84h-1.9v-2.04h1.9v-3.08h2.44v3.08h1.92v2.04h-1.92v7.84Zm5.897 0h-2.42v-14.88h2.42v14.88Zm3.78-11.86c-.84 0-1.5-.66-1.5-1.48s.66-1.46 1.5-1.46c.8 0 1.46.64 1.46 1.46s-.66 1.48-1.46 1.48Zm-1.22 11.86v-9.88h2.44v9.88h-2.44Zm4.201-3h2.32c.02.86.66 1.4 1.78 1.4 1.14 0 1.76-.46 1.76-1.18 0-.5-.26-.86-1.14-1.06l-1.78-.42c-1.78-.4-2.64-1.24-2.64-2.82 0-1.94 1.64-3.1 3.92-3.1 2.22 0 3.72 1.28 3.74 3.2h-2.32c-.02-.84-.58-1.38-1.52-1.38-.96 0-1.52.44-1.52 1.18 0 .56.44.92 1.28 1.12l1.78.42c1.66.38 2.5 1.14 2.5 2.66 0 2-1.7 3.24-4.14 3.24-2.46 0-4.02-1.32-4.02-3.26Zm13.377 3h-2.44v-7.84h-1.9v-2.04h1.9v-3.08h2.44v3.08h1.92v2.04h-1.92v7.84Zm11.768.26c-2.1 0-3.38-1.22-3.38-3.08 0-1.82 1.32-2.96 3.66-3.14l2.96-.22v-.22c0-1.34-.8-1.88-2.04-1.88-1.44 0-2.24.6-2.24 1.64h-2.08c0-2.14 1.76-3.54 4.44-3.54 2.66 0 4.3 1.44 4.3 4.18v6h-2.14l-.18-1.46c-.42 1.02-1.76 1.72-3.3 1.72Zm.8-1.84c1.5 0 2.46-.9 2.46-2.42v-.52l-2.06.16c-1.52.14-2.1.64-2.1 1.44 0 .9.6 1.34 1.7 1.34Zm7.217 6.16v-14.46h2.26l.16 1.5c.6-1.14 1.9-1.8 3.4-1.8 2.78 0 4.62 2.02 4.62 5.12 0 3.08-1.68 5.32-4.62 5.32-1.48 0-2.76-.58-3.38-1.58v5.9h-2.44Zm2.46-9.52c0 1.78 1.1 3 2.78 3 1.72 0 2.74-1.24 2.74-3s-1.02-3.02-2.74-3.02c-1.68 0-2.78 1.24-2.78 3.02Zm9.923 9.52v-14.46h2.26l.16 1.5c.6-1.14 1.9-1.8 3.4-1.8 2.78 0 4.62 2.02 4.62 5.12 0 3.08-1.68 5.32-4.62 5.32-1.48 0-2.76-.58-3.38-1.58v5.9h-2.44Zm2.46-9.52c0 1.78 1.1 3 2.78 3 1.72 0 2.74-1.24 2.74-3s-1.02-3.02-2.74-3.02c-1.68 0-2.78 1.24-2.78 3.02Zm9.343-.02c0-3.08 2.22-5.2 5.28-5.2s5.28 2.12 5.28 5.2-2.22 5.2-5.28 5.2-5.28-2.12-5.28-5.2Zm2.44 0c0 1.8 1.16 3.02 2.84 3.02s2.84-1.22 2.84-3.02-1.16-3.02-2.84-3.02-2.84 1.22-2.84 3.02Zm11.274-6.9c-.84 0-1.5-.66-1.5-1.48s.66-1.46 1.5-1.46c.8 0 1.46.64 1.46 1.46s-.66 1.48-1.46 1.48Zm-1.22 11.86v-9.88h2.44v9.88h-2.44Zm7.401 0h-2.44v-9.88h2.26l.2 1.28c.62-1 1.82-1.58 3.16-1.58 2.48 0 3.76 1.54 3.76 4.1v6.08h-2.44v-5.5c0-1.66-.82-2.46-2.08-2.46-1.5 0-2.42 1.04-2.42 2.64v5.32Zm12.697 0h-2.44v-7.84h-1.9v-2.04h1.9v-3.08h2.44v3.08h1.92v2.04h-1.92v7.84Zm5.877 0h-2.44v-9.88h2.24l.2 1.16c.5-.82 1.5-1.46 2.92-1.46 1.5 0 2.54.74 3.06 1.88.5-1.14 1.66-1.88 3.16-1.88 2.4 0 3.72 1.44 3.72 3.72v6.46h-2.42v-5.82c0-1.42-.76-2.16-1.92-2.16-1.18 0-2.08.76-2.08 2.38v5.6h-2.44v-5.84c0-1.38-.74-2.12-1.9-2.12s-2.1.76-2.1 2.36v5.6Zm19.675.26c-2.94 0-5-2.14-5-5.2 0-3.1 2.02-5.24 4.92-5.24 2.96 0 4.84 1.98 4.84 5.06v.74l-7.44.02c.18 1.74 1.1 2.62 2.72 2.62 1.34 0 2.22-.52 2.5-1.46h2.26c-.42 2.16-2.22 3.46-4.8 3.46Zm-.06-8.44c-1.44 0-2.32.78-2.56 2.26h4.96c0-1.36-.94-2.26-2.4-2.26Zm9.213 8.18h-2.44v-9.88h2.26l.2 1.28c.62-1 1.82-1.58 3.16-1.58 2.48 0 3.76 1.54 3.76 4.1v6.08h-2.44v-5.5c0-1.66-.82-2.46-2.08-2.46-1.5 0-2.42 1.04-2.42 2.64v5.32Zm12.697 0h-2.44v-7.84h-1.9v-2.04h1.9v-3.08h2.44v3.08h1.92v2.04h-1.92v7.84Zm7.848-9.88h1.42v-1.2c0-2.68 1.42-3.8 3.56-3.8.38 0 .84.02 1.26.1v2.08h-.86c-1.24 0-1.54.64-1.54 1.62v1.2h2.36v2.04h-2.36v7.84h-2.42v-7.84h-1.42v-2.04Zm6.884 4.92c0-3.08 2.22-5.2 5.28-5.2s5.28 2.12 5.28 5.2-2.22 5.2-5.28 5.2-5.28-2.12-5.28-5.2Zm2.44 0c0 1.8 1.16 3.02 2.84 3.02s2.84-1.22 2.84-3.02-1.16-3.02-2.84-3.02-2.84 1.22-2.84 3.02Zm16.254-4.96v2.26h-.9c-1.76 0-2.86.94-2.86 2.86v4.8h-2.44v-9.86h2.3l.14 1.44c.42-.98 1.36-1.64 2.68-1.64.34 0 .68.04 1.08.14ZM195.1 324.551h-2.48v-14.62h2.48l4.72 11.64 4.72-11.64h2.52v14.62h-2.48v-4.5c0-2.94 0-3.8.14-4.84l-3.72 9.34h-2.36l-3.7-9.32c.14.88.16 2.26.16 4.08v5.24Zm14.256-4.96c0-3.08 2.22-5.2 5.28-5.2s5.28 2.12 5.28 5.2-2.22 5.2-5.28 5.2-5.28-2.12-5.28-5.2Zm2.44 0c0 1.8 1.16 3.02 2.84 3.02s2.84-1.22 2.84-3.02-1.16-3.02-2.84-3.02-2.84 1.22-2.84 3.02Zm12.494 4.96h-2.44v-9.88h2.26l.2 1.28c.62-1 1.82-1.58 3.16-1.58 2.48 0 3.76 1.54 3.76 4.1v6.08h-2.44v-5.5c0-1.66-.82-2.46-2.08-2.46-1.5 0-2.42 1.04-2.42 2.64v5.32Zm13.397.26c-2.86 0-4.64-2.1-4.64-5.16 0-3.08 1.8-5.28 4.78-5.28 1.38 0 2.6.58 3.22 1.56v-6.26h2.42v14.88h-2.24l-.16-1.54c-.6 1.14-1.88 1.8-3.38 1.8Zm.54-2.24c1.7 0 2.8-1.22 2.8-3s-1.1-3.02-2.8-3.02c-1.7 0-2.74 1.26-2.74 3.02s1.04 3 2.74 3Zm10.723 2.24c-2.1 0-3.38-1.22-3.38-3.08 0-1.82 1.32-2.96 3.66-3.14l2.96-.22v-.22c0-1.34-.8-1.88-2.04-1.88-1.44 0-2.24.6-2.24 1.64h-2.08c0-2.14 1.76-3.54 4.44-3.54 2.66 0 4.3 1.44 4.3 4.18v6h-2.14l-.18-1.46c-.42 1.02-1.76 1.72-3.3 1.72Zm.8-1.84c1.5 0 2.46-.9 2.46-2.42v-.52l-2.06.16c-1.52.14-2.1.64-2.1 1.44 0 .9.6 1.34 1.7 1.34Zm6.084 6.16v-2.04h1.46c.96 0 1.56-.22 1.98-1.38l.28-.74-3.98-10.3h2.58l2.54 7.2 2.68-7.2h2.52l-4.84 12.08c-.74 1.84-1.78 2.6-3.4 2.6-.68 0-1.28-.08-1.82-.22Zm12.889-5.46c0 1.66-1.2 2.98-2.82 3.18v-.98c.9-.16 1.58-.7 1.58-1.4-.16.08-.34.12-.58.12-.78 0-1.42-.58-1.42-1.38 0-.96.62-1.6 1.52-1.6 1 0 1.72.82 1.72 2.06Zm11.871-6.36h-1.78v-1.66l3.76-3.46h-6.08v-2.26h9.28v2.04l-3.56 3.28c2.24.44 3.98 2.08 3.98 4.66 0 3-2.34 4.9-5.3 4.9-2.86 0-5.08-1.76-5.08-4.92h2.52c0 1.68 1.04 2.64 2.6 2.64 1.6 0 2.66-1.04 2.66-2.66 0-1.48-.96-2.56-3-2.56Zm9.307.2c-.88 0-1.62-.72-1.62-1.58 0-.88.74-1.6 1.62-1.6.88 0 1.62.72 1.62 1.6 0 .86-.74 1.58-1.62 1.58Zm0 7.28c-.88 0-1.62-.72-1.62-1.58 0-.88.74-1.6 1.62-1.6.88 0 1.62.72 1.62 1.6 0 .86-.74 1.58-1.62 1.58Zm14.171-.26-10.14.02v-1.92l4.78-4.04c1.98-1.68 2.64-2.64 2.64-4.04 0-1.66-.9-2.6-2.44-2.6-1.6 0-2.6 1.12-2.62 3h-2.54c.02-3.2 2.06-5.28 5.16-5.28 3.12 0 5.06 1.78 5.06 4.74 0 2.04-1.12 3.58-3.34 5.48l-2.64 2.26h6.08v2.38Zm1.577-7.26c0-4.54 2.44-7.62 6.18-7.62 3.74 0 6.2 3.08 6.2 7.62 0 4.52-2.32 7.54-6.2 7.54-3.88 0-6.18-3.02-6.18-7.54Zm2.52 0c0 3.38 1.36 5.28 3.66 5.28 2.32 0 3.68-1.9 3.68-5.28 0-3.46-1.36-5.36-3.68-5.36-2.3 0-3.66 1.9-3.66 5.36Zm23.512 2.24h-3.22v5.04h-2.56v-14.62h5.78c2.94 0 4.84 1.92 4.84 4.78 0 2.82-1.92 4.8-4.84 4.8Zm-.5-7.3h-2.72v5.02h2.68c1.76 0 2.7-.94 2.7-2.54s-.96-2.48-2.66-2.48Zm9.974 12.34h-2.48v-14.62h2.48l4.72 11.64 4.72-11.64h2.52v14.62h-2.48v-4.5c0-2.94 0-3.8.14-4.84l-3.72 9.34h-2.36l-3.7-9.32c.14.88.16 2.26.16 4.08v5.24Zm16.475.24c-.88 0-1.62-.72-1.62-1.58 0-.88.74-1.6 1.62-1.6.88 0 1.62.72 1.62 1.6 0 .86-.74 1.58-1.62 1.58Z" fill="black"/>
    <path d="M150.874 276.962c-1.597 0-2.963-.568-4.099-1.705-1.137-1.137-1.705-2.503-1.705-4.099s.568-2.962 1.705-4.099c1.136-1.136 2.502-1.705 4.099-1.705 1.596 0 2.962.569 4.098 1.705 1.137 1.137 1.705 2.503 1.705 4.099s-.568 2.962-1.705 4.099c-1.136 1.137-2.502 1.705-4.098 1.705Zm-11.608 11.607v-4.062c0-.822.212-1.578.636-2.267a4.24 4.24 0 0 1 1.686-1.578 21.458 21.458 0 0 1 4.57-1.686 20.006 20.006 0 0 1 9.431 0c1.548.376 3.071.938 4.57 1.686a4.232 4.232 0 0 1 1.688 1.578c.424.69.635 1.445.634 2.267v4.062h-23.215Z" fill="black"/>
  </g>
  <g opacity="0.89">
    <rect opacity="0.96" x="63.25" y="0.25" width="385.5" height="232.5" rx="11.75" fill="white" stroke="black" stroke-width="0.5"/>
    <path d="m92.495 44.55-3.27-10.964h1.995l1.74 5.79c.165.6.33 1.215.495 2.175.18-.975.345-1.545.54-2.175l1.725-5.79h2.115l1.695 5.79c.18.615.345 1.245.525 2.175.21-1.02.36-1.605.525-2.16l1.77-5.805h1.95l-3.33 10.965h-1.86l-2.34-7.98-2.385 7.98h-1.89Zm14.069.196c-1.575 0-2.535-.915-2.535-2.31 0-1.365.99-2.22 2.745-2.355l2.22-.165v-.165c0-1.005-.6-1.41-1.53-1.41-1.08 0-1.68.45-1.68 1.23h-1.56c0-1.605 1.32-2.655 3.33-2.655 1.995 0 3.225 1.08 3.225 3.135v4.5h-1.605l-.135-1.095c-.315.765-1.32 1.29-2.475 1.29Zm.6-1.38c1.125 0 1.845-.675 1.845-1.815v-.39l-1.545.12c-1.14.105-1.575.48-1.575 1.08 0 .675.45 1.005 1.275 1.005Zm6.328-7.71a1.11 1.11 0 0 1-1.125-1.11c0-.615.495-1.095 1.125-1.095.6 0 1.095.48 1.095 1.095s-.495 1.11-1.095 1.11Zm-.915 8.895v-7.41h1.83v7.41h-1.83Zm6.241 0h-1.83v-5.88h-1.425v-1.53h1.425v-2.31h1.83v2.31h1.44v1.53h-1.44v5.88Zm4.422 0h-1.815V33.39h1.815v11.16Zm2.835-8.895a1.11 1.11 0 0 1-1.125-1.11c0-.615.495-1.095 1.125-1.095.6 0 1.095.48 1.095 1.095s-.495 1.11-1.095 1.11Zm-.915 8.895v-7.41h1.83v7.41h-1.83Zm3.151-2.25h1.74c.015.645.495 1.05 1.335 1.05.855 0 1.32-.345 1.32-.885 0-.375-.195-.645-.855-.795l-1.335-.315c-1.335-.3-1.98-.93-1.98-2.115 0-1.455 1.23-2.325 2.94-2.325 1.665 0 2.79.96 2.805 2.4h-1.74c-.015-.63-.435-1.035-1.14-1.035-.72 0-1.14.33-1.14.885 0 .42.33.69.96.84l1.335.315c1.245.285 1.875.855 1.875 1.995 0 1.5-1.275 2.43-3.105 2.43-1.845 0-3.015-.99-3.015-2.445Zm10.033 2.25h-1.83v-5.88h-1.425v-1.53h1.425v-2.31h1.83v2.31h1.44v1.53h-1.44v5.88Zm11.226-3.78h-2.415v3.78h-1.92V33.586h4.335c2.205 0 3.63 1.44 3.63 3.585 0 2.115-1.44 3.6-3.63 3.6Zm-.375-5.475h-2.04v3.765h2.01c1.32 0 2.025-.705 2.025-1.905 0-1.2-.72-1.86-1.995-1.86Zm7.262 9.45c-1.575 0-2.535-.915-2.535-2.31 0-1.365.99-2.22 2.745-2.355l2.22-.165v-.165c0-1.005-.6-1.41-1.53-1.41-1.08 0-1.68.45-1.68 1.23h-1.56c0-1.605 1.32-2.655 3.33-2.655 1.995 0 3.225 1.08 3.225 3.135v4.5h-1.605l-.135-1.095c-.315.765-1.32 1.29-2.475 1.29Zm.6-1.38c1.125 0 1.845-.675 1.845-1.815v-.39l-1.545.12c-1.14.105-1.575.48-1.575 1.08 0 .675.45 1.005 1.275 1.005Zm7.83 1.185h-1.83v-5.88h-1.425v-1.53h1.425v-2.31h1.83v2.31h1.44v1.53h-1.44v5.88Zm3.493-8.895a1.11 1.11 0 0 1-1.125-1.11c0-.615.495-1.095 1.125-1.095.6 0 1.095.48 1.095 1.095s-.495 1.11-1.095 1.11Zm-.915 8.895v-7.41h1.83v7.41h-1.83Zm7.035.195c-2.205 0-3.75-1.605-3.75-3.9 0-2.325 1.515-3.93 3.69-3.93 2.22 0 3.63 1.485 3.63 3.795v.555l-5.58.015c.135 1.305.825 1.965 2.04 1.965 1.005 0 1.665-.39 1.875-1.095h1.695c-.315 1.62-1.665 2.595-3.6 2.595Zm-.045-6.33c-1.08 0-1.74.585-1.92 1.695h3.72c0-1.02-.705-1.695-1.8-1.695Zm6.91 6.135h-1.83v-7.41h1.695l.15.96c.465-.75 1.365-1.185 2.37-1.185 1.86 0 2.82 1.155 2.82 3.075v4.56h-1.83v-4.125c0-1.245-.615-1.845-1.56-1.845-1.125 0-1.815.78-1.815 1.98v3.99Zm9.523 0h-1.83v-5.88h-1.425v-1.53h1.425v-2.31h1.83v2.31h1.44v1.53h-1.44v5.88Zm2.008-2.25h1.74c.015.645.495 1.05 1.335 1.05.855 0 1.32-.345 1.32-.885 0-.375-.195-.645-.855-.795l-1.335-.315c-1.335-.3-1.98-.93-1.98-2.115 0-1.455 1.23-2.325 2.94-2.325 1.665 0 2.79.96 2.805 2.4h-1.74c-.015-.63-.435-1.035-1.14-1.035-.72 0-1.14.33-1.14.885 0 .42.33.69.96.84l1.335.315c1.245.285 1.875.855 1.875 1.995 0 1.5-1.275 2.43-3.105 2.43-1.845 0-3.015-.99-3.015-2.445Z" fill="black"/>
    <path d="M148.62 125.551v-14.62h5.82c2.88 0 4.64 1.5 4.64 3.94 0 1.62-.72 2.78-2.1 3.36 1.54.5 2.32 1.66 2.32 3.36 0 2.5-1.74 3.96-4.76 3.96h-5.92Zm5.6-12.36h-3.04v3.98h3.1c1.4 0 2.18-.74 2.18-2.04 0-1.26-.8-1.94-2.24-1.94Zm.22 6.14h-3.26v3.96h3.26c1.44 0 2.24-.7 2.24-2.02 0-1.24-.82-1.94-2.24-1.94Zm8.067-5.64c-.84 0-1.5-.66-1.5-1.48s.66-1.46 1.5-1.46c.8 0 1.46.64 1.46 1.46s-.66 1.48-1.46 1.48Zm-1.22 11.86v-9.88h2.44v9.88h-2.44Zm7.421 0h-2.42v-14.88h2.42v14.88Zm4.82 0h-2.26v-14.88h2.44v6.44c.64-1.1 1.96-1.76 3.46-1.76 2.82 0 4.54 2.2 4.54 5.32 0 3.04-1.86 5.14-4.7 5.14-1.48 0-2.74-.66-3.32-1.8l-.16 1.54Zm.2-4.98c0 1.78 1.1 3 2.78 3 1.72 0 2.74-1.24 2.74-3s-1.02-3.02-2.74-3.02c-1.68 0-2.78 1.24-2.78 3.02Zm9.343.02c0-3.08 2.22-5.2 5.28-5.2s5.28 2.12 5.28 5.2-2.22 5.2-5.28 5.2-5.28-2.12-5.28-5.2Zm2.44 0c0 1.8 1.16 3.02 2.84 3.02s2.84-1.22 2.84-3.02-1.16-3.02-2.84-3.02-2.84 1.22-2.84 3.02Zm15.804 4.96v-14.62h5.82c2.88 0 4.64 1.5 4.64 3.94 0 1.62-.72 2.78-2.1 3.36 1.54.5 2.32 1.66 2.32 3.36 0 2.5-1.74 3.96-4.76 3.96h-5.92Zm5.6-12.36h-3.04v3.98h3.1c1.4 0 2.18-.74 2.18-2.04 0-1.26-.8-1.94-2.24-1.94Zm.22 6.14h-3.26v3.96h3.26c1.44 0 2.24-.7 2.24-2.02 0-1.24-.82-1.94-2.24-1.94Zm9.788 6.48c-2.1 0-3.38-1.22-3.38-3.08 0-1.82 1.32-2.96 3.66-3.14l2.96-.22v-.22c0-1.34-.8-1.88-2.04-1.88-1.44 0-2.24.6-2.24 1.64h-2.08c0-2.14 1.76-3.54 4.44-3.54 2.66 0 4.3 1.44 4.3 4.18v6h-2.14l-.18-1.46c-.42 1.02-1.76 1.72-3.3 1.72Zm.8-1.84c1.5 0 2.46-.9 2.46-2.42v-.52l-2.06.16c-1.52.14-2.1.64-2.1 1.44 0 .9.6 1.34 1.7 1.34Zm6.657-3.58c0-2.88 1.88-5.04 4.7-5.04 1.48 0 2.64.62 3.22 1.68l.14-1.36h2.26v9.38c0 3.3-1.98 5.36-5.18 5.36-2.84 0-4.78-1.62-5.08-4.26h2.44c.16 1.28 1.14 2.04 2.64 2.04 1.68 0 2.76-1.06 2.76-2.7v-1.64c-.62.92-1.84 1.5-3.26 1.5-2.8 0-4.64-2.1-4.64-4.96Zm2.46-.06c0 1.66 1.06 2.9 2.66 2.9 1.68 0 2.72-1.18 2.72-2.9 0-1.68-1.02-2.84-2.72-2.84-1.62 0-2.66 1.22-2.66 2.84Zm9.825.06c0-2.88 1.88-5.04 4.7-5.04 1.48 0 2.64.62 3.22 1.68l.14-1.36h2.26v9.38c0 3.3-1.98 5.36-5.18 5.36-2.84 0-4.78-1.62-5.08-4.26h2.44c.16 1.28 1.14 2.04 2.64 2.04 1.68 0 2.76-1.06 2.76-2.7v-1.64c-.62.92-1.84 1.5-3.26 1.5-2.8 0-4.64-2.1-4.64-4.96Zm2.46-.06c0 1.66 1.06 2.9 2.66 2.9 1.68 0 2.72-1.18 2.72-2.9 0-1.68-1.02-2.84-2.72-2.84-1.62 0-2.66 1.22-2.66 2.84Zm11.605-6.64c-.84 0-1.5-.66-1.5-1.48s.66-1.46 1.5-1.46c.8 0 1.46.64 1.46 1.46s-.66 1.48-1.46 1.48Zm-1.22 11.86v-9.88h2.44v9.88h-2.44Zm7.401 0h-2.44v-9.88h2.26l.2 1.28c.62-1 1.82-1.58 3.16-1.58 2.48 0 3.76 1.54 3.76 4.1v6.08h-2.44v-5.5c0-1.66-.82-2.46-2.08-2.46-1.5 0-2.42 1.04-2.42 2.64v5.32Zm8.46-3h2.32c.02.86.66 1.4 1.78 1.4 1.14 0 1.76-.46 1.76-1.18 0-.5-.26-.86-1.14-1.06l-1.78-.42c-1.78-.4-2.64-1.24-2.64-2.82 0-1.94 1.64-3.1 3.92-3.1 2.22 0 3.72 1.28 3.74 3.2h-2.32c-.02-.84-.58-1.38-1.52-1.38-.96 0-1.52.44-1.52 1.18 0 .56.44.92 1.28 1.12l1.78.42c1.66.38 2.5 1.14 2.5 2.66 0 2-1.7 3.24-4.14 3.24-2.46 0-4.02-1.32-4.02-3.26Zm17.849 3h-2.44v-14.88h2.46v6.28c.62-.96 1.78-1.58 3.2-1.58 2.44 0 3.72 1.54 3.72 4.1v6.08h-2.44v-5.5c0-1.66-.82-2.46-2.06-2.46-1.54 0-2.44 1.08-2.44 2.56v5.4Zm12.277.26c-2.1 0-3.38-1.22-3.38-3.08 0-1.82 1.32-2.96 3.66-3.14l2.96-.22v-.22c0-1.34-.8-1.88-2.04-1.88-1.44 0-2.24.6-2.24 1.64h-2.08c0-2.14 1.76-3.54 4.44-3.54 2.66 0 4.3 1.44 4.3 4.18v6h-2.14l-.18-1.46c-.42 1.02-1.76 1.72-3.3 1.72Zm.8-1.84c1.5 0 2.46-.9 2.46-2.42v-.52l-2.06.16c-1.52.14-2.1.64-2.1 1.44 0 .9.6 1.34 1.7 1.34Zm6.457-1.42h2.32c.02.86.66 1.4 1.78 1.4 1.14 0 1.76-.46 1.76-1.18 0-.5-.26-.86-1.14-1.06l-1.78-.42c-1.78-.4-2.64-1.24-2.64-2.82 0-1.94 1.64-3.1 3.92-3.1 2.22 0 3.72 1.28 3.74 3.2h-2.32c-.02-.84-.58-1.38-1.52-1.38-.96 0-1.52.44-1.52 1.18 0 .56.44.92 1.28 1.12l1.78.42c1.66.38 2.5 1.14 2.5 2.66 0 2-1.7 3.24-4.14 3.24-2.46 0-4.02-1.32-4.02-3.26Zm14.828-1.96c0-3.06 2.02-5.22 4.94-5.22 2.7 0 4.54 1.5 4.8 3.88h-2.44c-.28-1.12-1.1-1.7-2.26-1.7-1.56 0-2.6 1.18-2.6 3.04s.96 3.02 2.52 3.02c1.22 0 2.08-.6 2.34-1.68h2.46c-.3 2.3-2.22 3.88-4.8 3.88-3 0-4.96-2.08-4.96-5.22Zm14.036 4.96h-2.42v-14.88h2.42v14.88Zm5.5.26c-2.1 0-3.38-1.22-3.38-3.08 0-1.82 1.32-2.96 3.66-3.14l2.96-.22v-.22c0-1.34-.8-1.88-2.04-1.88-1.44 0-2.24.6-2.24 1.64h-2.08c0-2.14 1.76-3.54 4.44-3.54 2.66 0 4.3 1.44 4.3 4.18v6h-2.14l-.18-1.46c-.42 1.02-1.76 1.72-3.3 1.72Zm.8-1.84c1.5 0 2.46-.9 2.46-2.42v-.52l-2.06.16c-1.52.14-2.1.64-2.1 1.44 0 .9.6 1.34 1.7 1.34Zm8.437-10.28c-.84 0-1.5-.66-1.5-1.48s.66-1.46 1.5-1.46c.8 0 1.46.64 1.46 1.46s-.66 1.48-1.46 1.48Zm-1.22 11.86v-9.88h2.44v9.88h-2.44Zm7.401 0h-2.44v-9.88h2.24l.2 1.16c.5-.82 1.5-1.46 2.92-1.46 1.5 0 2.54.74 3.06 1.88.5-1.14 1.66-1.88 3.16-1.88 2.4 0 3.72 1.44 3.72 3.72v6.46h-2.42v-5.82c0-1.42-.76-2.16-1.92-2.16-1.18 0-2.08.76-2.08 2.38v5.6h-2.44v-5.84c0-1.38-.74-2.12-1.9-2.12s-2.1.76-2.1 2.36v5.6Zm19.675.26c-2.94 0-5-2.14-5-5.2 0-3.1 2.02-5.24 4.92-5.24 2.96 0 4.84 1.98 4.84 5.06v.74l-7.44.02c.18 1.74 1.1 2.62 2.72 2.62 1.34 0 2.22-.52 2.5-1.46h2.26c-.42 2.16-2.22 3.46-4.8 3.46Zm-.06-8.44c-1.44 0-2.32.78-2.56 2.26h4.96c0-1.36-.94-2.26-2.4-2.26Zm10.833 8.44c-2.86 0-4.64-2.1-4.64-5.16 0-3.08 1.8-5.28 4.78-5.28 1.38 0 2.6.58 3.22 1.56v-6.26h2.42v14.88h-2.24l-.16-1.54c-.6 1.14-1.88 1.8-3.38 1.8Zm.54-2.24c1.7 0 2.8-1.22 2.8-3s-1.1-3.02-2.8-3.02c-1.7 0-2.74 1.26-2.74 3.02s1.04 3 2.74 3ZM151.2 155.811c-2.1 0-3.38-1.22-3.38-3.08 0-1.82 1.32-2.96 3.66-3.14l2.96-.22v-.22c0-1.34-.8-1.88-2.04-1.88-1.44 0-2.24.6-2.24 1.64h-2.08c0-2.14 1.76-3.54 4.44-3.54 2.66 0 4.3 1.44 4.3 4.18v6h-2.14l-.18-1.46c-.42 1.02-1.76 1.72-3.3 1.72Zm.8-1.84c1.5 0 2.46-.9 2.46-2.42v-.52l-2.06.16c-1.52.14-2.1.64-2.1 1.44 0 .9.6 1.34 1.7 1.34Zm14.788 1.58-3.2-9.88h2.54l1.3 4.24c.22.78.42 1.64.6 2.56.18-.96.36-1.58.68-2.56l1.36-4.24h2.48l1.32 4.24c.12.4.52 1.88.64 2.54.16-.74.48-1.92.66-2.54l1.32-4.24h2.58l-3.42 9.88h-2.28l-1.36-4.28c-.4-1.3-.62-2.24-.7-2.74-.1.46-.28 1.16-.78 2.78l-1.36 4.24h-2.38Zm16.209.26c-2.1 0-3.38-1.22-3.38-3.08 0-1.82 1.32-2.96 3.66-3.14l2.96-.22v-.22c0-1.34-.8-1.88-2.04-1.88-1.44 0-2.24.6-2.24 1.64h-2.08c0-2.14 1.76-3.54 4.44-3.54 2.66 0 4.3 1.44 4.3 4.18v6h-2.14l-.18-1.46c-.42 1.02-1.76 1.72-3.3 1.72Zm.8-1.84c1.5 0 2.46-.9 2.46-2.42v-.52l-2.06.16c-1.52.14-2.1.64-2.1 1.44 0 .9.6 1.34 1.7 1.34Zm8.437-10.28c-.84 0-1.5-.66-1.5-1.48s.66-1.46 1.5-1.46c.8 0 1.46.64 1.46 1.46s-.66 1.48-1.46 1.48Zm-1.22 11.86v-9.88h2.44v9.88h-2.44Zm8.321 0h-2.44v-7.84h-1.9v-2.04h1.9v-3.08h2.44v3.08h1.92v2.04h-1.92v7.84Zm5.897 0h-2.42v-14.88h2.42v14.88Zm3.779-11.86c-.84 0-1.5-.66-1.5-1.48s.66-1.46 1.5-1.46c.8 0 1.46.64 1.46 1.46s-.66 1.48-1.46 1.48Zm-1.22 11.86v-9.88h2.44v9.88h-2.44Zm4.201-3h2.32c.02.86.66 1.4 1.78 1.4 1.14 0 1.76-.46 1.76-1.18 0-.5-.26-.86-1.14-1.06l-1.78-.42c-1.78-.4-2.64-1.24-2.64-2.82 0-1.94 1.64-3.1 3.92-3.1 2.22 0 3.72 1.28 3.74 3.2h-2.32c-.02-.84-.58-1.38-1.52-1.38-.96 0-1.52.44-1.52 1.18 0 .56.44.92 1.28 1.12l1.78.42c1.66.38 2.5 1.14 2.5 2.66 0 2-1.7 3.24-4.14 3.24-2.46 0-4.02-1.32-4.02-3.26Zm13.378 3h-2.44v-7.84h-1.9v-2.04h1.9v-3.08h2.44v3.08h1.92v2.04h-1.92v7.84Zm11.768.26c-2.1 0-3.38-1.22-3.38-3.08 0-1.82 1.32-2.96 3.66-3.14l2.96-.22v-.22c0-1.34-.8-1.88-2.04-1.88-1.44 0-2.24.6-2.24 1.64h-2.08c0-2.14 1.76-3.54 4.44-3.54 2.66 0 4.3 1.44 4.3 4.18v6h-2.14l-.18-1.46c-.42 1.02-1.76 1.72-3.3 1.72Zm.8-1.84c1.5 0 2.46-.9 2.46-2.42v-.52l-2.06.16c-1.52.14-2.1.64-2.1 1.44 0 .9.6 1.34 1.7 1.34Zm7.217 6.16v-14.46h2.26l.16 1.5c.6-1.14 1.9-1.8 3.4-1.8 2.78 0 4.62 2.02 4.62 5.12 0 3.08-1.68 5.32-4.62 5.32-1.48 0-2.76-.58-3.38-1.58v5.9h-2.44Zm2.46-9.52c0 1.78 1.1 3 2.78 3 1.72 0 2.74-1.24 2.74-3s-1.02-3.02-2.74-3.02c-1.68 0-2.78 1.24-2.78 3.02Zm9.922 9.52v-14.46h2.26l.16 1.5c.6-1.14 1.9-1.8 3.4-1.8 2.78 0 4.62 2.02 4.62 5.12 0 3.08-1.68 5.32-4.62 5.32-1.48 0-2.76-.58-3.38-1.58v5.9h-2.44Zm2.46-9.52c0 1.78 1.1 3 2.78 3 1.72 0 2.74-1.24 2.74-3s-1.02-3.02-2.74-3.02c-1.68 0-2.78 1.24-2.78 3.02Zm9.343-.02c0-3.08 2.22-5.2 5.28-5.2s5.28 2.12 5.28 5.2-2.22 5.2-5.28 5.2-5.28-2.12-5.28-5.2Zm2.44 0c0 1.8 1.16 3.02 2.84 3.02s2.84-1.22 2.84-3.02-1.16-3.02-2.84-3.02-2.84 1.22-2.84 3.02Zm11.274-6.9c-.84 0-1.5-.66-1.5-1.48s.66-1.46 1.5-1.46c.8 0 1.46.64 1.46 1.46s-.66 1.48-1.46 1.48Zm-1.22 11.86v-9.88h2.44v9.88h-2.44Zm7.401 0h-2.44v-9.88h2.26l.2 1.28c.62-1 1.82-1.58 3.16-1.58 2.48 0 3.76 1.54 3.76 4.1v6.08h-2.44v-5.5c0-1.66-.82-2.46-2.08-2.46-1.5 0-2.42 1.04-2.42 2.64v5.32Zm12.698 0h-2.44v-7.84h-1.9v-2.04h1.9v-3.08h2.44v3.08h1.92v2.04h-1.92v7.84Zm5.876 0h-2.44v-9.88h2.24l.2 1.16c.5-.82 1.5-1.46 2.92-1.46 1.5 0 2.54.74 3.06 1.88.5-1.14 1.66-1.88 3.16-1.88 2.4 0 3.72 1.44 3.72 3.72v6.46h-2.42v-5.82c0-1.42-.76-2.16-1.92-2.16-1.18 0-2.08.76-2.08 2.38v5.6h-2.44v-5.84c0-1.38-.74-2.12-1.9-2.12s-2.1.76-2.1 2.36v5.6Zm19.676.26c-2.94 0-5-2.14-5-5.2 0-3.1 2.02-5.24 4.92-5.24 2.96 0 4.84 1.98 4.84 5.06v.74l-7.44.02c.18 1.74 1.1 2.62 2.72 2.62 1.34 0 2.22-.52 2.5-1.46h2.26c-.42 2.16-2.22 3.46-4.8 3.46Zm-.06-8.44c-1.44 0-2.32.78-2.56 2.26h4.96c0-1.36-.94-2.26-2.4-2.26Zm9.213 8.18h-2.44v-9.88h2.26l.2 1.28c.62-1 1.82-1.58 3.16-1.58 2.48 0 3.76 1.54 3.76 4.1v6.08h-2.44v-5.5c0-1.66-.82-2.46-2.08-2.46-1.5 0-2.42 1.04-2.42 2.64v5.32Zm12.697 0h-2.44v-7.84h-1.9v-2.04h1.9v-3.08h2.44v3.08h1.92v2.04h-1.92v7.84Zm7.847-9.88h1.42v-1.2c0-2.68 1.42-3.8 3.56-3.8.38 0 .84.02 1.26.1v2.08h-.86c-1.24 0-1.54.64-1.54 1.62v1.2h2.36v2.04h-2.36v7.84h-2.42v-7.84h-1.42v-2.04Zm6.885 4.92c0-3.08 2.22-5.2 5.28-5.2s5.28 2.12 5.28 5.2-2.22 5.2-5.28 5.2-5.28-2.12-5.28-5.2Zm2.44 0c0 1.8 1.16 3.02 2.84 3.02s2.84-1.22 2.84-3.02-1.16-3.02-2.84-3.02-2.84 1.22-2.84 3.02Zm16.254-4.96v2.26h-.9c-1.76 0-2.86.94-2.86 2.86v4.8h-2.44v-9.86h2.3l.14 1.44c.42-.98 1.36-1.64 2.68-1.64.34 0 .68.04 1.08.14Zm-231.141 39.92h-2.44v-7.84h-1.9v-2.04h1.9v-3.08h2.44v3.08h1.92v2.04h-1.92v7.84Zm2.759-4.96c0-3.08 2.22-5.2 5.28-5.2s5.28 2.12 5.28 5.2-2.22 5.2-5.28 5.2-5.28-2.12-5.28-5.2Zm2.44 0c0 1.8 1.16 3.02 2.84 3.02s2.84-1.22 2.84-3.02-1.16-3.02-2.84-3.02-2.84 1.22-2.84 3.02Zm12.494 4.96h-2.44v-9.88h2.24l.2 1.16c.5-.82 1.5-1.46 2.92-1.46 1.5 0 2.54.74 3.06 1.88.5-1.14 1.66-1.88 3.16-1.88 2.4 0 3.72 1.44 3.72 3.72v6.46h-2.42v-5.82c0-1.42-.76-2.16-1.92-2.16-1.18 0-2.08.76-2.08 2.38v5.6h-2.44v-5.84c0-1.38-.74-2.12-1.9-2.12s-2.1.76-2.1 2.36v5.6Zm14.676-4.96c0-3.08 2.22-5.2 5.28-5.2s5.28 2.12 5.28 5.2-2.22 5.2-5.28 5.2-5.28-2.12-5.28-5.2Zm2.44 0c0 1.8 1.16 3.02 2.84 3.02s2.84-1.22 2.84-3.02-1.16-3.02-2.84-3.02-2.84 1.22-2.84 3.02Zm16.254-4.96v2.26h-.9c-1.76 0-2.86.94-2.86 2.86v4.8h-2.44v-9.86h2.3l.14 1.44c.42-.98 1.36-1.64 2.68-1.64.34 0 .68.04 1.08.14Zm7.851 0v2.26h-.9c-1.76 0-2.86.94-2.86 2.86v4.8h-2.44v-9.86h2.3l.14 1.44c.42-.98 1.36-1.64 2.68-1.64.34 0 .68.04 1.08.14Zm.74 4.96c0-3.08 2.22-5.2 5.28-5.2s5.28 2.12 5.28 5.2-2.22 5.2-5.28 5.2-5.28-2.12-5.28-5.2Zm2.44 0c0 1.8 1.16 3.02 2.84 3.02s2.84-1.22 2.84-3.02-1.16-3.02-2.84-3.02-2.84 1.22-2.84 3.02Zm11.746 4.96-3.2-9.88h2.54l1.3 4.24c.22.78.42 1.64.6 2.56.18-.96.36-1.58.68-2.56l1.36-4.24h2.48l1.32 4.24c.12.4.52 1.88.64 2.54.16-.74.48-1.92.66-2.54l1.32-4.24h2.58l-3.42 9.88h-2.28l-1.36-4.28c-.4-1.3-.62-2.24-.7-2.74-.1.46-.28 1.16-.78 2.78l-1.36 4.24h-2.38Zm15.337-.88c0 1.66-1.2 2.98-2.82 3.18v-.98c.9-.16 1.58-.7 1.58-1.4-.16.08-.34.12-.58.12-.78 0-1.42-.58-1.42-1.38 0-.96.62-1.6 1.52-1.6 1 0 1.72.82 1.72 2.06Zm10.571-11.44h-3.2v-2.3h5.66v14.62h-2.46v-12.32Zm7.189 5.28c-.88 0-1.62-.72-1.62-1.58 0-.88.74-1.6 1.62-1.6.88 0 1.62.72 1.62 1.6 0 .86-.74 1.58-1.62 1.58Zm0 7.28c-.88 0-1.62-.72-1.62-1.58 0-.88.74-1.6 1.62-1.6.88 0 1.62.72 1.62 1.6 0 .86-.74 1.58-1.62 1.58Zm3.971-7.52c0-4.54 2.44-7.62 6.18-7.62 3.74 0 6.2 3.08 6.2 7.62 0 4.52-2.32 7.54-6.2 7.54-3.88 0-6.18-3.02-6.18-7.54Zm2.52 0c0 3.38 1.36 5.28 3.66 5.28 2.32 0 3.68-1.9 3.68-5.28 0-3.46-1.36-5.36-3.68-5.36-2.3 0-3.66 1.9-3.66 5.36Zm11.582 0c0-4.54 2.44-7.62 6.18-7.62 3.74 0 6.2 3.08 6.2 7.62 0 4.52-2.32 7.54-6.2 7.54-3.88 0-6.18-3.02-6.18-7.54Zm2.52 0c0 3.38 1.36 5.28 3.66 5.28 2.32 0 3.68-1.9 3.68-5.28 0-3.46-1.36-5.36-3.68-5.36-2.3 0-3.66 1.9-3.66 5.36Zm23.512 2.24h-3.22v5.04h-2.56v-14.62h5.78c2.94 0 4.84 1.92 4.84 4.78 0 2.82-1.92 4.8-4.84 4.8Zm-.5-7.3h-2.72v5.02h2.68c1.76 0 2.7-.94 2.7-2.54s-.96-2.48-2.66-2.48Zm9.973 12.34h-2.48v-14.62h2.48l4.72 11.64 4.72-11.64h2.52v14.62h-2.48v-4.5c0-2.94 0-3.8.14-4.84l-3.72 9.34h-2.36l-3.7-9.32c.14.88.16 2.26.16 4.08v5.24Zm16.476.24c-.88 0-1.62-.72-1.62-1.58 0-.88.74-1.6 1.62-1.6.88 0 1.62.72 1.62 1.6 0 .86-.74 1.58-1.62 1.58Z" fill="black"/>
    <path d="M92.364 67.745h315.818" stroke="black"/>
    <path d="M106.874 137.962c-1.597 0-2.963-.568-4.099-1.705-1.137-1.137-1.705-2.503-1.705-4.099s.568-2.962 1.705-4.099c1.136-1.136 2.502-1.705 4.099-1.705 1.596 0 2.962.569 4.098 1.705 1.137 1.137 1.705 2.503 1.705 4.099s-.568 2.962-1.705 4.099c-1.136 1.137-2.502 1.705-4.098 1.705Zm-11.608 11.607v-4.062c0-.822.212-1.578.636-2.267a4.25 4.25 0 0 1 1.686-1.578c1.499-.75 3.022-1.312 4.57-1.686a20.006 20.006 0 0 1 9.431 0c1.548.376 3.071.938 4.57 1.686a4.232 4.232 0 0 1 1.688 1.578c.424.69.635 1.445.634 2.267v4.062H95.266Z" fill="black"/>
  </g>
</svg>
