<svg width="600" height="438" viewBox="0 0 600 438" fill="none" xmlns="http://www.w3.org/2000/svg">
<rect opacity="0.96" x="158.5" y="0.5" width="315" height="437" rx="19.5" fill="white" stroke="black"/>
<rect opacity="0.96" x="110.25" y="156.25" width="321.5" height="245.5" rx="19.75" fill="white" stroke="black" stroke-width="0.5"/>
<rect opacity="0.96" x="262.25" y="31.25" width="262.5" height="72.5" rx="19.75" fill="white" stroke="black" stroke-width="0.5"/>
<path d="M205.455 130H204.78L206.46 119.35H210.3C211.995 119.35 213.09 120.4 213.09 122.035C213.09 123.685 211.995 124.96 210.285 125.305L211.875 130H211.17L209.61 125.38H206.19L205.455 130ZM207.045 119.98L206.28 124.75H209.475C211.26 124.75 212.4 123.7 212.4 122.035C212.4 120.745 211.59 119.98 210.21 119.98H207.045ZM216.182 130.18C214.442 130.18 213.197 128.845 213.197 126.985C213.197 124.525 214.847 122.62 216.977 122.62C218.882 122.62 220.037 124.075 219.737 125.935L219.662 126.4H213.887C213.872 126.595 213.857 126.79 213.857 126.985C213.857 128.53 214.802 129.58 216.182 129.58C217.337 129.58 218.357 128.965 218.732 127.945H219.407C218.927 129.355 217.667 130.18 216.182 130.18ZM216.977 123.22C215.552 123.22 214.382 124.315 213.992 125.86H219.077C219.332 124.27 218.432 123.22 216.977 123.22ZM221.957 130H221.312L222.362 123.37H220.937L221.027 122.8H222.452L222.812 120.52H223.457L223.097 122.8H224.522L224.432 123.37H223.007L221.957 130ZM229.314 122.695L229.224 123.265H228.699C227.439 123.265 226.389 124.24 226.179 125.59L225.474 130H224.829L225.969 122.8H226.524L226.404 124.075C226.764 123.205 227.649 122.62 228.654 122.62C228.879 122.62 229.104 122.65 229.314 122.695ZM231.419 120.58C231.119 120.58 230.894 120.355 230.894 120.07C230.894 119.68 231.209 119.335 231.584 119.335C231.884 119.335 232.109 119.56 232.109 119.845C232.109 120.235 231.794 120.58 231.419 120.58ZM229.604 130L230.744 122.8H231.389L230.249 130H229.604ZM235.489 130.18C233.749 130.18 232.504 128.845 232.504 126.985C232.504 124.525 234.154 122.62 236.284 122.62C238.189 122.62 239.344 124.075 239.044 125.935L238.969 126.4H233.194C233.179 126.595 233.164 126.79 233.164 126.985C233.164 128.53 234.109 129.58 235.489 129.58C236.644 129.58 237.664 128.965 238.039 127.945H238.714C238.234 129.355 236.974 130.18 235.489 130.18ZM236.284 123.22C234.859 123.22 233.689 124.315 233.299 125.86H238.384C238.639 124.27 237.739 123.22 236.284 123.22ZM241.749 130L239.964 122.8H240.624L241.899 128.095C241.989 128.44 242.064 128.74 242.154 129.325C242.349 128.935 242.499 128.635 242.799 128.095L245.769 122.8H246.474L242.409 130H241.749ZM248.441 120.58C248.141 120.58 247.916 120.355 247.916 120.07C247.916 119.68 248.231 119.335 248.606 119.335C248.906 119.335 249.131 119.56 249.131 119.845C249.131 120.235 248.816 120.58 248.441 120.58ZM246.626 130L247.766 122.8H248.411L247.271 130H246.626ZM250.2 130H249.555L250.695 122.8H251.205L251.115 124.24C251.79 123.16 252.675 122.62 253.845 122.62C255.51 122.62 256.44 123.805 256.155 125.62L255.465 130H254.82L255.495 125.755C255.765 124.09 255.15 123.22 253.77 123.22C252.225 123.22 251.085 124.42 250.785 126.295L250.2 130ZM257.656 126.775C257.656 124.45 259.336 122.62 261.496 122.62C262.756 122.62 263.671 123.28 263.971 124.39L264.346 122.8H264.901L263.791 129.85C263.446 132.01 262.201 133.195 260.236 133.195C258.466 133.195 257.266 132.16 257.206 130.585H257.866C257.926 131.815 258.841 132.595 260.236 132.595C261.826 132.595 262.861 131.62 263.146 129.85L263.461 127.915C262.801 129.085 261.736 129.73 260.491 129.73C258.796 129.73 257.656 128.545 257.656 126.775ZM258.316 126.775C258.316 128.2 259.171 129.13 260.491 129.13C262.291 129.13 263.671 127.57 263.671 125.515C263.671 124.09 262.831 123.22 261.466 123.22C259.696 123.22 258.316 124.78 258.316 126.775ZM272.131 130.18C270.871 130.18 270.046 129.43 270.046 128.29C270.046 126.865 271.171 125.935 273.076 125.785L275.521 125.59L275.566 125.365C275.836 124 275.191 123.235 273.781 123.235C272.461 123.235 271.696 123.805 271.501 124.93H270.826C271.051 123.475 272.161 122.62 273.796 122.62C275.551 122.62 276.511 123.625 276.256 125.215L275.506 130H274.951L275.056 128.65C274.441 129.61 273.346 130.18 272.131 130.18ZM272.281 129.58C273.901 129.58 275.101 128.41 275.386 126.55L275.446 126.16L273.031 126.355C271.561 126.475 270.706 127.195 270.706 128.29C270.706 129.07 271.321 129.58 272.281 129.58ZM278.4 130H277.755L279.465 119.17H280.11L278.4 130ZM281.447 130H280.802L282.512 119.17H283.157L281.447 130ZM286.744 130.18C285.004 130.18 283.759 128.845 283.759 126.985C283.759 124.525 285.409 122.62 287.539 122.62C289.444 122.62 290.599 124.075 290.299 125.935L290.224 126.4H284.449C284.434 126.595 284.419 126.79 284.419 126.985C284.419 128.53 285.364 129.58 286.744 129.58C287.899 129.58 288.919 128.965 289.294 127.945H289.969C289.489 129.355 288.229 130.18 286.744 130.18ZM287.539 123.22C286.114 123.22 284.944 124.315 284.554 125.86H289.639C289.894 124.27 288.994 123.22 287.539 123.22ZM295.847 122.695L295.757 123.265H295.232C293.972 123.265 292.922 124.24 292.712 125.59L292.007 130H291.362L292.502 122.8H293.057L292.937 124.075C293.297 123.205 294.182 122.62 295.187 122.62C295.412 122.62 295.637 122.65 295.847 122.695ZM296.02 126.775C296.02 124.45 297.7 122.62 299.86 122.62C301.12 122.62 302.035 123.28 302.335 124.39L302.71 122.8H303.265L302.155 129.85C301.81 132.01 300.565 133.195 298.6 133.195C296.83 133.195 295.63 132.16 295.57 130.585H296.23C296.29 131.815 297.205 132.595 298.6 132.595C300.19 132.595 301.225 131.62 301.51 129.85L301.825 127.915C301.165 129.085 300.1 129.73 298.855 129.73C297.16 129.73 296.02 128.545 296.02 126.775ZM296.68 126.775C296.68 128.2 297.535 129.13 298.855 129.13C300.655 129.13 302.035 127.57 302.035 125.515C302.035 124.09 301.195 123.22 299.83 123.22C298.06 123.22 296.68 124.78 296.68 126.775ZM307.354 130.18C305.614 130.18 304.369 128.845 304.369 126.985C304.369 124.525 306.019 122.62 308.149 122.62C310.054 122.62 311.209 124.075 310.909 125.935L310.834 126.4H305.059C305.044 126.595 305.029 126.79 305.029 126.985C305.029 128.53 305.974 129.58 307.354 129.58C308.509 129.58 309.529 128.965 309.904 127.945H310.579C310.099 129.355 308.839 130.18 307.354 130.18ZM308.149 123.22C306.724 123.22 305.554 124.315 305.164 125.86H310.249C310.504 124.27 309.604 123.22 308.149 123.22ZM312.617 130H311.972L313.112 122.8H313.622L313.532 124.24C314.207 123.16 315.092 122.62 316.262 122.62C317.927 122.62 318.857 123.805 318.572 125.62L317.882 130H317.237L317.912 125.755C318.182 124.09 317.567 123.22 316.187 123.22C314.642 123.22 313.502 124.42 313.202 126.295L312.617 130ZM326.019 120.58C325.719 120.58 325.494 120.355 325.494 120.07C325.494 119.68 325.809 119.335 326.184 119.335C326.484 119.335 326.709 119.56 326.709 119.845C326.709 120.235 326.394 120.58 326.019 120.58ZM324.204 130L325.344 122.8H325.989L324.849 130H324.204ZM327.778 130H327.133L328.273 122.8H328.783L328.693 124.24C329.368 123.16 330.253 122.62 331.423 122.62C333.088 122.62 334.018 123.805 333.733 125.62L333.043 130H332.398L333.073 125.755C333.343 124.09 332.728 123.22 331.348 123.22C329.803 123.22 328.663 124.42 328.363 126.295L327.778 130ZM335.534 122.8H336.644L336.899 121.165C337.109 119.86 337.784 119.17 338.879 119.17C339.164 119.17 339.434 119.185 339.584 119.215L339.494 119.785C339.344 119.785 339.164 119.77 338.894 119.77C338.084 119.77 337.709 120.16 337.544 121.165L337.289 122.8H338.939L338.849 123.37H337.199L336.149 130H335.504L336.554 123.37H335.444L335.534 122.8ZM339.071 126.91C339.071 124.555 340.901 122.62 343.106 122.62C344.921 122.62 346.166 123.955 346.166 125.89C346.166 128.245 344.336 130.18 342.131 130.18C340.316 130.18 339.071 128.845 339.071 126.91ZM339.731 126.91C339.731 128.56 340.691 129.58 342.221 129.58C344.021 129.58 345.506 127.915 345.506 125.89C345.506 124.24 344.546 123.22 343.016 123.22C341.216 123.22 339.731 124.885 339.731 126.91ZM351.76 122.695L351.67 123.265H351.145C349.885 123.265 348.835 124.24 348.625 125.59L347.92 130H347.275L348.415 122.8H348.97L348.85 124.075C349.21 123.205 350.095 122.62 351.1 122.62C351.325 122.62 351.55 122.65 351.76 122.695ZM352.695 130H352.05L353.19 122.8H353.7L353.625 123.91C354.12 123.1 354.96 122.62 355.95 122.62C357.105 122.62 357.87 123.295 358.005 124.33C358.485 123.28 359.43 122.62 360.6 122.62C362.085 122.62 362.955 123.715 362.715 125.29L361.995 130H361.35L362.07 125.38C362.28 124.015 361.71 123.22 360.495 123.22C359.31 123.22 358.275 124.15 358.08 125.38L357.345 130H356.7L357.45 125.35C357.66 124.045 357.045 123.22 355.845 123.22C354.66 123.22 353.625 124.15 353.43 125.365L352.695 130ZM366.144 130.18C364.884 130.18 364.059 129.43 364.059 128.29C364.059 126.865 365.184 125.935 367.089 125.785L369.534 125.59L369.579 125.365C369.849 124 369.204 123.235 367.794 123.235C366.474 123.235 365.709 123.805 365.514 124.93H364.839C365.064 123.475 366.174 122.62 367.809 122.62C369.564 122.62 370.524 123.625 370.269 125.215L369.519 130H368.964L369.069 128.65C368.454 129.61 367.359 130.18 366.144 130.18ZM366.294 129.58C367.914 129.58 369.114 128.41 369.399 126.55L369.459 126.16L367.044 126.355C365.574 126.475 364.719 127.195 364.719 128.29C364.719 129.07 365.334 129.58 366.294 129.58ZM372.792 130H372.147L373.197 123.37H371.772L371.862 122.8H373.287L373.647 120.52H374.292L373.932 122.8H375.357L375.267 123.37H373.842L372.792 130ZM377.479 120.58C377.179 120.58 376.954 120.355 376.954 120.07C376.954 119.68 377.269 119.335 377.644 119.335C377.944 119.335 378.169 119.56 378.169 119.845C378.169 120.235 377.854 120.58 377.479 120.58ZM375.664 130L376.804 122.8H377.449L376.309 130H375.664ZM378.563 126.91C378.563 124.555 380.393 122.62 382.598 122.62C384.413 122.62 385.658 123.955 385.658 125.89C385.658 128.245 383.828 130.18 381.623 130.18C379.808 130.18 378.563 128.845 378.563 126.91ZM379.223 126.91C379.223 128.56 380.183 129.58 381.713 129.58C383.513 129.58 384.998 127.915 384.998 125.89C384.998 124.24 384.038 123.22 382.508 123.22C380.708 123.22 379.223 124.885 379.223 126.91ZM387.412 130H386.767L387.907 122.8H388.417L388.327 124.24C389.002 123.16 389.887 122.62 391.057 122.62C392.722 122.62 393.652 123.805 393.367 125.62L392.677 130H392.032L392.707 125.755C392.977 124.09 392.362 123.22 390.982 123.22C389.437 123.22 388.297 124.42 387.997 126.295L387.412 130ZM395.543 130.165C395.153 130.165 394.868 129.85 394.868 129.49C394.868 129.01 395.333 128.545 395.798 128.545C396.188 128.545 396.473 128.845 396.473 129.235C396.473 129.715 396.023 130.165 395.543 130.165ZM399.234 130.165C398.844 130.165 398.559 129.85 398.559 129.49C398.559 129.01 399.024 128.545 399.489 128.545C399.879 128.545 400.164 128.845 400.164 129.235C400.164 129.715 399.714 130.165 399.234 130.165ZM402.926 130.165C402.536 130.165 402.251 129.85 402.251 129.49C402.251 129.01 402.716 128.545 403.181 128.545C403.571 128.545 403.856 128.845 403.856 129.235C403.856 129.715 403.406 130.165 402.926 130.165Z" fill="black"/>
<path d="M132.135 189H130.215V178.035H132.135V182.565H136.995V178.035H138.915V189H136.995V184.35H132.135V189ZM144.393 189.195C142.188 189.195 140.643 187.59 140.643 185.295C140.643 182.97 142.158 181.365 144.333 181.365C146.553 181.365 147.963 182.85 147.963 185.16V185.715L142.383 185.73C142.518 187.035 143.208 187.695 144.423 187.695C145.428 187.695 146.088 187.305 146.298 186.6H147.993C147.678 188.22 146.328 189.195 144.393 189.195ZM144.348 182.865C143.268 182.865 142.608 183.45 142.428 184.56H146.148C146.148 183.54 145.443 182.865 144.348 182.865ZM154.077 181.56V183.255H153.402C152.082 183.255 151.257 183.96 151.257 185.4V189H149.427V181.605H151.152L151.257 182.685C151.572 181.95 152.277 181.455 153.267 181.455C153.522 181.455 153.777 181.485 154.077 181.56ZM158.382 189.195C156.177 189.195 154.632 187.59 154.632 185.295C154.632 182.97 156.147 181.365 158.322 181.365C160.542 181.365 161.952 182.85 161.952 185.16V185.715L156.372 185.73C156.507 187.035 157.197 187.695 158.412 187.695C159.417 187.695 160.077 187.305 160.287 186.6H161.982C161.667 188.22 160.317 189.195 158.382 189.195ZM158.337 182.865C157.257 182.865 156.597 183.45 156.417 184.56H160.137C160.137 183.54 159.432 182.865 158.337 182.865ZM169.665 189.195C168.09 189.195 167.13 188.28 167.13 186.885C167.13 185.52 168.12 184.665 169.875 184.53L172.095 184.365V184.2C172.095 183.195 171.495 182.79 170.565 182.79C169.485 182.79 168.885 183.24 168.885 184.02H167.325C167.325 182.415 168.645 181.365 170.655 181.365C172.65 181.365 173.88 182.445 173.88 184.5V189H172.275L172.14 187.905C171.825 188.67 170.82 189.195 169.665 189.195ZM170.265 187.815C171.39 187.815 172.11 187.14 172.11 186V185.61L170.565 185.73C169.425 185.835 168.99 186.21 168.99 186.81C168.99 187.485 169.44 187.815 170.265 187.815ZM180.327 181.56V183.255H179.652C178.332 183.255 177.507 183.96 177.507 185.4V189H175.677V181.605H177.402L177.507 182.685C177.822 181.95 178.527 181.455 179.517 181.455C179.772 181.455 180.027 181.485 180.327 181.56ZM184.632 189.195C182.427 189.195 180.882 187.59 180.882 185.295C180.882 182.97 182.397 181.365 184.572 181.365C186.792 181.365 188.202 182.85 188.202 185.16V185.715L182.622 185.73C182.757 187.035 183.447 187.695 184.662 187.695C185.667 187.695 186.327 187.305 186.537 186.6H188.232C187.917 188.22 186.567 189.195 184.632 189.195ZM184.587 182.865C183.507 182.865 182.847 183.45 182.667 184.56H186.387C186.387 183.54 185.682 182.865 184.587 182.865ZM195.915 189.195C194.34 189.195 193.38 188.28 193.38 186.885C193.38 185.52 194.37 184.665 196.125 184.53L198.345 184.365V184.2C198.345 183.195 197.745 182.79 196.815 182.79C195.735 182.79 195.135 183.24 195.135 184.02H193.575C193.575 182.415 194.895 181.365 196.905 181.365C198.9 181.365 200.13 182.445 200.13 184.5V189H198.525L198.39 187.905C198.075 188.67 197.07 189.195 195.915 189.195ZM196.515 187.815C197.64 187.815 198.36 187.14 198.36 186V185.61L196.815 185.73C195.675 185.835 195.24 186.21 195.24 186.81C195.24 187.485 195.69 187.815 196.515 187.815ZM203.772 189H201.957V177.84H203.772V189ZM207.537 189H205.722V177.84H207.537V189ZM213.065 185.28C213.065 182.97 214.73 181.38 217.025 181.38C219.32 181.38 220.985 182.97 220.985 185.28C220.985 187.59 219.32 189.18 217.025 189.18C214.73 189.18 213.065 187.59 213.065 185.28ZM214.895 185.28C214.895 186.63 215.765 187.545 217.025 187.545C218.285 187.545 219.155 186.63 219.155 185.28C219.155 183.93 218.285 183.015 217.025 183.015C215.765 183.015 214.895 183.93 214.895 185.28ZM221.671 181.59H222.736V180.69C222.736 178.68 223.801 177.84 225.406 177.84C225.691 177.84 226.036 177.855 226.351 177.915V179.475H225.706C224.776 179.475 224.551 179.955 224.551 180.69V181.59H226.321V183.12H224.551V189H222.736V183.12H221.671V181.59ZM236.602 179.655C234.427 179.655 233.182 181.23 233.182 183.6C233.182 186.045 234.592 187.38 236.617 187.38C238.522 187.38 239.677 186.33 239.677 184.575V184.53H236.362V182.835H241.462V189H239.842L239.722 187.74C239.122 188.58 237.877 189.165 236.392 189.165C233.317 189.165 231.172 186.93 231.172 183.555C231.172 180.225 233.347 177.855 236.647 177.855C239.152 177.855 241.087 179.31 241.402 181.545H239.377C239.032 180.255 237.922 179.655 236.602 179.655ZM244.18 180.105C243.55 180.105 243.055 179.61 243.055 178.995C243.055 178.38 243.55 177.9 244.18 177.9C244.78 177.9 245.275 178.38 245.275 178.995C245.275 179.61 244.78 180.105 244.18 180.105ZM243.265 189V181.59H245.095V189H243.265ZM248.816 189H246.986V181.59H248.666L248.816 182.46C249.191 181.845 249.941 181.365 251.006 181.365C252.131 181.365 252.911 181.92 253.301 182.775C253.676 181.92 254.546 181.365 255.671 181.365C257.471 181.365 258.461 182.445 258.461 184.155V189H256.646V184.635C256.646 183.57 256.076 183.015 255.206 183.015C254.321 183.015 253.646 183.585 253.646 184.8V189H251.816V184.62C251.816 183.585 251.261 183.03 250.391 183.03C249.521 183.03 248.816 183.6 248.816 184.8V189ZM262.103 189H260.288V177.84H262.103V189ZM264.937 180.105C264.307 180.105 263.812 179.61 263.812 178.995C263.812 178.38 264.307 177.9 264.937 177.9C265.537 177.9 266.032 178.38 266.032 178.995C266.032 179.61 265.537 180.105 264.937 180.105ZM264.022 189V181.59H265.852V189H264.022ZM270.068 179.295C270.068 180.555 269.228 181.53 268.028 181.68V180.96C268.673 180.84 269.138 180.435 269.138 179.91C269.018 179.955 268.883 179.985 268.718 179.985C268.178 179.985 267.743 179.61 267.743 178.95C267.743 178.29 268.193 177.825 268.853 177.825C269.558 177.825 270.068 178.395 270.068 179.295ZM270.586 186.75H272.326C272.341 187.395 272.821 187.8 273.661 187.8C274.516 187.8 274.981 187.455 274.981 186.915C274.981 186.54 274.786 186.27 274.126 186.12L272.791 185.805C271.456 185.505 270.811 184.875 270.811 183.69C270.811 182.235 272.041 181.365 273.751 181.365C275.416 181.365 276.541 182.325 276.556 183.765H274.816C274.801 183.135 274.381 182.73 273.676 182.73C272.956 182.73 272.536 183.06 272.536 183.615C272.536 184.035 272.866 184.305 273.496 184.455L274.831 184.77C276.076 185.055 276.706 185.625 276.706 186.765C276.706 188.265 275.431 189.195 273.601 189.195C271.756 189.195 270.586 188.205 270.586 186.75ZM284.347 189.195C282.772 189.195 281.812 188.28 281.812 186.885C281.812 185.52 282.802 184.665 284.557 184.53L286.777 184.365V184.2C286.777 183.195 286.177 182.79 285.247 182.79C284.167 182.79 283.567 183.24 283.567 184.02H282.007C282.007 182.415 283.327 181.365 285.337 181.365C287.332 181.365 288.562 182.445 288.562 184.5V189H286.957L286.822 187.905C286.507 188.67 285.502 189.195 284.347 189.195ZM284.947 187.815C286.072 187.815 286.792 187.14 286.792 186V185.61L285.247 185.73C284.107 185.835 283.672 186.21 283.672 186.81C283.672 187.485 284.122 187.815 284.947 187.815ZM292.205 189H290.39V177.84H292.205V189ZM295.97 189H294.155V177.84H295.97V189ZM301.204 189.195C298.999 189.195 297.454 187.59 297.454 185.295C297.454 182.97 298.969 181.365 301.144 181.365C303.364 181.365 304.774 182.85 304.774 185.16V185.715L299.194 185.73C299.329 187.035 300.019 187.695 301.234 187.695C302.239 187.695 302.899 187.305 303.109 186.6H304.804C304.489 188.22 303.139 189.195 301.204 189.195ZM301.159 182.865C300.079 182.865 299.419 183.45 299.239 184.56H302.959C302.959 183.54 302.254 182.865 301.159 182.865ZM310.889 181.56V183.255H310.214C308.894 183.255 308.069 183.96 308.069 185.4V189H306.239V181.605H307.964L308.069 182.685C308.384 181.95 309.089 181.455 310.079 181.455C310.334 181.455 310.589 181.485 310.889 181.56ZM311.517 185.13C311.517 182.97 312.927 181.35 315.042 181.35C316.152 181.35 317.022 181.815 317.457 182.61L317.562 181.59H319.257V188.625C319.257 191.1 317.772 192.645 315.372 192.645C313.242 192.645 311.787 191.43 311.562 189.45H313.392C313.512 190.41 314.247 190.98 315.372 190.98C316.632 190.98 317.442 190.185 317.442 188.955V187.725C316.977 188.415 316.062 188.85 314.997 188.85C312.897 188.85 311.517 187.275 311.517 185.13ZM313.362 185.085C313.362 186.33 314.157 187.26 315.357 187.26C316.617 187.26 317.397 186.375 317.397 185.085C317.397 183.825 316.632 182.955 315.357 182.955C314.142 182.955 313.362 183.87 313.362 185.085ZM322.066 180.105C321.436 180.105 320.941 179.61 320.941 178.995C320.941 178.38 321.436 177.9 322.066 177.9C322.666 177.9 323.161 178.38 323.161 178.995C323.161 179.61 322.666 180.105 322.066 180.105ZM321.151 189V181.59H322.981V189H321.151ZM328.187 189.195C325.982 189.195 324.437 187.59 324.437 185.295C324.437 182.97 325.952 181.365 328.127 181.365C330.347 181.365 331.757 182.85 331.757 185.16V185.715L326.177 185.73C326.312 187.035 327.002 187.695 328.217 187.695C329.222 187.695 329.882 187.305 330.092 186.6H331.787C331.472 188.22 330.122 189.195 328.187 189.195ZM328.142 182.865C327.062 182.865 326.402 183.45 326.222 184.56H329.942C329.942 183.54 329.237 182.865 328.142 182.865ZM332.651 186.75H334.391C334.406 187.395 334.886 187.8 335.726 187.8C336.581 187.8 337.046 187.455 337.046 186.915C337.046 186.54 336.851 186.27 336.191 186.12L334.856 185.805C333.521 185.505 332.876 184.875 332.876 183.69C332.876 182.235 334.106 181.365 335.816 181.365C337.481 181.365 338.606 182.325 338.621 183.765H336.881C336.866 183.135 336.446 182.73 335.741 182.73C335.021 182.73 334.601 183.06 334.601 183.615C334.601 184.035 334.931 184.305 335.561 184.455L336.896 184.77C338.141 185.055 338.771 185.625 338.771 186.765C338.771 188.265 337.496 189.195 335.666 189.195C333.821 189.195 332.651 188.205 332.651 186.75ZM129.21 203.59H130.275V202.69C130.275 200.68 131.34 199.84 132.945 199.84C133.23 199.84 133.575 199.855 133.89 199.915V201.475H133.245C132.315 201.475 132.09 201.955 132.09 202.69V203.59H133.86V205.12H132.09V211H130.275V205.12H129.21V203.59ZM134.373 207.28C134.373 204.97 136.038 203.38 138.333 203.38C140.628 203.38 142.293 204.97 142.293 207.28C142.293 209.59 140.628 211.18 138.333 211.18C136.038 211.18 134.373 209.59 134.373 207.28ZM136.203 207.28C136.203 208.63 137.073 209.545 138.333 209.545C139.593 209.545 140.463 208.63 140.463 207.28C140.463 205.93 139.593 205.015 138.333 205.015C137.073 205.015 136.203 205.93 136.203 207.28ZM148.394 203.56V205.255H147.719C146.399 205.255 145.574 205.96 145.574 207.4V211H143.744V203.605H145.469L145.574 204.685C145.889 203.95 146.594 203.455 147.584 203.455C147.839 203.455 148.094 203.485 148.394 203.56ZM151.463 211H149.633V203.59H151.313L151.463 204.46C151.838 203.845 152.588 203.365 153.653 203.365C154.778 203.365 155.558 203.92 155.948 204.775C156.323 203.92 157.193 203.365 158.318 203.365C160.118 203.365 161.108 204.445 161.108 206.155V211H159.293V206.635C159.293 205.57 158.723 205.015 157.853 205.015C156.968 205.015 156.293 205.585 156.293 206.8V211H154.463V206.62C154.463 205.585 153.908 205.03 153.038 205.03C152.168 205.03 151.463 205.6 151.463 206.8V211ZM165.109 211.195C163.534 211.195 162.574 210.28 162.574 208.885C162.574 207.52 163.564 206.665 165.319 206.53L167.539 206.365V206.2C167.539 205.195 166.939 204.79 166.009 204.79C164.929 204.79 164.329 205.24 164.329 206.02H162.769C162.769 204.415 164.089 203.365 166.099 203.365C168.094 203.365 169.324 204.445 169.324 206.5V211H167.719L167.584 209.905C167.269 210.67 166.264 211.195 165.109 211.195ZM165.709 209.815C166.834 209.815 167.554 209.14 167.554 208V207.61L166.009 207.73C164.869 207.835 164.434 208.21 164.434 208.81C164.434 209.485 164.884 209.815 165.709 209.815ZM173.539 211H171.709V205.12H170.284V203.59H171.709V201.28H173.539V203.59H174.979V205.12H173.539V211ZM178.842 211H177.012V205.12H175.587V203.59H177.012V201.28H178.842V203.59H180.282V205.12H178.842V211ZM184.661 211.195C182.456 211.195 180.911 209.59 180.911 207.295C180.911 204.97 182.426 203.365 184.601 203.365C186.821 203.365 188.231 204.85 188.231 207.16V207.715L182.651 207.73C182.786 209.035 183.476 209.695 184.691 209.695C185.696 209.695 186.356 209.305 186.566 208.6H188.261C187.946 210.22 186.596 211.195 184.661 211.195ZM184.616 204.865C183.536 204.865 182.876 205.45 182.696 206.56H186.416C186.416 205.54 185.711 204.865 184.616 204.865ZM192.741 211.195C190.596 211.195 189.261 209.62 189.261 207.325C189.261 205.015 190.611 203.365 192.846 203.365C193.881 203.365 194.796 203.8 195.261 204.535V199.84H197.076V211H195.396L195.276 209.845C194.826 210.7 193.866 211.195 192.741 211.195ZM193.146 209.515C194.421 209.515 195.246 208.6 195.246 207.265C195.246 205.93 194.421 205 193.146 205C191.871 205 191.091 205.945 191.091 207.265C191.091 208.585 191.871 209.515 193.146 209.515ZM203.941 202.105C203.311 202.105 202.816 201.61 202.816 200.995C202.816 200.38 203.311 199.9 203.941 199.9C204.541 199.9 205.036 200.38 205.036 200.995C205.036 201.61 204.541 202.105 203.941 202.105ZM203.026 211V203.59H204.856V211H203.026ZM208.577 211H206.747V203.59H208.442L208.592 204.55C209.057 203.8 209.957 203.365 210.962 203.365C212.822 203.365 213.782 204.52 213.782 206.44V211H211.952V206.875C211.952 205.63 211.337 205.03 210.392 205.03C209.267 205.03 208.577 205.81 208.577 207.01V211ZM221.828 211.195C220.253 211.195 219.293 210.28 219.293 208.885C219.293 207.52 220.283 206.665 222.038 206.53L224.258 206.365V206.2C224.258 205.195 223.658 204.79 222.728 204.79C221.648 204.79 221.048 205.24 221.048 206.02H219.488C219.488 204.415 220.808 203.365 222.818 203.365C224.813 203.365 226.043 204.445 226.043 206.5V211H224.438L224.303 209.905C223.988 210.67 222.983 211.195 221.828 211.195ZM222.428 209.815C223.553 209.815 224.273 209.14 224.273 208V207.61L222.728 207.73C221.588 207.835 221.153 208.21 221.153 208.81C221.153 209.485 221.603 209.815 222.428 209.815ZM234.403 211H232.573V205.12H231.148V203.59H232.573V201.28H234.403V203.59H235.843V205.12H234.403V211ZM239.142 211.195C237.567 211.195 236.607 210.28 236.607 208.885C236.607 207.52 237.597 206.665 239.352 206.53L241.572 206.365V206.2C241.572 205.195 240.972 204.79 240.042 204.79C238.962 204.79 238.362 205.24 238.362 206.02H236.802C236.802 204.415 238.122 203.365 240.132 203.365C242.127 203.365 243.357 204.445 243.357 206.5V211H241.752L241.617 209.905C241.302 210.67 240.297 211.195 239.142 211.195ZM239.742 209.815C240.867 209.815 241.587 209.14 241.587 208V207.61L240.042 207.73C238.902 207.835 238.467 208.21 238.467 208.81C238.467 209.485 238.917 209.815 239.742 209.815ZM246.85 211H245.155V199.84H246.985V204.67C247.465 203.845 248.455 203.35 249.58 203.35C251.695 203.35 252.985 205 252.985 207.34C252.985 209.62 251.59 211.195 249.46 211.195C248.35 211.195 247.405 210.7 246.97 209.845L246.85 211ZM247 207.265C247 208.6 247.825 209.515 249.085 209.515C250.375 209.515 251.14 208.585 251.14 207.265C251.14 205.945 250.375 205 249.085 205C247.825 205 247 205.93 247 207.265ZM256.287 211H254.472V199.84H256.287V211ZM261.522 211.195C259.317 211.195 257.772 209.59 257.772 207.295C257.772 204.97 259.287 203.365 261.462 203.365C263.682 203.365 265.092 204.85 265.092 207.16V207.715L259.512 207.73C259.647 209.035 260.337 209.695 261.552 209.695C262.557 209.695 263.217 209.305 263.427 208.6H265.122C264.807 210.22 263.457 211.195 261.522 211.195ZM261.477 204.865C260.397 204.865 259.737 205.45 259.557 206.56H263.277C263.277 205.54 262.572 204.865 261.477 204.865ZM267.332 211.18C266.672 211.18 266.117 210.64 266.117 209.995C266.117 209.335 266.672 208.795 267.332 208.795C267.992 208.795 268.547 209.335 268.547 209.995C268.547 210.64 267.992 211.18 267.332 211.18Z" fill="black"/>
<path d="M134.4 256.055H131.385V260H130.305V249.26H134.4C136.47 249.26 137.775 250.61 137.775 252.635C137.775 254.585 136.455 256.055 134.4 256.055ZM134.25 250.235H131.385V255.08H134.19C135.75 255.08 136.65 254.09 136.65 252.62C136.65 251.135 135.735 250.235 134.25 250.235ZM138.462 256.37C138.462 254.15 140.022 252.545 142.152 252.545C144.282 252.545 145.842 254.15 145.842 256.37C145.842 258.575 144.282 260.18 142.152 260.18C140.022 260.18 138.462 258.575 138.462 256.37ZM139.512 256.355C139.512 258.065 140.592 259.25 142.152 259.25C143.697 259.25 144.792 258.065 144.792 256.355C144.792 254.675 143.697 253.475 142.152 253.475C140.592 253.475 139.512 254.675 139.512 256.355ZM148.577 260H147.542V249.065H148.577V260ZM151.858 260H150.823V249.065H151.858V260ZM157.104 260.18C154.974 260.18 153.549 258.65 153.549 256.37C153.549 254.105 154.959 252.545 157.029 252.545C158.994 252.545 160.329 253.94 160.329 255.995V256.505H154.554C154.629 258.275 155.559 259.295 157.119 259.295C158.304 259.295 159.069 258.785 159.339 257.825H160.329C159.939 259.355 158.814 260.18 157.104 260.18ZM157.029 253.43C155.664 253.43 154.764 254.33 154.584 255.755H159.294C159.294 254.36 158.394 253.43 157.029 253.43ZM163.019 260H161.984V252.74H162.884L163.034 254C163.514 253.07 164.474 252.545 165.524 252.545C167.519 252.545 168.344 253.73 168.344 255.56V260H167.309V255.785C167.309 254.09 166.544 253.49 165.344 253.49C163.859 253.49 163.019 254.57 163.019 256.205V260ZM134.4 300.055H131.385V304H130.305V293.26H134.4C136.47 293.26 137.775 294.61 137.775 296.635C137.775 298.585 136.455 300.055 134.4 300.055ZM134.25 294.235H131.385V299.08H134.19C135.75 299.08 136.65 298.09 136.65 296.62C136.65 295.135 135.735 294.235 134.25 294.235ZM142.017 304.18C139.887 304.18 138.462 302.65 138.462 300.37C138.462 298.105 139.872 296.545 141.942 296.545C143.907 296.545 145.242 297.94 145.242 299.995V300.505H139.467C139.542 302.275 140.472 303.295 142.032 303.295C143.217 303.295 143.982 302.785 144.252 301.825H145.242C144.852 303.355 143.727 304.18 142.017 304.18ZM141.942 297.43C140.577 297.43 139.677 298.33 139.497 299.755H144.207C144.207 298.36 143.307 297.43 141.942 297.43ZM148.908 304.18C147.363 304.18 146.448 303.31 146.448 302.035C146.448 300.7 147.468 299.86 149.163 299.725L151.563 299.53V299.29C151.563 297.865 150.708 297.415 149.643 297.415C148.383 297.415 147.633 297.985 147.633 298.96H146.688C146.688 297.49 147.888 296.545 149.673 296.545C151.353 296.545 152.583 297.385 152.583 299.305V304H151.713L151.578 302.725C151.128 303.64 150.138 304.18 148.908 304.18ZM149.148 303.34C150.678 303.34 151.563 302.275 151.563 300.7V300.31L149.418 300.475C148.053 300.595 147.498 301.195 147.498 302.005C147.498 302.89 148.158 303.34 149.148 303.34ZM155.695 304H154.66V296.74H155.56L155.71 298C156.19 297.07 157.15 296.545 158.2 296.545C160.195 296.545 161.02 297.73 161.02 299.56V304H159.985V299.785C159.985 298.09 159.22 297.49 158.02 297.49C156.535 297.49 155.695 298.57 155.695 300.205V304ZM168.183 296.74H169.218V304H168.318L168.183 302.77C167.778 303.61 166.773 304.18 165.633 304.18C163.923 304.18 162.993 303.01 162.993 301.24V296.725H164.043V300.91C164.043 302.635 164.808 303.25 165.963 303.25C167.358 303.25 168.183 302.32 168.183 300.595V296.74ZM173.039 304H172.019V297.61H170.564V296.74H172.019V294.445H173.039V296.74H174.494V297.61H173.039V304ZM175.227 301.96H176.217C176.217 302.8 176.847 303.325 177.867 303.325C178.992 303.325 179.652 302.845 179.652 302.065C179.652 301.465 179.352 301.12 178.497 300.91L177.252 300.595C175.992 300.28 175.377 299.62 175.377 298.63C175.377 297.355 176.442 296.545 178.002 296.545C179.532 296.545 180.522 297.385 180.567 298.735H179.562C179.532 297.895 178.947 297.4 177.972 297.4C176.952 297.4 176.382 297.835 176.382 298.615C176.382 299.17 176.772 299.56 177.567 299.755L178.812 300.07C180.072 300.385 180.642 300.97 180.642 302.02C180.642 303.325 179.532 304.18 177.882 304.18C176.247 304.18 175.227 303.31 175.227 301.96ZM133.575 348H130.305V337.26H133.545C136.785 337.26 138.945 339.42 138.945 342.63C138.945 345.84 136.8 348 133.575 348ZM133.5 338.25H131.385V347.01H133.53C136.155 347.01 137.835 345.3 137.835 342.63C137.835 339.945 136.155 338.25 133.5 338.25ZM145.771 340.74H146.806V348H145.906L145.771 346.77C145.366 347.61 144.361 348.18 143.221 348.18C141.511 348.18 140.581 347.01 140.581 345.24V340.725H141.631V344.91C141.631 346.635 142.396 347.25 143.551 347.25C144.946 347.25 145.771 346.32 145.771 344.595V340.74ZM148.2 345.96H149.19C149.19 346.8 149.82 347.325 150.84 347.325C151.965 347.325 152.625 346.845 152.625 346.065C152.625 345.465 152.325 345.12 151.47 344.91L150.225 344.595C148.965 344.28 148.35 343.62 148.35 342.63C148.35 341.355 149.415 340.545 150.975 340.545C152.505 340.545 153.495 341.385 153.54 342.735H152.535C152.505 341.895 151.92 341.4 150.945 341.4C149.925 341.4 149.355 341.835 149.355 342.615C149.355 343.17 149.745 343.56 150.54 343.755L151.785 344.07C153.045 344.385 153.615 344.97 153.615 346.02C153.615 347.325 152.505 348.18 150.855 348.18C149.22 348.18 148.2 347.31 148.2 345.96ZM156.984 348H155.964V341.61H154.509V340.74H155.964V338.445H156.984V340.74H158.439V341.61H156.984V348ZM165.237 348H164.172V337.26H165.237L169.152 346.725L173.067 337.26H174.147V348H173.082V342.9C173.082 341.025 173.112 340.2 173.172 339.465L169.677 348H168.642L165.147 339.51C165.207 339.915 165.237 341.1 165.237 342.735V348ZM177.04 338.745C176.62 338.745 176.275 338.4 176.275 337.98C176.275 337.56 176.62 337.2 177.04 337.2C177.46 337.2 177.82 337.56 177.82 337.98C177.82 338.4 177.46 338.745 177.04 338.745ZM176.53 348V340.74H177.565V348H176.53ZM181.389 348H180.369V341.61H178.914V340.74H180.369V338.445H181.389V340.74H182.844V341.61H181.389V348ZM187.163 348.18C185.033 348.18 183.608 346.65 183.608 344.37C183.608 342.105 185.018 340.545 187.088 340.545C189.053 340.545 190.388 341.94 190.388 343.995V344.505H184.613C184.688 346.275 185.618 347.295 187.178 347.295C188.363 347.295 189.128 346.785 189.398 345.825H190.388C189.998 347.355 188.873 348.18 187.163 348.18ZM187.088 341.43C185.723 341.43 184.823 342.33 184.643 343.755H189.353C189.353 342.36 188.453 341.43 187.088 341.43ZM191.428 345.96H192.418C192.418 346.8 193.048 347.325 194.068 347.325C195.193 347.325 195.853 346.845 195.853 346.065C195.853 345.465 195.553 345.12 194.698 344.91L193.453 344.595C192.193 344.28 191.578 343.62 191.578 342.63C191.578 341.355 192.643 340.545 194.203 340.545C195.733 340.545 196.723 341.385 196.768 342.735H195.763C195.733 341.895 195.148 341.4 194.173 341.4C193.153 341.4 192.583 341.835 192.583 342.615C192.583 343.17 192.973 343.56 193.768 343.755L195.013 344.07C196.273 344.385 196.843 344.97 196.843 346.02C196.843 347.325 195.733 348.18 194.083 348.18C192.448 348.18 191.428 347.31 191.428 345.96Z" fill="black"/>
<path d="M233.37 262H232.305V251.26H233.37L237.285 260.725L241.2 251.26H242.28V262H241.215V256.9C241.215 255.025 241.245 254.2 241.305 253.465L237.81 262H236.775L233.28 253.51C233.34 253.915 233.37 255.1 233.37 256.735V262ZM245.173 252.745C244.753 252.745 244.408 252.4 244.408 251.98C244.408 251.56 244.753 251.2 245.173 251.2C245.593 251.2 245.953 251.56 245.953 251.98C245.953 252.4 245.593 252.745 245.173 252.745ZM244.663 262V254.74H245.698V262H244.663ZM248.936 262H247.901V251.065H248.936V262ZM253.988 262.18C251.873 262.18 250.628 260.56 250.628 258.385C250.628 256.195 251.873 254.545 254.033 254.545C255.233 254.545 256.193 255.07 256.703 256.12V251.065H257.738V262H256.838L256.733 260.515C256.223 261.64 255.203 262.18 253.988 262.18ZM254.168 261.235C255.758 261.235 256.688 260.035 256.688 258.355C256.688 256.69 255.758 255.475 254.168 255.475C252.593 255.475 251.678 256.69 251.678 258.355C251.678 260.035 252.593 261.235 254.168 261.235ZM233.37 350H232.305V339.26H233.37L237.285 348.725L241.2 339.26H242.28V350H241.215V344.9C241.215 343.025 241.245 342.2 241.305 341.465L237.81 350H236.775L233.28 341.51C233.34 341.915 233.37 343.1 233.37 344.735V350ZM245.173 340.745C244.753 340.745 244.408 340.4 244.408 339.98C244.408 339.56 244.753 339.2 245.173 339.2C245.593 339.2 245.953 339.56 245.953 339.98C245.953 340.4 245.593 340.745 245.173 340.745ZM244.663 350V342.74H245.698V350H244.663ZM248.936 350H247.901V339.065H248.936V350ZM253.988 350.18C251.873 350.18 250.628 348.56 250.628 346.385C250.628 344.195 251.873 342.545 254.033 342.545C255.233 342.545 256.193 343.07 256.703 344.12V339.065H257.738V350H256.838L256.733 348.515C256.223 349.64 255.203 350.18 253.988 350.18ZM254.168 349.235C255.758 349.235 256.688 348.035 256.688 346.355C256.688 344.69 255.758 343.475 254.168 343.475C252.593 343.475 251.678 344.69 251.678 346.355C251.678 348.035 252.593 349.235 254.168 349.235Z" fill="black"/>
<path d="M231.585 298.095C231.585 296.175 233.175 294.84 235.485 294.84C237.705 294.84 239.115 296.07 239.175 298.05H237.255C237.21 297.105 236.535 296.55 235.455 296.55C234.27 296.55 233.505 297.12 233.505 298.035C233.505 298.815 233.925 299.25 234.84 299.46L236.565 299.835C238.44 300.24 239.355 301.2 239.355 302.835C239.355 304.875 237.765 306.195 235.35 306.195C233.01 306.195 231.48 304.95 231.435 302.985H233.355C233.37 303.915 234.12 304.47 235.35 304.47C236.625 304.47 237.435 303.915 237.435 303C237.435 302.265 237.06 301.83 236.16 301.635L234.42 301.245C232.56 300.84 231.585 299.775 231.585 298.095ZM244.137 306.195C241.932 306.195 240.387 304.59 240.387 302.295C240.387 299.97 241.902 298.365 244.077 298.365C246.297 298.365 247.707 299.85 247.707 302.16V302.715L242.127 302.73C242.262 304.035 242.952 304.695 244.167 304.695C245.172 304.695 245.832 304.305 246.042 303.6H247.737C247.422 305.22 246.072 306.195 244.137 306.195ZM244.092 299.865C243.012 299.865 242.352 300.45 242.172 301.56H245.892C245.892 300.54 245.187 299.865 244.092 299.865ZM250.949 306L248.009 298.59H249.959L251.249 301.995C251.564 302.88 251.819 303.645 251.909 304.05C252.014 303.585 252.284 302.805 252.599 301.995L253.949 298.59H255.839L252.749 306H250.949ZM259.84 306.195C257.635 306.195 256.09 304.59 256.09 302.295C256.09 299.97 257.605 298.365 259.78 298.365C262 298.365 263.41 299.85 263.41 302.16V302.715L257.83 302.73C257.965 304.035 258.655 304.695 259.87 304.695C260.875 304.695 261.535 304.305 261.745 303.6H263.44C263.125 305.22 261.775 306.195 259.84 306.195ZM259.795 299.865C258.715 299.865 258.055 300.45 257.875 301.56H261.595C261.595 300.54 260.89 299.865 259.795 299.865ZM269.525 298.56V300.255H268.85C267.53 300.255 266.705 300.96 266.705 302.4V306H264.875V298.605H266.6L266.705 299.685C267.02 298.95 267.725 298.455 268.715 298.455C268.97 298.455 269.225 298.485 269.525 298.56ZM273.829 306.195C271.624 306.195 270.079 304.59 270.079 302.295C270.079 299.97 271.594 298.365 273.769 298.365C275.989 298.365 277.399 299.85 277.399 302.16V302.715L271.819 302.73C271.954 304.035 272.644 304.695 273.859 304.695C274.864 304.695 275.524 304.305 275.734 303.6H277.429C277.114 305.22 275.764 306.195 273.829 306.195ZM273.784 299.865C272.704 299.865 272.044 300.45 271.864 301.56H275.584C275.584 300.54 274.879 299.865 273.784 299.865Z" fill="#F30C6D"/>
<path d="M310.685 262.165C307.685 262.165 305.645 259.93 305.645 256.63C305.645 253.33 307.715 251.08 310.745 251.08C313.055 251.08 314.87 252.475 315.305 254.605H314.15C313.7 253.06 312.38 252.115 310.7 252.115C308.345 252.115 306.77 253.915 306.77 256.63C306.77 259.33 308.345 261.13 310.7 261.13C312.395 261.13 313.745 260.215 314.21 258.775H315.365C314.87 260.8 312.995 262.165 310.685 262.165ZM318.946 262.18C317.401 262.18 316.486 261.31 316.486 260.035C316.486 258.7 317.506 257.86 319.201 257.725L321.601 257.53V257.29C321.601 255.865 320.746 255.415 319.681 255.415C318.421 255.415 317.671 255.985 317.671 256.96H316.726C316.726 255.49 317.926 254.545 319.711 254.545C321.391 254.545 322.621 255.385 322.621 257.305V262H321.751L321.616 260.725C321.166 261.64 320.176 262.18 318.946 262.18ZM319.186 261.34C320.716 261.34 321.601 260.275 321.601 258.7V258.31L319.456 258.475C318.091 258.595 317.536 259.195 317.536 260.005C317.536 260.89 318.196 261.34 319.186 261.34ZM329.798 254.74H330.833V262H329.933L329.798 260.77C329.393 261.61 328.388 262.18 327.248 262.18C325.538 262.18 324.608 261.01 324.608 259.24V254.725H325.658V258.91C325.658 260.635 326.423 261.25 327.578 261.25C328.973 261.25 329.798 260.32 329.798 258.595V254.74ZM332.228 259.96H333.218C333.218 260.8 333.848 261.325 334.868 261.325C335.993 261.325 336.653 260.845 336.653 260.065C336.653 259.465 336.353 259.12 335.498 258.91L334.253 258.595C332.993 258.28 332.378 257.62 332.378 256.63C332.378 255.355 333.443 254.545 335.003 254.545C336.533 254.545 337.523 255.385 337.568 256.735H336.563C336.533 255.895 335.948 255.4 334.973 255.4C333.953 255.4 333.383 255.835 333.383 256.615C333.383 257.17 333.773 257.56 334.568 257.755L335.813 258.07C337.073 258.385 337.643 258.97 337.643 260.02C337.643 261.325 336.533 262.18 334.883 262.18C333.248 262.18 332.228 261.31 332.228 259.96ZM342.392 262.18C340.262 262.18 338.837 260.65 338.837 258.37C338.837 256.105 340.247 254.545 342.317 254.545C344.282 254.545 345.617 255.94 345.617 257.995V258.505H339.842C339.917 260.275 340.847 261.295 342.407 261.295C343.592 261.295 344.357 260.785 344.627 259.825H345.617C345.227 261.355 344.102 262.18 342.392 262.18ZM342.317 255.43C340.952 255.43 340.052 256.33 339.872 257.755H344.582C344.582 256.36 343.682 255.43 342.317 255.43ZM346.656 259.96H347.646C347.646 260.8 348.276 261.325 349.296 261.325C350.421 261.325 351.081 260.845 351.081 260.065C351.081 259.465 350.781 259.12 349.926 258.91L348.681 258.595C347.421 258.28 346.806 257.62 346.806 256.63C346.806 255.355 347.871 254.545 349.431 254.545C350.961 254.545 351.951 255.385 351.996 256.735H350.991C350.961 255.895 350.376 255.4 349.401 255.4C348.381 255.4 347.811 255.835 347.811 256.615C347.811 257.17 348.201 257.56 348.996 257.755L350.241 258.07C351.501 258.385 352.071 258.97 352.071 260.02C352.071 261.325 350.961 262.18 349.311 262.18C347.676 262.18 346.656 261.31 346.656 259.96ZM357.32 259.96H358.31C358.31 260.8 358.94 261.325 359.96 261.325C361.085 261.325 361.745 260.845 361.745 260.065C361.745 259.465 361.445 259.12 360.59 258.91L359.345 258.595C358.085 258.28 357.47 257.62 357.47 256.63C357.47 255.355 358.535 254.545 360.095 254.545C361.625 254.545 362.615 255.385 362.66 256.735H361.655C361.625 255.895 361.04 255.4 360.065 255.4C359.045 255.4 358.475 255.835 358.475 256.615C358.475 257.17 358.865 257.56 359.66 257.755L360.905 258.07C362.165 258.385 362.735 258.97 362.735 260.02C362.735 261.325 361.625 262.18 359.975 262.18C358.34 262.18 357.32 261.31 357.32 259.96ZM365.474 262H364.439V254.74H365.339L365.489 256C365.969 255.07 366.929 254.545 367.979 254.545C369.974 254.545 370.799 255.73 370.799 257.56V262H369.764V257.785C369.764 256.09 368.999 255.49 367.799 255.49C366.314 255.49 365.474 256.57 365.474 258.205V262ZM375.907 262.18C373.777 262.18 372.352 260.65 372.352 258.37C372.352 256.105 373.762 254.545 375.832 254.545C377.797 254.545 379.132 255.94 379.132 257.995V258.505H373.357C373.432 260.275 374.362 261.295 375.922 261.295C377.107 261.295 377.872 260.785 378.142 259.825H379.132C378.742 261.355 377.617 262.18 375.907 262.18ZM375.832 255.43C374.467 255.43 373.567 256.33 373.387 257.755H378.097C378.097 256.36 377.197 255.43 375.832 255.43ZM383.832 262.18C381.702 262.18 380.277 260.65 380.277 258.37C380.277 256.105 381.687 254.545 383.757 254.545C385.722 254.545 387.057 255.94 387.057 257.995V258.505H381.282C381.357 260.275 382.287 261.295 383.847 261.295C385.032 261.295 385.797 260.785 386.067 259.825H387.057C386.667 261.355 385.542 262.18 383.832 262.18ZM383.757 255.43C382.392 255.43 381.492 256.33 381.312 257.755H386.022C386.022 256.36 385.122 255.43 383.757 255.43ZM393.545 262H388.07V261.175L392.27 255.61H388.07V254.74H393.545V255.58L389.33 261.13H393.545V262ZM395.726 252.745C395.306 252.745 394.961 252.4 394.961 251.98C394.961 251.56 395.306 251.2 395.726 251.2C396.146 251.2 396.506 251.56 396.506 251.98C396.506 252.4 396.146 252.745 395.726 252.745ZM395.216 262V254.74H396.251V262H395.216ZM399.444 262H398.409V254.74H399.309L399.459 256C399.939 255.07 400.899 254.545 401.949 254.545C403.944 254.545 404.769 255.73 404.769 257.56V262H403.734V257.785C403.734 256.09 402.969 255.49 401.769 255.49C400.284 255.49 399.444 256.57 399.444 258.205V262ZM312.74 306H306.305V295.26H312.725V296.25H307.385V300.12H312.23V301.095H307.385V305.01H312.74V306ZM315.743 306H314.708V298.74H315.608L315.758 300C316.238 299.07 317.198 298.545 318.248 298.545C320.243 298.545 321.068 299.73 321.068 301.56V306H320.033V301.785C320.033 300.09 319.268 299.49 318.068 299.49C316.583 299.49 315.743 300.57 315.743 302.205V306ZM324.796 306H323.776V299.61H322.321V298.74H323.776V296.445H324.796V298.74H326.251V299.61H324.796V306ZM330.57 306.18C328.44 306.18 327.015 304.65 327.015 302.37C327.015 300.105 328.425 298.545 330.495 298.545C332.46 298.545 333.795 299.94 333.795 301.995V302.505H328.02C328.095 304.275 329.025 305.295 330.585 305.295C331.77 305.295 332.535 304.785 332.805 303.825H333.795C333.405 305.355 332.28 306.18 330.57 306.18ZM330.495 299.43C329.13 299.43 328.23 300.33 328.05 301.755H332.76C332.76 300.36 331.86 299.43 330.495 299.43ZM339.245 298.65V299.58H338.675C337.34 299.58 336.485 300.48 336.485 301.86V306H335.45V298.74H336.425L336.5 299.865C336.785 299.085 337.55 298.575 338.57 298.575C338.795 298.575 338.99 298.59 339.245 298.65ZM340.006 303.96H340.996C340.996 304.8 341.626 305.325 342.646 305.325C343.771 305.325 344.431 304.845 344.431 304.065C344.431 303.465 344.131 303.12 343.276 302.91L342.031 302.595C340.771 302.28 340.156 301.62 340.156 300.63C340.156 299.355 341.221 298.545 342.781 298.545C344.311 298.545 345.301 299.385 345.346 300.735H344.341C344.311 299.895 343.726 299.4 342.751 299.4C341.731 299.4 341.161 299.835 341.161 300.615C341.161 301.17 341.551 301.56 342.346 301.755L343.591 302.07C344.851 302.385 345.421 302.97 345.421 304.02C345.421 305.325 344.311 306.18 342.661 306.18C341.026 306.18 340.006 305.31 340.006 303.96ZM353.37 306.18C351.825 306.18 350.91 305.31 350.91 304.035C350.91 302.7 351.93 301.86 353.625 301.725L356.025 301.53V301.29C356.025 299.865 355.17 299.415 354.105 299.415C352.845 299.415 352.095 299.985 352.095 300.96H351.15C351.15 299.49 352.35 298.545 354.135 298.545C355.815 298.545 357.045 299.385 357.045 301.305V306H356.175L356.04 304.725C355.59 305.64 354.6 306.18 353.37 306.18ZM353.61 305.34C355.14 305.34 356.025 304.275 356.025 302.7V302.31L353.88 302.475C352.515 302.595 351.96 303.195 351.96 304.005C351.96 304.89 352.62 305.34 353.61 305.34ZM360.157 306H359.122V298.74H360.022L360.172 300C360.652 299.07 361.612 298.545 362.662 298.545C364.657 298.545 365.482 299.73 365.482 301.56V306H364.447V301.785C364.447 300.09 363.682 299.49 362.482 299.49C360.997 299.49 360.157 300.57 360.157 302.205V306ZM369.63 306.18C368.085 306.18 367.17 305.31 367.17 304.035C367.17 302.7 368.19 301.86 369.885 301.725L372.285 301.53V301.29C372.285 299.865 371.43 299.415 370.365 299.415C369.105 299.415 368.355 299.985 368.355 300.96H367.41C367.41 299.49 368.61 298.545 370.395 298.545C372.075 298.545 373.305 299.385 373.305 301.305V306H372.435L372.3 304.725C371.85 305.64 370.86 306.18 369.63 306.18ZM369.87 305.34C371.4 305.34 372.285 304.275 372.285 302.7V302.31L370.14 302.475C368.775 302.595 368.22 303.195 368.22 304.005C368.22 304.89 368.88 305.34 369.87 305.34ZM375.382 309.165V298.74H376.282L376.387 300.21C376.897 299.085 377.917 298.545 379.132 298.545C381.232 298.545 382.492 300.15 382.492 302.34C382.492 304.53 381.277 306.18 379.132 306.18C377.902 306.18 376.927 305.655 376.417 304.605V309.165H375.382ZM376.432 302.37C376.432 304.035 377.362 305.25 378.952 305.25C380.527 305.25 381.442 304.035 381.442 302.37C381.442 300.69 380.527 299.49 378.952 299.49C377.362 299.49 376.432 300.69 376.432 302.37ZM385.177 305.985H384.142V295.065H385.177V300C385.642 299.13 386.527 298.545 387.742 298.545C389.647 298.545 390.502 299.73 390.502 301.56V306H389.467V301.785C389.467 300.09 388.672 299.49 387.547 299.49C385.987 299.49 385.177 300.645 385.177 302.04V305.985ZM391.683 309.165V308.31H392.478C393.108 308.31 393.738 308.265 394.098 307.29L394.413 306.435L391.473 298.74H392.568L394.908 305.07L397.203 298.74H398.268L394.938 307.665C394.518 308.805 393.813 309.27 392.778 309.27C392.343 309.27 392.013 309.24 391.683 309.165ZM400.558 306H399.523V295.065H400.558V306ZM310.685 350.165C307.685 350.165 305.645 347.93 305.645 344.63C305.645 341.33 307.715 339.08 310.745 339.08C313.055 339.08 314.87 340.475 315.305 342.605H314.15C313.7 341.06 312.38 340.115 310.7 340.115C308.345 340.115 306.77 341.915 306.77 344.63C306.77 347.33 308.345 349.13 310.7 349.13C312.395 349.13 313.745 348.215 314.21 346.775H315.365C314.87 348.8 312.995 350.165 310.685 350.165ZM318.946 350.18C317.401 350.18 316.486 349.31 316.486 348.035C316.486 346.7 317.506 345.86 319.201 345.725L321.601 345.53V345.29C321.601 343.865 320.746 343.415 319.681 343.415C318.421 343.415 317.671 343.985 317.671 344.96H316.726C316.726 343.49 317.926 342.545 319.711 342.545C321.391 342.545 322.621 343.385 322.621 345.305V350H321.751L321.616 348.725C321.166 349.64 320.176 350.18 318.946 350.18ZM319.186 349.34C320.716 349.34 321.601 348.275 321.601 346.7V346.31L319.456 346.475C318.091 346.595 317.536 347.195 317.536 348.005C317.536 348.89 318.196 349.34 319.186 349.34ZM329.798 342.74H330.833V350H329.933L329.798 348.77C329.393 349.61 328.388 350.18 327.248 350.18C325.538 350.18 324.608 349.01 324.608 347.24V342.725H325.658V346.91C325.658 348.635 326.423 349.25 327.578 349.25C328.973 349.25 329.798 348.32 329.798 346.595V342.74ZM332.228 347.96H333.218C333.218 348.8 333.848 349.325 334.868 349.325C335.993 349.325 336.653 348.845 336.653 348.065C336.653 347.465 336.353 347.12 335.498 346.91L334.253 346.595C332.993 346.28 332.378 345.62 332.378 344.63C332.378 343.355 333.443 342.545 335.003 342.545C336.533 342.545 337.523 343.385 337.568 344.735H336.563C336.533 343.895 335.948 343.4 334.973 343.4C333.953 343.4 333.383 343.835 333.383 344.615C333.383 345.17 333.773 345.56 334.568 345.755L335.813 346.07C337.073 346.385 337.643 346.97 337.643 348.02C337.643 349.325 336.533 350.18 334.883 350.18C333.248 350.18 332.228 349.31 332.228 347.96ZM342.392 350.18C340.262 350.18 338.837 348.65 338.837 346.37C338.837 344.105 340.247 342.545 342.317 342.545C344.282 342.545 345.617 343.94 345.617 345.995V346.505H339.842C339.917 348.275 340.847 349.295 342.407 349.295C343.592 349.295 344.357 348.785 344.627 347.825H345.617C345.227 349.355 344.102 350.18 342.392 350.18ZM342.317 343.43C340.952 343.43 340.052 344.33 339.872 345.755H344.582C344.582 344.36 343.682 343.43 342.317 343.43ZM346.656 347.96H347.646C347.646 348.8 348.276 349.325 349.296 349.325C350.421 349.325 351.081 348.845 351.081 348.065C351.081 347.465 350.781 347.12 349.926 346.91L348.681 346.595C347.421 346.28 346.806 345.62 346.806 344.63C346.806 343.355 347.871 342.545 349.431 342.545C350.961 342.545 351.951 343.385 351.996 344.735H350.991C350.961 343.895 350.376 343.4 349.401 343.4C348.381 343.4 347.811 343.835 347.811 344.615C347.811 345.17 348.201 345.56 348.996 345.755L350.241 346.07C351.501 346.385 352.071 346.97 352.071 348.02C352.071 349.325 350.961 350.18 349.311 350.18C347.676 350.18 346.656 349.31 346.656 347.96ZM357.32 347.96H358.31C358.31 348.8 358.94 349.325 359.96 349.325C361.085 349.325 361.745 348.845 361.745 348.065C361.745 347.465 361.445 347.12 360.59 346.91L359.345 346.595C358.085 346.28 357.47 345.62 357.47 344.63C357.47 343.355 358.535 342.545 360.095 342.545C361.625 342.545 362.615 343.385 362.66 344.735H361.655C361.625 343.895 361.04 343.4 360.065 343.4C359.045 343.4 358.475 343.835 358.475 344.615C358.475 345.17 358.865 345.56 359.66 345.755L360.905 346.07C362.165 346.385 362.735 346.97 362.735 348.02C362.735 349.325 361.625 350.18 359.975 350.18C358.34 350.18 357.32 349.31 357.32 347.96ZM365.474 350H364.439V342.74H365.339L365.489 344C365.969 343.07 366.929 342.545 367.979 342.545C369.974 342.545 370.799 343.73 370.799 345.56V350H369.764V345.785C369.764 344.09 368.999 343.49 367.799 343.49C366.314 343.49 365.474 344.57 365.474 346.205V350ZM375.907 350.18C373.777 350.18 372.352 348.65 372.352 346.37C372.352 344.105 373.762 342.545 375.832 342.545C377.797 342.545 379.132 343.94 379.132 345.995V346.505H373.357C373.432 348.275 374.362 349.295 375.922 349.295C377.107 349.295 377.872 348.785 378.142 347.825H379.132C378.742 349.355 377.617 350.18 375.907 350.18ZM375.832 343.43C374.467 343.43 373.567 344.33 373.387 345.755H378.097C378.097 344.36 377.197 343.43 375.832 343.43ZM383.832 350.18C381.702 350.18 380.277 348.65 380.277 346.37C380.277 344.105 381.687 342.545 383.757 342.545C385.722 342.545 387.057 343.94 387.057 345.995V346.505H381.282C381.357 348.275 382.287 349.295 383.847 349.295C385.032 349.295 385.797 348.785 386.067 347.825H387.057C386.667 349.355 385.542 350.18 383.832 350.18ZM383.757 343.43C382.392 343.43 381.492 344.33 381.312 345.755H386.022C386.022 344.36 385.122 343.43 383.757 343.43ZM393.545 350H388.07V349.175L392.27 343.61H388.07V342.74H393.545V343.58L389.33 349.13H393.545V350ZM395.726 340.745C395.306 340.745 394.961 340.4 394.961 339.98C394.961 339.56 395.306 339.2 395.726 339.2C396.146 339.2 396.506 339.56 396.506 339.98C396.506 340.4 396.146 340.745 395.726 340.745ZM395.216 350V342.74H396.251V350H395.216ZM399.444 350H398.409V342.74H399.309L399.459 344C399.939 343.07 400.899 342.545 401.949 342.545C403.944 342.545 404.769 343.73 404.769 345.56V350H403.734V345.785C403.734 344.09 402.969 343.49 401.769 343.49C400.284 343.49 399.444 344.57 399.444 346.205V350Z" fill="black"/>
<rect opacity="0.96" x="364" y="239" width="57" height="147" rx="20" fill="url(#paint0_linear_2016_326)"/>
<path d="M129 273H407" stroke="black" stroke-width="0.5"/>
<path d="M129 318H407" stroke="black" stroke-width="0.5"/>
<path d="M129 367H407" stroke="black" stroke-width="0.5"/>
<path d="M299.85 62.18C296.655 62.18 294.585 59.96 294.585 56.525C294.585 53.12 296.73 50.855 299.94 50.855C302.535 50.855 304.47 52.37 304.845 54.725H302.82C302.445 53.45 301.35 52.7 299.895 52.7C297.87 52.7 296.595 54.17 296.595 56.51C296.595 58.835 297.885 60.335 299.895 60.335C301.38 60.335 302.52 59.555 302.88 58.34H304.875C304.455 60.65 302.445 62.18 299.85 62.18ZM308.385 62.195C306.81 62.195 305.85 61.28 305.85 59.885C305.85 58.52 306.84 57.665 308.595 57.53L310.815 57.365V57.2C310.815 56.195 310.215 55.79 309.285 55.79C308.205 55.79 307.605 56.24 307.605 57.02H306.045C306.045 55.415 307.365 54.365 309.375 54.365C311.37 54.365 312.6 55.445 312.6 57.5V62H310.995L310.86 60.905C310.545 61.67 309.54 62.195 308.385 62.195ZM308.985 60.815C310.11 60.815 310.83 60.14 310.83 59V58.61L309.285 58.73C308.145 58.835 307.71 59.21 307.71 59.81C307.71 60.485 308.16 60.815 308.985 60.815ZM316.228 62H314.398V54.59H316.093L316.243 55.55C316.708 54.8 317.608 54.365 318.613 54.365C320.473 54.365 321.433 55.52 321.433 57.44V62H319.603V57.875C319.603 56.63 318.988 56.03 318.043 56.03C316.918 56.03 316.228 56.81 316.228 58.01V62ZM326.629 65.435V63.905H327.724C328.444 63.905 328.894 63.74 329.209 62.87L329.419 62.315L326.434 54.59H328.369L330.274 59.99L332.284 54.59H334.174L330.544 63.65C329.989 65.03 329.209 65.6 327.994 65.6C327.484 65.6 327.034 65.54 326.629 65.435ZM334.442 58.28C334.442 55.97 336.107 54.38 338.402 54.38C340.697 54.38 342.362 55.97 342.362 58.28C342.362 60.59 340.697 62.18 338.402 62.18C336.107 62.18 334.442 60.59 334.442 58.28ZM336.272 58.28C336.272 59.63 337.142 60.545 338.402 60.545C339.662 60.545 340.532 59.63 340.532 58.28C340.532 56.93 339.662 56.015 338.402 56.015C337.142 56.015 336.272 56.93 336.272 58.28ZM348.661 54.59H350.491V62H348.796L348.661 61.01C348.211 61.715 347.251 62.195 346.261 62.195C344.551 62.195 343.546 61.04 343.546 59.225V54.59H345.376V58.58C345.376 59.99 345.931 60.56 346.951 60.56C348.106 60.56 348.661 59.885 348.661 58.475V54.59ZM355.854 59.75H357.594C357.609 60.395 358.089 60.8 358.929 60.8C359.784 60.8 360.249 60.455 360.249 59.915C360.249 59.54 360.054 59.27 359.394 59.12L358.059 58.805C356.724 58.505 356.079 57.875 356.079 56.69C356.079 55.235 357.309 54.365 359.019 54.365C360.684 54.365 361.809 55.325 361.824 56.765H360.084C360.069 56.135 359.649 55.73 358.944 55.73C358.224 55.73 357.804 56.06 357.804 56.615C357.804 57.035 358.134 57.305 358.764 57.455L360.099 57.77C361.344 58.055 361.974 58.625 361.974 59.765C361.974 61.265 360.699 62.195 358.869 62.195C357.024 62.195 355.854 61.205 355.854 59.75ZM365.198 62H363.368V50.84H365.213V55.55C365.678 54.83 366.548 54.365 367.613 54.365C369.443 54.365 370.403 55.52 370.403 57.44V62H368.573V57.875C368.573 56.63 367.958 56.03 367.028 56.03C365.873 56.03 365.198 56.84 365.198 57.95V62ZM371.766 58.28C371.766 55.97 373.431 54.38 375.726 54.38C378.021 54.38 379.686 55.97 379.686 58.28C379.686 60.59 378.021 62.18 375.726 62.18C373.431 62.18 371.766 60.59 371.766 58.28ZM373.596 58.28C373.596 59.63 374.466 60.545 375.726 60.545C376.986 60.545 377.856 59.63 377.856 58.28C377.856 56.93 376.986 56.015 375.726 56.015C374.466 56.015 373.596 56.93 373.596 58.28ZM382.405 62L380.005 54.59H381.91L382.885 57.77C383.05 58.355 383.2 59 383.335 59.69C383.47 58.97 383.605 58.505 383.845 57.77L384.865 54.59H386.725L387.715 57.77C387.805 58.07 388.105 59.18 388.195 59.675C388.315 59.12 388.555 58.235 388.69 57.77L389.68 54.59H391.615L389.05 62H387.34L386.32 58.79C386.02 57.815 385.855 57.11 385.795 56.735C385.72 57.08 385.585 57.605 385.21 58.82L384.19 62H382.405ZM398.596 62H396.766V54.59H398.446L398.596 55.46C398.971 54.845 399.721 54.365 400.786 54.365C401.911 54.365 402.691 54.92 403.081 55.775C403.456 54.92 404.326 54.365 405.451 54.365C407.251 54.365 408.241 55.445 408.241 57.155V62H406.426V57.635C406.426 56.57 405.856 56.015 404.986 56.015C404.101 56.015 403.426 56.585 403.426 57.8V62H401.596V57.62C401.596 56.585 401.041 56.03 400.171 56.03C399.301 56.03 398.596 56.6 398.596 57.8V62ZM413.353 62.195C411.148 62.195 409.603 60.59 409.603 58.295C409.603 55.97 411.118 54.365 413.293 54.365C415.513 54.365 416.923 55.85 416.923 58.16V58.715L411.343 58.73C411.478 60.035 412.168 60.695 413.383 60.695C414.388 60.695 415.048 60.305 415.258 59.6H416.953C416.638 61.22 415.288 62.195 413.353 62.195ZM413.308 55.865C412.228 55.865 411.568 56.45 411.388 57.56H415.108C415.108 56.54 414.403 55.865 413.308 55.865ZM424.635 62.195C423.06 62.195 422.1 61.28 422.1 59.885C422.1 58.52 423.09 57.665 424.845 57.53L427.065 57.365V57.2C427.065 56.195 426.465 55.79 425.535 55.79C424.455 55.79 423.855 56.24 423.855 57.02H422.295C422.295 55.415 423.615 54.365 425.625 54.365C427.62 54.365 428.85 55.445 428.85 57.5V62H427.245L427.11 60.905C426.795 61.67 425.79 62.195 424.635 62.195ZM425.235 60.815C426.36 60.815 427.08 60.14 427.08 59V58.61L425.535 58.73C424.395 58.835 423.96 59.21 423.96 59.81C423.96 60.485 424.41 60.815 425.235 60.815ZM432.493 62H430.678V50.84H432.493V62ZM436.258 62H434.443V50.84H436.258V62ZM441.785 58.28C441.785 55.97 443.45 54.38 445.745 54.38C448.04 54.38 449.705 55.97 449.705 58.28C449.705 60.59 448.04 62.18 445.745 62.18C443.45 62.18 441.785 60.59 441.785 58.28ZM443.615 58.28C443.615 59.63 444.485 60.545 445.745 60.545C447.005 60.545 447.875 59.63 447.875 58.28C447.875 56.93 447.005 56.015 445.745 56.015C444.485 56.015 443.615 56.93 443.615 58.28ZM450.392 54.59H451.457V53.69C451.457 51.68 452.522 50.84 454.127 50.84C454.412 50.84 454.757 50.855 455.072 50.915V52.475H454.427C453.497 52.475 453.272 52.955 453.272 53.69V54.59H455.042V56.12H453.272V62H451.457V56.12H450.392V54.59ZM465.323 52.655C463.148 52.655 461.903 54.23 461.903 56.6C461.903 59.045 463.313 60.38 465.338 60.38C467.243 60.38 468.398 59.33 468.398 57.575V57.53H465.083V55.835H470.183V62H468.563L468.443 60.74C467.843 61.58 466.598 62.165 465.113 62.165C462.038 62.165 459.893 59.93 459.893 56.555C459.893 53.225 462.068 50.855 465.368 50.855C467.873 50.855 469.808 52.31 470.123 54.545H468.098C467.753 53.255 466.643 52.655 465.323 52.655ZM472.901 53.105C472.271 53.105 471.776 52.61 471.776 51.995C471.776 51.38 472.271 50.9 472.901 50.9C473.501 50.9 473.996 51.38 473.996 51.995C473.996 52.61 473.501 53.105 472.901 53.105ZM471.986 62V54.59H473.816V62H471.986ZM477.537 62H475.707V54.59H477.387L477.537 55.46C477.912 54.845 478.662 54.365 479.727 54.365C480.852 54.365 481.632 54.92 482.022 55.775C482.397 54.92 483.267 54.365 484.392 54.365C486.192 54.365 487.182 55.445 487.182 57.155V62H485.367V57.635C485.367 56.57 484.797 56.015 483.927 56.015C483.042 56.015 482.367 56.585 482.367 57.8V62H480.537V57.62C480.537 56.585 479.982 56.03 479.112 56.03C478.242 56.03 477.537 56.6 477.537 57.8V62ZM490.823 62H489.008V50.84H490.823V62ZM493.658 53.105C493.028 53.105 492.533 52.61 492.533 51.995C492.533 51.38 493.028 50.9 493.658 50.9C494.258 50.9 494.753 51.38 494.753 51.995C494.753 52.61 494.258 53.105 493.658 53.105ZM492.743 62V54.59H494.573V62H492.743ZM498.789 52.295C498.789 53.555 497.949 54.53 496.749 54.68V53.96C497.394 53.84 497.859 53.435 497.859 52.91C497.739 52.955 497.604 52.985 497.439 52.985C496.899 52.985 496.464 52.61 496.464 51.95C496.464 51.29 496.914 50.825 497.574 50.825C498.279 50.825 498.789 51.395 498.789 52.295ZM499.307 59.75H501.047C501.062 60.395 501.542 60.8 502.382 60.8C503.237 60.8 503.702 60.455 503.702 59.915C503.702 59.54 503.507 59.27 502.847 59.12L501.512 58.805C500.177 58.505 499.532 57.875 499.532 56.69C499.532 55.235 500.762 54.365 502.472 54.365C504.137 54.365 505.262 55.325 505.277 56.765H503.537C503.522 56.135 503.102 55.73 502.397 55.73C501.677 55.73 501.257 56.06 501.257 56.615C501.257 57.035 501.587 57.305 502.217 57.455L503.552 57.77C504.797 58.055 505.427 58.625 505.427 59.765C505.427 61.265 504.152 62.195 502.322 62.195C500.477 62.195 499.307 61.205 499.307 59.75ZM297.15 84.195C295.575 84.195 294.615 83.28 294.615 81.885C294.615 80.52 295.605 79.665 297.36 79.53L299.58 79.365V79.2C299.58 78.195 298.98 77.79 298.05 77.79C296.97 77.79 296.37 78.24 296.37 79.02H294.81C294.81 77.415 296.13 76.365 298.14 76.365C300.135 76.365 301.365 77.445 301.365 79.5V84H299.76L299.625 82.905C299.31 83.67 298.305 84.195 297.15 84.195ZM297.75 82.815C298.875 82.815 299.595 82.14 299.595 81V80.61L298.05 80.73C296.91 80.835 296.475 81.21 296.475 81.81C296.475 82.485 296.925 82.815 297.75 82.815ZM305.008 84H303.193V72.84H305.008V84ZM308.772 84H306.957V72.84H308.772V84ZM314.007 84.195C311.802 84.195 310.257 82.59 310.257 80.295C310.257 77.97 311.772 76.365 313.947 76.365C316.167 76.365 317.577 77.85 317.577 80.16V80.715L311.997 80.73C312.132 82.035 312.822 82.695 314.037 82.695C315.042 82.695 315.702 82.305 315.912 81.6H317.607C317.292 83.22 315.942 84.195 314.007 84.195ZM313.962 77.865C312.882 77.865 312.222 78.45 312.042 79.56H315.762C315.762 78.54 315.057 77.865 313.962 77.865ZM323.692 76.56V78.255H323.017C321.697 78.255 320.872 78.96 320.872 80.4V84H319.042V76.605H320.767L320.872 77.685C321.187 76.95 321.892 76.455 322.882 76.455C323.137 76.455 323.392 76.485 323.692 76.56ZM324.32 80.13C324.32 77.97 325.73 76.35 327.845 76.35C328.955 76.35 329.825 76.815 330.26 77.61L330.365 76.59H332.06V83.625C332.06 86.1 330.575 87.645 328.175 87.645C326.045 87.645 324.59 86.43 324.365 84.45H326.195C326.315 85.41 327.05 85.98 328.175 85.98C329.435 85.98 330.245 85.185 330.245 83.955V82.725C329.78 83.415 328.865 83.85 327.8 83.85C325.7 83.85 324.32 82.275 324.32 80.13ZM326.165 80.085C326.165 81.33 326.96 82.26 328.16 82.26C329.42 82.26 330.2 81.375 330.2 80.085C330.2 78.825 329.435 77.955 328.16 77.955C326.945 77.955 326.165 78.87 326.165 80.085ZM334.869 75.105C334.239 75.105 333.744 74.61 333.744 73.995C333.744 73.38 334.239 72.9 334.869 72.9C335.469 72.9 335.964 73.38 335.964 73.995C335.964 74.61 335.469 75.105 334.869 75.105ZM333.954 84V76.59H335.784V84H333.954ZM340.989 84.195C338.784 84.195 337.239 82.59 337.239 80.295C337.239 77.97 338.754 76.365 340.929 76.365C343.149 76.365 344.559 77.85 344.559 80.16V80.715L338.979 80.73C339.114 82.035 339.804 82.695 341.019 82.695C342.024 82.695 342.684 82.305 342.894 81.6H344.589C344.274 83.22 342.924 84.195 340.989 84.195ZM340.944 77.865C339.864 77.865 339.204 78.45 339.024 79.56H342.744C342.744 78.54 342.039 77.865 340.944 77.865ZM345.454 81.75H347.194C347.209 82.395 347.689 82.8 348.529 82.8C349.384 82.8 349.849 82.455 349.849 81.915C349.849 81.54 349.654 81.27 348.994 81.12L347.659 80.805C346.324 80.505 345.679 79.875 345.679 78.69C345.679 77.235 346.909 76.365 348.619 76.365C350.284 76.365 351.409 77.325 351.424 78.765H349.684C349.669 78.135 349.249 77.73 348.544 77.73C347.824 77.73 347.404 78.06 347.404 78.615C347.404 79.035 347.734 79.305 348.364 79.455L349.699 79.77C350.944 80.055 351.574 80.625 351.574 81.765C351.574 83.265 350.299 84.195 348.469 84.195C346.624 84.195 345.454 83.205 345.454 81.75ZM357.925 75.105C357.295 75.105 356.8 74.61 356.8 73.995C356.8 73.38 357.295 72.9 357.925 72.9C358.525 72.9 359.02 73.38 359.02 73.995C359.02 74.61 358.525 75.105 357.925 75.105ZM357.01 84V76.59H358.84V84H357.01ZM362.561 84H360.731V76.59H362.426L362.576 77.55C363.041 76.8 363.941 76.365 364.946 76.365C366.806 76.365 367.766 77.52 367.766 79.44V84H365.936V79.875C365.936 78.63 365.321 78.03 364.376 78.03C363.251 78.03 362.561 78.81 362.561 80.01V84ZM375.812 84.195C374.237 84.195 373.277 83.28 373.277 81.885C373.277 80.52 374.267 79.665 376.022 79.53L378.242 79.365V79.2C378.242 78.195 377.642 77.79 376.712 77.79C375.632 77.79 375.032 78.24 375.032 79.02H373.472C373.472 77.415 374.792 76.365 376.802 76.365C378.797 76.365 380.027 77.445 380.027 79.5V84H378.422L378.287 82.905C377.972 83.67 376.967 84.195 375.812 84.195ZM376.412 82.815C377.537 82.815 378.257 82.14 378.257 81V80.61L376.712 80.73C375.572 80.835 375.137 81.21 375.137 81.81C375.137 82.485 375.587 82.815 376.412 82.815ZM388.388 84H386.558V78.12H385.133V76.59H386.558V74.28H388.388V76.59H389.828V78.12H388.388V84ZM393.127 84.195C391.552 84.195 390.592 83.28 390.592 81.885C390.592 80.52 391.582 79.665 393.337 79.53L395.557 79.365V79.2C395.557 78.195 394.957 77.79 394.027 77.79C392.947 77.79 392.347 78.24 392.347 79.02H390.787C390.787 77.415 392.107 76.365 394.117 76.365C396.112 76.365 397.342 77.445 397.342 79.5V84H395.737L395.602 82.905C395.287 83.67 394.282 84.195 393.127 84.195ZM393.727 82.815C394.852 82.815 395.572 82.14 395.572 81V80.61L394.027 80.73C392.887 80.835 392.452 81.21 392.452 81.81C392.452 82.485 392.902 82.815 393.727 82.815ZM400.834 84H399.139V72.84H400.969V77.67C401.449 76.845 402.439 76.35 403.564 76.35C405.679 76.35 406.969 78 406.969 80.34C406.969 82.62 405.574 84.195 403.444 84.195C402.334 84.195 401.389 83.7 400.954 82.845L400.834 84ZM400.984 80.265C400.984 81.6 401.809 82.515 403.069 82.515C404.359 82.515 405.124 81.585 405.124 80.265C405.124 78.945 404.359 78 403.069 78C401.809 78 400.984 78.93 400.984 80.265ZM410.271 84H408.456V72.84H410.271V84ZM415.506 84.195C413.301 84.195 411.756 82.59 411.756 80.295C411.756 77.97 413.271 76.365 415.446 76.365C417.666 76.365 419.076 77.85 419.076 80.16V80.715L413.496 80.73C413.631 82.035 414.321 82.695 415.536 82.695C416.541 82.695 417.201 82.305 417.411 81.6H419.106C418.791 83.22 417.441 84.195 415.506 84.195ZM415.461 77.865C414.381 77.865 413.721 78.45 413.541 79.56H417.261C417.261 78.54 416.556 77.865 415.461 77.865ZM423.849 76.59H424.914V75.69C424.914 73.68 425.979 72.84 427.584 72.84C427.869 72.84 428.214 72.855 428.529 72.915V74.475H427.884C426.954 74.475 426.729 74.955 426.729 75.69V76.59H428.499V78.12H426.729V84H424.914V78.12H423.849V76.59ZM429.012 80.28C429.012 77.97 430.677 76.38 432.972 76.38C435.267 76.38 436.932 77.97 436.932 80.28C436.932 82.59 435.267 84.18 432.972 84.18C430.677 84.18 429.012 82.59 429.012 80.28ZM430.842 80.28C430.842 81.63 431.712 82.545 432.972 82.545C434.232 82.545 435.102 81.63 435.102 80.28C435.102 78.93 434.232 78.015 432.972 78.015C431.712 78.015 430.842 78.93 430.842 80.28ZM443.033 76.56V78.255H442.358C441.038 78.255 440.213 78.96 440.213 80.4V84H438.383V76.605H440.108L440.213 77.685C440.528 76.95 441.233 76.455 442.223 76.455C442.478 76.455 442.733 76.485 443.033 76.56ZM446.101 84H444.271V76.59H445.951L446.101 77.46C446.476 76.845 447.226 76.365 448.291 76.365C449.416 76.365 450.196 76.92 450.586 77.775C450.961 76.92 451.831 76.365 452.956 76.365C454.756 76.365 455.746 77.445 455.746 79.155V84H453.931V79.635C453.931 78.57 453.361 78.015 452.491 78.015C451.606 78.015 450.931 78.585 450.931 79.8V84H449.101V79.62C449.101 78.585 448.546 78.03 447.676 78.03C446.806 78.03 446.101 78.6 446.101 79.8V84ZM459.748 84.195C458.173 84.195 457.213 83.28 457.213 81.885C457.213 80.52 458.203 79.665 459.958 79.53L462.178 79.365V79.2C462.178 78.195 461.578 77.79 460.648 77.79C459.568 77.79 458.968 78.24 458.968 79.02H457.408C457.408 77.415 458.728 76.365 460.738 76.365C462.733 76.365 463.963 77.445 463.963 79.5V84H462.358L462.223 82.905C461.908 83.67 460.903 84.195 459.748 84.195ZM460.348 82.815C461.473 82.815 462.193 82.14 462.193 81V80.61L460.648 80.73C459.508 80.835 459.073 81.21 459.073 81.81C459.073 82.485 459.523 82.815 460.348 82.815ZM468.178 84H466.348V78.12H464.923V76.59H466.348V74.28H468.178V76.59H469.618V78.12H468.178V84ZM474.416 81.195H472.751V80.85C472.751 79.485 473.591 78.78 474.386 78.165C475.061 77.625 475.676 77.115 475.676 76.245C475.676 75.225 475.046 74.55 473.996 74.55C472.931 74.55 472.196 75.345 472.196 76.5H470.291C470.291 74.355 471.866 72.84 474.041 72.84C476.276 72.84 477.626 74.13 477.626 76.125C477.626 77.73 476.591 78.495 475.721 79.11C474.986 79.635 474.416 80.085 474.416 80.85V81.195ZM473.651 84.195C472.976 84.195 472.436 83.655 472.436 83.01C472.436 82.35 472.976 81.81 473.651 81.81C474.311 81.81 474.866 82.35 474.866 83.01C474.866 83.64 474.311 84.195 473.651 84.195Z" fill="black"/>
<path d="M93.0781 185.719C93.5662 186.067 94.151 186.254 94.7505 186.253C95.3501 186.253 95.9345 186.065 96.4219 185.716C96.9091 185.351 97.2795 184.853 97.4875 184.281L98.5719 180.947C98.832 180.161 99.272 179.447 99.8569 178.862C100.442 178.276 101.155 177.836 101.941 177.575L105.334 176.472C105.904 176.268 106.394 175.89 106.737 175.392C107.08 174.894 107.257 174.3 107.244 173.696C107.232 173.091 107.029 172.506 106.666 172.023C106.302 171.54 105.796 171.183 105.219 171.003L101.878 169.922C101.092 169.662 100.377 169.222 99.7914 168.637C99.2055 168.052 98.7643 167.339 98.5031 166.553L97.4 163.166C97.1998 162.606 96.8312 162.123 96.3449 161.781C95.8586 161.44 95.2785 161.257 94.6844 161.259C94.0817 161.257 93.4935 161.444 93.0029 161.794C92.5122 162.143 92.1439 162.639 91.95 163.209L90.8375 166.616C90.5763 167.378 90.146 168.071 89.5788 168.644C89.0117 169.216 88.3224 169.653 87.5625 169.922L84.175 171.019C83.6091 171.219 83.1197 171.59 82.7749 172.082C82.4302 172.573 82.2473 173.16 82.2518 173.76C82.2563 174.36 82.4479 174.944 82.7999 175.43C83.1519 175.916 83.6468 176.28 84.2156 176.472L87.55 177.556C88.3373 177.819 89.0524 178.262 89.6388 178.849C90.2251 179.437 90.6666 180.153 90.9281 180.941L92.0281 184.316C92.225 184.878 92.5938 185.369 93.0813 185.716M108.925 198.281C109.349 198.582 109.855 198.744 110.375 198.744C110.9 198.738 111.41 198.57 111.835 198.262C112.26 197.954 112.578 197.522 112.747 197.025L113.522 194.644C113.688 194.15 113.969 193.697 114.334 193.328C114.7 192.959 115.153 192.681 115.647 192.519L118.059 191.731C118.558 191.56 118.99 191.236 119.294 190.804C119.597 190.372 119.756 189.856 119.748 189.329C119.74 188.801 119.566 188.29 119.249 187.868C118.933 187.445 118.491 187.134 117.988 186.978L115.6 186.2C115.106 186.035 114.658 185.757 114.289 185.39C113.92 185.022 113.642 184.574 113.475 184.081L112.688 181.662C112.518 181.166 112.197 180.735 111.769 180.431C111.341 180.127 110.828 179.966 110.303 179.97C109.778 179.973 109.268 180.142 108.845 180.452C108.421 180.762 108.106 181.198 107.944 181.697L107.172 184.078C107.013 184.568 106.743 185.014 106.383 185.382C106.023 185.75 105.583 186.03 105.097 186.2L102.672 186.991C102.305 187.118 101.973 187.33 101.701 187.608C101.43 187.887 101.228 188.224 101.11 188.595C100.993 188.965 100.963 189.358 101.023 189.742C101.084 190.126 101.233 190.49 101.459 190.806C101.769 191.244 102.206 191.572 102.709 191.744L105.094 192.516C105.589 192.682 106.039 192.962 106.408 193.333C106.776 193.703 107.054 194.154 107.219 194.65L108.009 197.069C108.181 197.558 108.499 197.981 108.922 198.281" fill="#5C86A8"/>
<mask id="mask0_2016_326" style="mask-type:alpha" maskUnits="userSpaceOnUse" x="180" y="33" width="67" height="67">
<circle cx="213.5" cy="66.5" r="33.5" fill="#F1DB4D"/>
</mask>
<g mask="url(#mask0_2016_326)">
<circle cx="213" cy="67" r="34" fill="#C4EBDA"/>
<path d="M214 76C210.7 76 207.875 74.825 205.525 72.475C203.175 70.125 202 67.3 202 64C202 60.7 203.175 57.875 205.525 55.525C207.875 53.175 210.7 52 214 52C217.3 52 220.125 53.175 222.475 55.525C224.825 57.875 226 60.7 226 64C226 67.3 224.825 70.125 222.475 72.475C220.125 74.825 217.3 76 214 76ZM190 100V91.6C190 89.9 190.438 88.338 191.314 86.914C192.19 85.49 193.352 84.402 194.8 83.65C197.9 82.1 201.05 80.938 204.25 80.164C207.45 79.39 210.7 79.002 214 79C217.3 78.998 220.55 79.386 223.75 80.164C226.95 80.942 230.1 82.104 233.2 83.65C234.65 84.4 235.813 85.488 236.689 86.914C237.565 88.34 238.002 89.902 238 91.6V100H190Z" fill="black"/>
</g>
<defs>
<linearGradient id="paint0_linear_2016_326" x1="421" y1="282" x2="392.508" y2="282.472" gradientUnits="userSpaceOnUse">
<stop stop-color="#FDF8EC"/>
<stop offset="1" stop-color="#FDF8EC" stop-opacity="0.32"/>
</linearGradient>
</defs>
</svg>
