<svg width="32" height="32" viewBox="0 0 32 32" fill="none" xmlns="http://www.w3.org/2000/svg">
<path d="M15.97 10.97C15.8296 11.1106 15.7507 11.3013 15.7507 11.5C15.7507 11.6988 15.8296 11.8894 15.97 12.03L18.44 14.5L15.97 16.97C15.8963 17.0387 15.8372 17.1215 15.7962 17.2135C15.7552 17.3055 15.7332 17.4048 15.7314 17.5055C15.7296 17.6062 15.7482 17.7062 15.7859 17.7996C15.8236 17.893 15.8798 17.9778 15.951 18.049C16.0222 18.1203 16.107 18.1764 16.2004 18.2141C16.2938 18.2519 16.3938 18.2704 16.4945 18.2686C16.5952 18.2668 16.6946 18.2448 16.7865 18.2038C16.8785 18.1628 16.9613 18.1037 17.03 18.03L20.03 15.03C20.1705 14.8894 20.2494 14.6988 20.2494 14.5C20.2494 14.3013 20.1705 14.1106 20.03 13.97L17.03 10.97C16.8894 10.8296 16.6988 10.7507 16.5 10.7507C16.3013 10.7507 16.1106 10.8296 15.97 10.97ZM13.03 12.03C13.1625 11.8878 13.2346 11.6998 13.2312 11.5055C13.2278 11.3112 13.149 11.1258 13.0116 10.9884C12.8742 10.851 12.6888 10.7723 12.4945 10.7688C12.3002 10.7654 12.1122 10.8375 11.97 10.97L8.97001 13.97C8.82956 14.1106 8.75067 14.3013 8.75067 14.5C8.75067 14.6988 8.82956 14.8894 8.97001 15.03L11.97 18.03C12.1122 18.1625 12.3002 18.2346 12.4945 18.2312C12.6888 18.2278 12.8742 18.149 13.0116 18.0116C13.149 17.8742 13.2278 17.6888 13.2312 17.4945C13.2346 17.3002 13.1625 17.1122 13.03 16.97L10.56 14.5L13.03 12.03Z" fill="black"/>
<path d="M14.5 4C20.299 4 25 8.701 25 14.5C25.0035 17.0261 24.0928 19.4681 22.436 21.375L26.78 25.72C26.8787 25.8117 26.9509 25.9283 26.9889 26.0575C27.0269 26.1868 27.0294 26.3239 26.996 26.4544C26.9626 26.5849 26.8947 26.704 26.7993 26.7992C26.7039 26.8943 26.5846 26.962 26.454 26.995C26.3236 27.0283 26.1867 27.0259 26.0575 26.9881C25.9284 26.9503 25.8118 26.8784 25.72 26.78L21.375 22.436C19.4681 24.0928 17.0261 25.0035 14.5 25C8.701 25 4 20.299 4 14.5C4 8.701 8.701 4 14.5 4ZM5.5 14.5C5.5 16.8869 6.44821 19.1761 8.13604 20.864C9.82387 22.5518 12.1131 23.5 14.5 23.5C16.8869 23.5 19.1761 22.5518 20.864 20.864C22.5518 19.1761 23.5 16.8869 23.5 14.5C23.5 12.1131 22.5518 9.82387 20.864 8.13604C19.1761 6.44821 16.8869 5.5 14.5 5.5C12.1131 5.5 9.82387 6.44821 8.13604 8.13604C6.44821 9.82387 5.5 12.1131 5.5 14.5Z" fill="black"/>
</svg>
