<svg width="32" height="32" viewBox="0 0 32 32" fill="none" xmlns="http://www.w3.org/2000/svg">
<path d="M21 21H23.5C24.163 21 24.7989 20.7366 25.2678 20.2678C25.7366 19.7989 26 19.163 26 18.5V5.5C26 4.83696 25.7366 4.20107 25.2678 3.73223C24.7989 3.26339 24.163 3 23.5 3H8.5C7.83696 3 7.20107 3.26339 6.73223 3.73223C6.26339 4.20107 6 4.83696 6 5.5V18.5C6 19.163 6.26339 19.7989 6.73223 20.2678C7.20107 20.7366 7.83696 21 8.5 21H11" stroke="black" stroke-linecap="round" stroke-linejoin="round"/>
<path d="M11 15L16 10L21 15M16 29V11" stroke="black" stroke-linecap="round" stroke-linejoin="round"/>
</svg>
