<svg width="32" height="32" viewBox="0 0 32 32" fill="none" xmlns="http://www.w3.org/2000/svg">
<path d="M6.20533 25.7946V24.4613H10.3333L8.928 23.072C7.90756 22.0515 7.16444 20.9449 6.69867 19.752C6.23289 18.5609 6 17.3502 6 16.12C6 13.9778 6.61067 12.0395 7.832 10.3053C9.05333 8.57109 10.6649 7.33242 12.6667 6.58931V8.00531C11.0489 8.68531 9.75556 9.76265 8.78667 11.2373C7.81778 12.712 7.33333 14.3386 7.33333 16.1173C7.33333 17.2035 7.53956 18.2569 7.952 19.2773C8.36356 20.2995 9.00356 21.2449 9.872 22.1133L11.2307 23.472V19.436H12.564V25.796L6.20533 25.7946ZM19.3333 25.4106V23.9946C20.9511 23.3146 22.2444 22.2373 23.2133 20.7626C24.1822 19.288 24.6667 17.6613 24.6667 15.8826C24.6667 14.7964 24.4609 13.7431 24.0493 12.7226C23.6369 11.7004 22.9969 10.7555 22.1293 9.88798L20.7693 8.52798V12.564H19.436V6.20398H25.796V7.53731H21.6667L23.072 8.92798C24.0924 9.94842 24.8356 11.0551 25.3013 12.248C25.7671 13.44 26 14.6515 26 15.8826C26 18.0249 25.3893 19.9626 24.168 21.696C22.9467 23.4293 21.3351 24.6675 19.3333 25.4106Z" fill="black"/>
</svg>
