<svg width="32" height="32" viewBox="0 0 32 32" fill="none" xmlns="http://www.w3.org/2000/svg">
<path d="M17.1 9.77123L23.0675 11.36M15.8225 14.5162L18.805 15.3112M15.9713 23.4575L17.1638 23.7762C20.5388 24.6762 22.2263 25.125 23.5563 24.3612C24.885 23.5987 25.3375 21.92 26.2413 18.565L27.52 13.8187C28.425 10.4625 28.8763 8.78498 28.1088 7.46248C27.3413 6.13998 25.655 5.69123 22.2788 4.79248L21.0863 4.47373C17.7113 3.57373 16.0238 3.12498 14.695 3.88873C13.365 4.65123 12.9125 6.32998 12.0075 9.68498L10.73 14.4312C9.825 17.7875 9.3725 19.465 10.1413 20.7875C10.9088 22.1087 12.5963 22.5587 15.9713 23.4575Z" stroke="black" stroke-width="1.5" stroke-linecap="round" stroke-linejoin="round"/>
<path d="M16 27.1825L14.81 27.5075C11.4425 28.4237 9.76 28.8825 8.4325 28.1037C7.1075 27.3262 6.655 25.6162 5.75375 22.1937L4.4775 17.3537C3.575 13.9325 3.12375 12.2212 3.89 10.8737C4.5525 9.70745 6 9.74995 7.875 9.74995" stroke="black" stroke-width="1.5" stroke-linecap="round" stroke-linejoin="round"/>
</svg>
