<svg width="32" height="32" viewBox="0 0 32 32" fill="none" xmlns="http://www.w3.org/2000/svg">
<path fill-rule="evenodd" clip-rule="evenodd" d="M4.944 15.79C4.96038 15.6851 5.00976 15.588 5.085 15.513L15.163 5.43503C15.2568 5.34129 15.3839 5.28864 15.5165 5.28864C15.6491 5.28864 15.7762 5.34129 15.87 5.43503L19.76 9.32503C19.8534 9.41875 19.9059 9.54569 19.9059 9.67803C19.9059 9.81037 19.8534 9.93731 19.76 10.031L9.68 20.11C9.60485 20.1849 9.50785 20.2339 9.403 20.25L4.808 20.956C4.73042 20.9679 4.65113 20.9614 4.57654 20.9369C4.50195 20.9125 4.43417 20.8709 4.37867 20.8154C4.32317 20.7599 4.28152 20.6921 4.25708 20.6175C4.23264 20.5429 4.2261 20.4636 4.238 20.386L4.944 15.79ZM5.908 16.104L5.331 19.864L9.09 19.286L18.699 9.67803L15.516 6.49603L5.908 16.104Z" fill="#1E1E1E"/>
<path fill-rule="evenodd" clip-rule="evenodd" d="M16.472 12.1731L12.935 8.64306L13.642 7.93506L17.178 11.4651L16.472 12.1731Z" fill="#1E1E1E"/>
<path fill-rule="evenodd" clip-rule="evenodd" d="M13.944 19.79C13.9604 19.6851 14.0098 19.588 14.085 19.513L24.163 9.43503C24.2568 9.34129 24.3839 9.28864 24.5165 9.28864C24.6491 9.28864 24.7762 9.34129 24.87 9.43503L28.76 13.325C28.8534 13.4188 28.9059 13.5457 28.9059 13.678C28.9059 13.8104 28.8534 13.9373 28.76 14.031L18.68 24.11C18.6049 24.1849 18.5078 24.2339 18.403 24.25L13.808 24.956C13.7304 24.9679 13.6511 24.9614 13.5765 24.9369C13.502 24.9125 13.4342 24.8709 13.3787 24.8154C13.3232 24.7599 13.2815 24.6921 13.2571 24.6175C13.2326 24.5429 13.2261 24.4636 13.238 24.386L13.944 19.79ZM14.908 20.104L14.331 23.864L18.09 23.286L27.699 13.678L24.516 10.496L14.908 20.104Z" fill="#1E1E1E"/>
<path fill-rule="evenodd" clip-rule="evenodd" d="M25.472 16.1731L21.935 12.6431L22.642 11.9351L26.178 15.4651L25.472 16.1731Z" fill="#1E1E1E"/>
</svg>
